<svg width="79" height="79" viewBox="0 0 79 79" fill="none" xmlns="http://www.w3.org/2000/svg">
<path d="M79 39.5003C79 61.3149 61.3153 79 39.5 79C17.6847 79 0 61.3149 0 39.5003C0 17.6849 17.6847 7.62939e-06 39.5 7.62939e-06C61.3153 7.62939e-06 79 17.6849 79 39.5003Z" fill="#19294F"/>
<path d="M73.6712 39.5001C73.6712 58.373 58.3717 73.6732 39.498 73.6732C20.6245 73.6732 5.32422 58.373 5.32422 39.5001C5.32422 20.6265 20.6245 5.3265 39.498 5.3265C58.3717 5.3265 73.6712 20.6265 73.6712 39.5001Z" fill="#19294F"/>
<path d="M65.1308 52.6412H64.5297V51.6487V49.981V48.1693V48.0242H64.5258C64.4809 46.7675 63.8584 45.6551 62.9322 45.2038L61.7015 44.6549L56.7885 42.4646L54.5558 39.5161L49.7126 33.1203C49.2568 32.4039 48.4668 31.9703 47.6176 31.9703H43.5732H42.6797H18.5628C17.1926 31.9703 16.0819 33.081 16.0819 34.4511V41.4851C15.0852 42.11 14.4779 43.2127 14.4779 44.4007V44.6549V46.5801V48.1415V52.6412H13.8762C12.9663 52.6412 12.2285 53.3791 12.2285 54.2889C12.2285 55.1987 12.9663 55.9365 13.8762 55.9365H14.4779V55.9371H16.0819H17.6857H20.4233C20.4233 58.6917 22.6566 60.9244 25.4112 60.9244C28.1656 60.9244 30.3985 58.6917 30.3985 55.9371H48.6091C48.6097 58.6917 50.8427 60.9244 53.597 60.9244C56.3516 60.9244 58.5843 58.6917 58.5849 55.9371H64.5303V55.9365H65.1315C66.0419 55.9365 66.7791 55.1987 66.7791 54.2889C66.7791 53.3791 66.0419 52.6412 65.1315 52.6412" fill="#19294F"/>
<path d="M25.2365 25.802C25.2355 25.803 25.2344 25.804 25.2324 25.804C25.1523 25.8681 25.0762 25.9374 25.0047 26.011C25.0027 26.013 24.9987 26.0171 24.9967 26.0191C24.9264 26.0924 24.8612 26.1707 24.8009 26.253C24.7989 26.255 24.7969 26.259 24.7949 26.263C24.7683 26.2998 24.7422 26.3384 24.7172 26.3771C24.7132 26.3831 24.7112 26.3871 24.7072 26.3931C24.6805 26.4358 24.655 26.4788 24.6312 26.5237L24.6305 26.5243C24.6085 26.5663 24.5874 26.6094 24.5676 26.6524C24.5636 26.6624 24.5597 26.6705 24.5537 26.6803C24.5357 26.7223 24.5174 26.7655 24.5016 26.8086C24.5004 26.8106 24.4996 26.8126 24.4976 26.8166C24.4816 26.862 24.4654 26.9085 24.4511 26.9555C24.4491 26.9656 24.4451 26.9772 24.4411 26.9886C24.4311 27.0266 24.4206 27.0651 24.4114 27.1043C24.4094 27.1143 24.4055 27.1253 24.4035 27.1356C24.3935 27.1832 24.3855 27.2308 24.3775 27.2797C24.3763 27.2897 24.3754 27.2978 24.3734 27.3082C24.3674 27.3484 24.3634 27.3886 24.3614 27.4295C24.3602 27.4435 24.3594 27.4567 24.3574 27.4703C24.3554 27.5198 24.3514 27.5703 24.3514 27.6209C24.3514 27.7008 24.3554 27.7803 24.3634 27.858C24.3872 28.0919 24.4457 28.3155 24.5336 28.5237C24.5633 28.593 24.5954 28.6611 24.6313 28.727C24.6493 28.7594 24.6682 28.7922 24.6874 28.8241C24.7647 28.9518 24.8544 29.071 24.9543 29.1811C25.0041 29.2356 25.0564 29.2884 25.1114 29.3383C25.2045 29.423 25.3048 29.4995 25.411 29.5681L24.5723 31.9697H26.2091H27.1341H28.7712L27.9322 29.5681C27.9651 29.5465 27.9975 29.5245 28.0294 29.5018C28.0334 29.4998 28.0354 29.4978 28.0394 29.4958C28.1217 29.4356 28.1999 29.3697 28.2732 29.3C28.2752 29.296 28.2793 29.294 28.2813 29.292C28.3551 29.2205 28.4244 29.1445 28.4879 29.0638C28.4891 29.0628 28.4898 29.0617 28.4918 29.0597C28.6768 28.8259 28.8176 28.5558 28.9023 28.2618C31.7894 30.1484 34.9667 30.1128 37.2193 29.5491C37.6962 29.43 38.1315 29.2874 38.5139 29.1342C38.6711 29.0712 38.8186 29.0065 38.9572 28.9412C39.2966 28.7812 39.5776 28.6154 39.7888 28.4582C39.8807 28.3899 39.9583 28.3237 40.0232 28.26C40.0242 28.2584 40.0252 28.258 40.0272 28.256C40.5714 27.7124 40.4606 26.6044 39.8363 25.202C39.7472 25.0015 39.6474 24.7951 39.5379 24.5833C39.4829 24.4778 39.4255 24.3704 39.3652 24.2621C39.2455 24.0453 39.1156 23.824 38.9766 23.5979C38.8375 23.3726 38.6887 23.1428 38.5309 22.9102C38.3731 22.6775 38.2064 22.4408 38.031 22.2023C37.9437 22.0832 37.8534 21.9629 37.7615 21.8425C37.527 21.536 37.278 21.2256 37.0173 20.9135C36.8817 20.7521 36.7443 20.5899 36.6024 20.4275C36.5225 20.3362 36.4406 20.2447 36.3589 20.1534C36.3709 20.1434 36.3827 20.133 36.3941 20.1216C36.4322 20.0836 36.4668 20.0439 36.5008 20.0037C36.5108 19.9916 36.5189 19.9802 36.5287 19.9684C36.5537 19.9372 36.5769 19.9053 36.5989 19.8731C36.607 19.8611 36.615 19.8496 36.6228 19.8384C36.65 19.7958 36.6763 19.7522 36.6995 19.7079C36.7035 19.6999 36.7075 19.6919 36.7115 19.6823C36.7295 19.646 36.7474 19.6086 36.7632 19.5712C36.7692 19.5551 36.7751 19.5403 36.7812 19.5251C36.7952 19.4905 36.8066 19.4558 36.8174 19.4206C36.8215 19.4086 36.8274 19.394 36.8314 19.3809C36.8434 19.3349 36.8557 19.289 36.8649 19.2424C36.8689 19.2263 36.8708 19.2107 36.8728 19.1953C36.8788 19.1625 36.8829 19.1288 36.8869 19.0954C36.8889 19.0774 36.8908 19.058 36.8929 19.0388C36.8949 19.0047 36.8969 18.9706 36.8969 18.9364C36.8975 18.9204 36.8987 18.9058 36.8987 18.8906C36.8981 18.8457 36.8967 18.8003 36.8927 18.7548C36.8909 18.7344 36.8887 18.7146 36.8867 18.6947C36.8827 18.6657 36.8786 18.6369 36.8746 18.6085C36.8706 18.5874 36.8687 18.5664 36.8627 18.5454C36.8567 18.5114 36.8466 18.4779 36.8382 18.4438C36.8322 18.4188 36.8242 18.394 36.8154 18.3696C36.8074 18.344 36.7994 18.3185 36.7906 18.2935C36.79 18.2941 36.79 18.2945 36.79 18.2951C36.7059 18.0705 36.5748 17.8586 36.3944 17.6782C35.7196 17.0034 34.6257 17.0034 33.9509 17.6782C33.9389 17.6902 33.93 17.702 33.9192 17.7135C32.002 15.9959 30.1028 14.7319 28.5903 14.1162C28.5353 14.0939 28.4825 14.0747 28.4292 14.0537C28.381 14.0356 28.3321 14.0156 28.285 13.9986C27.1612 13.5933 26.2826 13.5791 25.8173 14.0447C25.8167 14.0447 25.8167 14.0447 25.8167 14.0447C25.8167 14.0451 25.8167 14.045 25.8167 14.045C25.7514 14.1103 25.6843 14.1898 25.6151 14.2829C25.4579 14.4942 25.2923 14.7751 25.1321 15.1145C25.0668 15.2525 25.0022 15.4006 24.9391 15.5578C24.7866 15.9402 24.6436 16.3751 24.5242 16.8513C23.9448 19.1663 23.9227 22.4578 25.972 25.408C25.7013 25.4943 25.4523 25.6282 25.2343 25.8008" fill="#19294F"/>
<path d="M64.5324 46.1839V53.9521H16.084V32.4661C16.084 31.0954 17.1947 29.9853 18.5649 29.9853H47.6198C48.4689 29.9853 49.259 30.4189 49.7147 31.1353L56.0484 39.5001L56.7907 40.4793L61.7036 42.6699L62.9343 43.2184C63.8962 43.6871 64.5324 44.8682 64.5324 46.1839Z" fill="#25ABE3"/>
<path d="M17.6745 39.5001V53.9521H14.4668V42.4157C14.4668 41.2277 15.074 40.125 16.0707 39.5001H17.6745Z" fill="#25ABE3"/>
<path d="M61.6904 42.6702H14.4668V42.4159C14.4668 41.228 15.0741 40.1253 16.0708 39.5004H56.0352L56.7775 40.4795L61.6904 42.6702Z" fill="#36BDE7"/>
<path d="M64.5199 47.9968H14.4688V53.952H64.5199V47.9968Z" fill="#0091DA"/>
<path d="M65.1349 50.6567H64.5332V53.952H65.1349C66.0453 53.952 66.7824 53.2142 66.7824 52.3044C66.7824 51.3939 66.0453 50.6567 65.1349 50.6567Z" fill="#0069A2"/>
<path d="M13.8761 53.952H14.4785V50.6567H13.8761C12.9663 50.6567 12.2285 51.3939 12.2285 52.3044C12.2285 53.2142 12.9663 53.952 13.8761 53.952Z" fill="#0069A2"/>
<path d="M64.5234 46.0391V49.6637H62.836C62.5619 49.6637 62.3398 49.4412 62.3398 49.1675V46.5351C62.3398 46.2616 62.5619 46.0391 62.836 46.0391H64.5234Z" fill="#6BC7DE"/>
<path d="M16.1554 42.67H14.4688V49.6434H16.1554C16.4297 49.6434 16.6522 49.4214 16.6522 49.1473V43.1662C16.6522 42.8921 16.4297 42.67 16.1554 42.67Z" fill="#6BC7DE"/>
<path d="M28.9961 25.6369C28.9961 26.9179 27.9574 27.9572 26.6758 27.9572C25.3943 27.9572 24.3555 26.9179 24.3555 25.6369C24.3555 24.3552 25.3943 23.3167 26.6758 23.3167C27.9574 23.3167 28.9961 24.3552 28.9961 25.6369Z" fill="#0091DA"/>
<path d="M27.7025 26.9262L28.7712 29.9849H24.5723L25.6409 26.9262H27.7025Z" fill="#0091DA"/>
<path d="M27.1382 26.9262V29.9849H26.2109V26.9262H27.1382Z" fill="#25ABE3"/>
<path d="M27.7119 26.9259V28.7836C27.4014 28.938 27.0517 29.0248 26.6811 29.0248C26.3105 29.0248 25.9603 28.938 25.6504 28.7836V26.9259H27.7119Z" fill="#0091DA"/>
<path d="M27.7077 26.9247C26.426 26.9247 25.3875 25.8859 25.3875 24.6049C25.3875 24.2304 25.4766 23.8769 25.6344 23.5635C24.8761 23.945 24.3555 24.7298 24.3555 25.6369C24.3555 26.9179 25.3943 27.9572 26.6757 27.9572C27.5828 27.9572 28.3671 27.4365 28.7491 26.6777C28.4358 26.8357 28.0821 26.9247 27.7077 26.9247Z" fill="#25ABE3"/>
<path d="M27.7089 25.7599C27.7089 26.3972 27.1919 26.9144 26.5544 26.9144C25.917 26.9144 25.4004 26.3972 25.4004 25.7599C25.4004 25.1226 25.917 24.606 26.5544 24.606C27.1919 24.606 27.7089 25.1226 27.7089 25.7599Z" fill="#36BDE7"/>
<path d="M26.7337 26.6535H26.3652V24.8663H26.7337V26.6535Z" fill="#25ABE3"/>
<path d="M26.3652 26.2528V26.6535H26.7337V26.2528H26.3652Z" fill="#0091DA"/>
<path d="M40.0287 26.2717C39.9634 26.337 39.8841 26.4044 39.7904 26.4737C39.5791 26.6309 39.2983 26.7961 38.9589 26.9567C38.8203 27.0219 38.6727 27.0866 38.5155 27.1497C38.133 27.3029 37.6979 27.4454 37.2209 27.5645C34.5136 28.2423 30.4702 28.16 27.1998 24.8895C23.9289 21.6186 23.8472 17.5746 24.5248 14.8673C24.6441 14.3912 24.7871 13.9565 24.9397 13.5738C25.0027 13.4167 25.0674 13.2685 25.1326 13.13C25.2928 12.7912 25.4584 12.5103 25.6156 12.299C25.6849 12.2055 25.7526 12.126 25.8179 12.0608C27.0603 10.8184 31.2495 12.9916 35.1732 16.9157C39.0981 20.8399 41.2711 25.0293 40.0287 26.2717Z" fill="#0091DA"/>
<path d="M36.7348 22.9752C36.6695 23.0404 36.5928 23.1109 36.5049 23.1858C36.3063 23.3554 36.052 23.5478 35.754 23.7494C35.6331 23.8317 35.5041 23.9156 35.3692 24.0001C35.0394 24.2068 34.6722 24.4174 34.2781 24.6194C32.042 25.7677 28.9555 26.6423 27.2023 24.8895C25.4491 23.1357 26.3243 20.0494 27.4724 17.8125C27.6744 17.4192 27.8851 17.052 28.0911 16.7229C28.1762 16.5877 28.2603 16.459 28.3426 16.3374C28.5441 16.0401 28.7365 15.7858 28.9063 15.5872C28.9811 15.4991 29.0514 15.4223 29.1161 15.3571C30.3591 14.1146 33.0722 14.8117 35.1756 16.9157C37.2796 19.0192 37.9772 21.7327 36.7348 22.9752Z" fill="#25ABE3"/>
<path d="M40.0356 26.2725C38.7926 27.5153 34.6038 25.3416 30.6795 21.4174C26.7554 17.4931 24.5815 13.304 25.8245 12.061C27.0675 10.818 31.2568 12.9918 35.1811 16.9159C39.1054 20.8401 41.2785 25.0295 40.0356 26.2725Z" fill="#0069A2"/>
<path d="M35.1757 16.9157C31.2514 12.9916 27.0622 10.8178 25.8192 12.0608C25.6858 12.1947 25.592 12.3621 25.5352 12.5601C27.1772 12.0896 30.8897 14.1976 34.3917 17.6996C37.8937 21.2016 40.0018 24.914 39.5312 26.556C39.7287 26.4992 39.8967 26.4057 40.0302 26.2723C41.273 25.0293 39.1 20.8399 35.1757 16.9157Z" fill="#0091DA"/>
<path d="M35.6641 26.3644C33.9205 25.4596 31.9261 23.9267 30.0463 22.0473C28.1675 20.1688 26.634 18.1732 25.7299 16.4302C25.0936 15.2042 24.8245 14.2074 24.9442 13.5741C24.7916 13.9567 24.6486 14.3914 24.5293 14.8675C24.6679 15.4046 24.9102 16.0113 25.2554 16.6758C26.185 18.4666 27.7516 20.5088 29.6688 22.4254C31.5856 24.3422 33.6278 25.9097 35.4185 26.839C36.0824 27.1833 36.6888 27.4258 37.2256 27.5648C37.7026 27.4456 38.1378 27.3031 38.5202 27.1499C37.8863 27.2691 36.8895 27.0005 35.6641 26.3644Z" fill="#0069A2"/>
<path d="M31.6572 21.0448C31.5022 21.0448 31.3469 20.986 31.2287 20.8672C30.9915 20.6306 30.9915 20.2469 31.2287 20.0102L34.7512 16.4872C34.9885 16.2506 35.3722 16.2506 35.6089 16.4872C35.8456 16.7239 35.8456 17.1078 35.6089 17.3444L32.0857 20.8672C31.9678 20.986 31.8122 21.0448 31.6572 21.0448Z" fill="#25ABE3"/>
<path d="M35.6047 16.4872C35.5456 16.4282 35.4775 16.3839 35.4049 16.3545C35.4946 16.5735 35.4502 16.8347 35.2726 17.0123L31.7497 20.5352C31.6311 20.6534 31.476 20.7128 31.3211 20.7128C31.2428 20.7128 31.1649 20.6968 31.0918 20.668C31.1212 20.7406 31.1656 20.8082 31.2246 20.8672C31.3428 20.986 31.4981 21.0448 31.6531 21.0448C31.8081 21.0448 31.9636 20.986 32.0816 20.8672L35.6047 17.3444C35.8413 17.1078 35.8413 16.7239 35.6047 16.4872Z" fill="#0091DA"/>
<path d="M36.3928 18.1374C35.718 18.8121 34.624 18.8121 33.9492 18.1374C33.2748 17.463 33.2748 16.3688 33.9492 15.6944C34.624 15.0196 35.718 15.0196 36.3928 15.6944C37.0676 16.3688 37.0676 17.463 36.3928 18.1374Z" fill="#6BC7DE"/>
<path d="M36.3924 16.925C35.7176 17.5998 34.6237 17.5998 33.9489 16.925C33.7683 16.7444 33.6368 16.5339 33.5533 16.3097C33.3229 16.9244 33.4546 17.6434 33.9489 18.1374C34.6237 18.8121 35.7176 18.8121 36.3924 18.1374C36.8867 17.6434 37.0184 16.9244 36.7886 16.3097C36.7045 16.5339 36.5728 16.7444 36.3924 16.925Z" fill="#67C3C1"/>
<path d="M43.5758 50.6563H42.6797V29.9846H43.5758V50.6563Z" fill="#0091DA"/>
<path d="M40.0788 45.802H38.1853C37.8153 45.802 37.5156 45.5023 37.5156 45.1322C37.5156 44.7622 37.8153 44.4625 38.1853 44.4625H40.0788C40.4489 44.4625 40.7484 44.7622 40.7484 45.1322C40.7484 45.5023 40.4489 45.802 40.0788 45.802Z" fill="#0069A2"/>
<path d="M48.1204 45.802H46.2271C45.8571 45.802 45.5566 45.5023 45.5566 45.1322C45.5566 44.7622 45.8571 44.4625 46.2271 44.4625H48.1204C48.49 44.4625 48.7902 44.7622 48.7902 45.1322C48.7902 45.5023 48.49 45.802 48.1204 45.802Z" fill="#0069A2"/>
<path d="M56.7873 40.4794H46.0534C45.7793 40.4794 45.5566 40.2574 45.5566 39.9833V32.5526C45.5566 32.2791 45.7793 32.0565 46.0534 32.0565H50.4079L50.5241 32.2104L51.3222 33.2632L52.0753 34.2576L54.3116 37.2101L56.7873 40.4794Z" fill="#0069A2"/>
<path d="M18.9187 40.48H42.6711V32.0566H18.9187C18.6445 32.0566 18.4219 32.2787 18.4219 32.5528V39.9834C18.4219 40.2575 18.6445 40.48 18.9187 40.48Z" fill="#0069A2"/>
<path d="M22.8413 40.48H21.502L25.8394 32.0566H27.179L22.8413 40.48Z" fill="#0091DA"/>
<path d="M51.3217 33.2632L47.6056 40.4794H46.2656L50.5235 32.2104L51.3217 33.2632Z" fill="#0091DA"/>
<path d="M54.3125 37.2101L52.6291 40.4794H48.873L52.0762 34.2576L54.3125 37.2101Z" fill="#0091DA"/>
<path d="M30.1221 40.48H24.3398L28.6772 32.0566H34.4595L30.1221 40.48Z" fill="#0091DA"/>
<path d="M30.3951 53.952C30.3951 56.7064 28.1622 58.9397 25.4078 58.9397C22.6527 58.9397 20.4199 56.7064 20.4199 53.952C20.4199 51.1975 22.6527 48.9641 25.4078 48.9641C28.1622 48.9641 30.3951 51.1975 30.3951 53.952Z" fill="#0069A2"/>
<path d="M28.7337 53.9519C28.7337 55.7879 27.245 57.2766 25.4089 57.2766C23.5728 57.2766 22.084 55.7879 22.084 53.9519C22.084 52.1156 23.5728 50.6269 25.4089 50.6269C27.245 50.6269 28.7337 52.1156 28.7337 53.9519Z" fill="#0091DA"/>
<path d="M28.095 53.9521C28.095 55.4362 26.8923 56.6395 25.4082 56.6395C23.9239 56.6395 22.7207 55.4362 22.7207 53.9521C22.7207 52.4678 23.9239 51.2646 25.4082 51.2646C26.8923 51.2646 28.095 52.4678 28.095 53.9521Z" fill="#25ABE3"/>
<path d="M27.3082 53.9517C27.3082 55.0011 26.4575 55.8519 25.4081 55.8519C24.3588 55.8519 23.5078 55.0011 23.5078 53.9517C23.5078 52.9021 24.3588 52.0514 25.4081 52.0514C26.4575 52.0514 27.3082 52.9021 27.3082 53.9517Z" fill="#0069A2"/>
<path d="M26.3043 53.9518C26.3043 54.4472 25.9024 54.849 25.4071 54.849C24.911 54.849 24.5098 54.4472 24.5098 53.9518C24.5098 53.4562 24.911 53.0543 25.4071 53.0543C25.9024 53.0543 26.3043 53.4562 26.3043 53.9518Z" fill="#0091DA"/>
<path d="M25.6496 56.8085H25.1562V51.0954H25.6496V56.8085Z" fill="#0091DA"/>
<path d="M22.5508 54.1998V53.7038H28.2642V54.1998H22.5508Z" fill="#0091DA"/>
<path d="M23.5675 56.1472L23.2168 55.7964L27.2565 51.7564L27.6077 52.1072L23.5675 56.1472Z" fill="#0091DA"/>
<path d="M23.2168 52.1072L23.5675 51.7564L27.6077 55.7964L27.2565 56.1472L23.2168 52.1072Z" fill="#0091DA"/>
<path d="M58.5793 53.952C58.5793 56.7064 56.3459 58.9397 53.5914 58.9397C50.837 58.9397 48.6035 56.7064 48.6035 53.952C48.6035 51.1975 50.837 48.9641 53.5914 48.9641C56.3459 48.9641 58.5793 51.1975 58.5793 53.952Z" fill="#0069A2"/>
<path d="M56.9135 53.9519C56.9135 55.7879 55.4246 57.2766 53.5885 57.2766C51.7523 57.2766 50.2637 55.7879 50.2637 53.9519C50.2637 52.1156 51.7523 50.6269 53.5885 50.6269C55.4246 50.6269 56.9135 52.1156 56.9135 53.9519Z" fill="#0091DA"/>
<path d="M56.2773 53.9521C56.2773 55.4362 55.074 56.6395 53.5897 56.6395C52.1056 56.6395 50.9023 55.4362 50.9023 53.9521C50.9023 52.4678 52.1056 51.2646 53.5897 51.2646C55.074 51.2646 56.2773 52.4678 56.2773 53.9521Z" fill="#25ABE3"/>
<path d="M55.492 53.9517C55.492 55.0011 54.6412 55.8519 53.5916 55.8519C52.5422 55.8519 51.6914 55.0011 51.6914 53.9517C51.6914 52.9021 52.5422 52.0514 53.5916 52.0514C54.6412 52.0514 55.492 52.9021 55.492 53.9517Z" fill="#0069A2"/>
<path d="M54.49 53.9518C54.49 54.4472 54.0881 54.849 53.5925 54.849C53.0971 54.849 52.6953 54.4472 52.6953 53.9518C52.6953 53.4562 53.0971 53.0543 53.5925 53.0543C54.0881 53.0543 54.49 53.4562 54.49 53.9518Z" fill="#0091DA"/>
<path d="M53.8408 56.8085H53.3477V51.0954H53.8408V56.8085Z" fill="#0091DA"/>
<path d="M50.7383 54.1998V53.7038H56.4516V54.1998H50.7383Z" fill="#0091DA"/>
<path d="M51.7511 56.1472L51.4004 55.7964L55.4403 51.7564L55.7911 52.1072L51.7511 56.1472Z" fill="#0091DA"/>
<path d="M51.4004 52.1072L51.7511 51.7564L55.7911 55.7964L55.4403 56.1472L51.4004 52.1072Z" fill="#0091DA"/>
<path d="M64.5235 47.9962V49.6637H62.8363C62.5882 49.6637 62.3815 49.4809 62.3458 49.242C62.3418 49.2182 62.3398 49.1932 62.3398 49.1675V47.9962H64.5234H64.5235Z" fill="#67C3C1"/>
<path d="M63.7291 47.8516C63.7291 47.9005 63.7271 47.9487 63.7231 47.9964C63.6504 48.695 63.0626 49.2388 62.3458 49.2422C62.3418 49.2184 62.3398 49.1933 62.3398 49.1677V46.461C63.1077 46.461 63.7297 47.0838 63.7297 47.8516" fill="#72C8D7"/>
<path d="M63.7232 47.9964H62.3398V49.1677C62.3398 49.1933 62.3416 49.2184 62.3458 49.2422C63.0627 49.2382 63.6506 48.695 63.7233 47.9964" fill="#6BC7DE"/>
<path d="M14.4668 44.5954H16.6509V46.157H14.4668V44.5954Z" fill="#67C3C1"/>
<path d="M16.6619 43.2049V45.9858C15.8935 45.9858 15.2715 45.3634 15.2715 44.5953C15.2715 43.8268 15.8935 43.2049 16.6619 43.2049Z" fill="#72C8D7"/>
<path d="M15.2715 44.5953C15.2715 45.3634 15.8935 45.9858 16.6619 45.9858V44.5953H15.2715Z" fill="#6BC7DE"/>
<path d="M16.6522 47.8015H14.4688V49.6434H16.1554C16.4297 49.6434 16.6522 49.4214 16.6522 49.1473V47.8015Z" fill="#67C3C1"/>
<path d="M16.6619 46.4107V49.1913C15.8935 49.1913 15.2715 48.5693 15.2715 47.8013C15.2715 47.0328 15.8935 46.4107 16.6619 46.4107Z" fill="#72C8D7"/>
<path d="M16.6619 49.147V47.8013H15.2715C15.2715 48.5676 15.8912 49.1891 16.6574 49.1913C16.6586 49.1773 16.6613 49.1625 16.6613 49.147" fill="#6BC7DE"/>
</svg>
