<svg width="79" height="79" viewBox="0 0 79 79" fill="none" xmlns="http://www.w3.org/2000/svg">
<path d="M79 39.4999C79 61.3154 61.315 79 39.5002 79C17.6851 79 0 61.3154 0 39.4999C0 17.6846 17.6851 0 39.5002 0C61.315 0 79 17.6846 79 39.4999Z" fill="#19294F"/>
<path d="M73.6709 39.4998C73.6709 58.3735 58.3709 73.6736 39.4979 73.6736C20.6245 73.6736 5.32422 58.3735 5.32422 39.4998C5.32422 20.6262 20.6245 5.32654 39.4979 5.32654C58.3709 5.32654 73.6709 20.6262 73.6709 39.4998Z" fill="#19294F"/>
<path d="M64.5204 41.3804C64.5204 27.5622 53.3184 16.3606 39.5007 16.3606C25.6826 16.3606 14.4805 27.5622 14.4805 41.3804C14.4805 41.7482 14.4905 42.1138 14.5059 42.4776C14.4899 42.8414 14.4805 43.2068 14.4805 43.5746C14.4805 57.3928 25.6826 68.5946 39.5007 68.5946C53.3184 68.5946 64.5204 57.3928 64.5204 43.5746C64.5204 43.2068 64.5104 42.8414 64.495 42.4776C64.511 42.1138 64.5204 41.7482 64.5204 41.3804Z" fill="#19294F"/>
<path d="M64.5204 41.5897C64.5204 55.4081 53.3184 66.6097 39.5007 66.6097C25.6826 66.6097 14.4805 55.4081 14.4805 41.5897C14.4805 27.7715 25.6826 16.5697 39.5007 16.5697C53.3184 16.5697 64.5204 27.7715 64.5204 41.5897Z" fill="#AAD1C6"/>
<path d="M64.5204 39.3953C64.5204 53.2135 53.3184 64.4153 39.5007 64.4153C25.6826 64.4153 14.4805 53.2135 14.4805 39.3953C14.4805 25.5775 25.6826 14.3753 39.5007 14.3753C53.3184 14.3753 64.5204 25.5775 64.5204 39.3953Z" fill="#6BC7DE"/>
<path d="M59.6914 39.5001C59.6914 50.6518 50.6512 59.6917 39.4999 59.6917C35.0837 59.6917 30.9995 58.2739 27.6757 55.8686C27.5055 55.747 27.3376 55.6215 27.173 55.4934C22.39 51.8008 19.3086 46.0107 19.3086 39.5001C19.3086 28.3489 28.3483 19.3086 39.4999 19.3086C50.6512 19.3086 59.6914 28.3489 59.6914 39.5001Z" fill="#19294F"/>
<path d="M51.4381 51.8794L49.7298 46.1979C50.3757 45.1445 50.8637 43.9844 51.1606 42.751L56.3817 39.9438L51.1606 37.1365C50.8637 35.9031 50.3757 34.743 49.7298 33.6896L51.4381 28.0081L45.7561 29.7164C44.7033 29.0701 43.5432 28.5826 42.3094 28.2851L39.5026 23.0645L36.6954 28.2851C35.4616 28.5826 34.3015 29.0701 33.2485 29.7164L27.5671 28.0081L29.275 33.6896C28.6291 34.743 28.1409 35.9031 27.8442 37.1365L22.623 39.9438L27.8442 42.751C28.1409 43.9844 28.6291 45.1445 29.275 46.1979L27.5671 51.8794L33.2485 50.1708C34.3015 50.8174 35.4616 51.3055 36.6954 51.6023L39.5026 56.8234L42.3094 51.6023C43.5432 51.3055 44.7033 50.8174 45.7561 50.1708L51.4381 51.8794ZM29.7057 39.9438C29.7057 34.5422 34.1005 30.1474 39.5026 30.1474C44.9044 30.1474 49.2989 34.5422 49.2989 39.9438C49.2989 45.3453 44.9044 49.7401 39.5026 49.7401C34.1005 49.7401 29.7057 45.3453 29.7057 39.9438Z" fill="#AAD1C6"/>
<path d="M39.495 51.3862C32.8829 51.3862 27.5039 46.0073 27.5039 39.3951C27.5039 32.7834 32.8829 27.4038 39.495 27.4038C46.1067 27.4038 51.4862 32.7834 51.4862 39.3951C51.4862 46.0073 46.1067 51.3862 39.495 51.3862ZM39.495 29.5987C34.0928 29.5987 29.6979 33.9934 29.6979 39.3951C29.6979 44.7973 34.0928 49.1921 39.495 49.1921C44.8968 49.1921 49.2913 44.7973 49.2913 39.3951C49.2913 33.9934 44.8968 29.5987 39.495 29.5987Z" fill="#72C8D7"/>
<path d="M39.4999 21.3982C50.2827 21.3982 59.0909 29.8511 59.6613 40.4926C59.6813 40.1294 59.6914 39.7632 59.6914 39.395C59.6914 28.2436 50.6512 19.2033 39.4999 19.2033C28.3483 19.2033 19.3086 28.2436 19.3086 39.395C19.3086 39.7632 19.3186 40.1294 19.338 40.4926C19.9085 29.8511 28.7167 21.3982 39.4999 21.3982Z" fill="#AAD1C6"/>
<path d="M42.8401 28.7413H36.1465L39.4937 22.516L42.8401 28.7413Z" fill="#72C8D7"/>
<path d="M36.1465 50.0497H42.8401L39.4937 56.2748L36.1465 50.0497Z" fill="#72C8D7"/>
<path d="M50.1504 42.742V36.048L56.3757 39.395L50.1504 42.742Z" fill="#72C8D7"/>
<path d="M28.8481 36.048V42.742L22.623 39.395L28.8481 36.048Z" fill="#72C8D7"/>
<path d="M29.5998 44.5619L34.3333 49.2955L27.5645 51.3304L29.5998 44.5619Z" fill="#72C8D7"/>
<path d="M49.4016 34.2285L44.668 29.4948L51.437 27.4595L49.4016 34.2285Z" fill="#72C8D7"/>
<path d="M44.668 49.2955L49.4016 44.5619L51.437 51.3304L44.668 49.2955Z" fill="#72C8D7"/>
<path d="M34.3333 29.4948L29.5998 34.2285L27.5645 27.4595L34.3333 29.4948Z" fill="#72C8D7"/>
<path d="M51.8292 29.3158V31.404L42.7134 46.942L27.6785 55.7632C27.5084 55.6419 27.3404 55.5163 27.1758 55.388V53.9702L29.3596 50.2469L36.2914 38.4328L51.8292 29.3158Z" fill="#AAD1C6"/>
<path d="M46.4277 32.4809C47.5294 33.5853 48.3696 34.9508 48.847 36.475L50.2447 34.0916C50.0841 33.7665 49.9105 33.4491 49.7221 33.1416L50.6687 29.9932L46.4277 32.4809Z" fill="#67C3C1"/>
<path d="M32.0178 45.7117L29.3564 50.247L28.9688 50.9084L33.2453 49.6227C34.1041 50.1495 35.0356 50.5694 36.0185 50.8679L38.9077 49.1733C36.1503 49.0081 33.6967 47.6975 32.0178 45.7117Z" fill="#67C3C1"/>
<path d="M36.2852 38.3259L42.7073 44.7474L51.8232 29.2094V27.1218L36.2852 36.2378V38.3259Z" fill="#3A6CB4"/>
<path d="M51.8232 27.1215L36.2852 36.2375L42.7073 42.6596L51.8232 27.1215Z" fill="#6BC6D8"/>
<path d="M42.7135 42.6599L36.2915 36.2377L27.1758 51.7757V53.8639L42.7135 44.7473V42.6599Z" fill="#DDDEDE"/>
<path d="M27.1758 51.7756L42.7135 42.6598L36.2915 36.2376L27.1758 51.7756Z" fill="#F3FAFE"/>
<path d="M41.1929 41.1463C40.2553 42.084 38.7347 42.084 37.797 41.1463C36.8593 40.2088 36.8593 38.6883 37.797 37.7506C38.7347 36.813 40.2553 36.813 41.1929 37.7506C42.1304 38.6883 42.1304 40.2088 41.1929 41.1463Z" fill="#EFEFF0"/>
<path d="M37.8039 38.0639C38.7415 37.1262 40.2621 37.1262 41.1998 38.0639C41.6283 38.4929 41.8587 39.044 41.8955 39.6048C41.9386 38.9394 41.7084 38.2595 41.1998 37.7505C40.2621 36.8128 38.7415 36.8128 37.8039 37.7505C37.2953 38.2595 37.0649 38.9394 37.1088 39.6048C37.145 39.044 37.3754 38.4929 37.8039 38.0639Z" fill="#DDDEDE"/>
<path d="M38.0957 39.4438C38.0941 39.8036 38.2308 40.1646 38.5055 40.4393C39.0527 40.9863 39.9398 40.9863 40.487 40.4393C40.7617 40.1646 40.8984 39.8036 40.8966 39.4438V38.9318C40.8984 38.5713 40.7617 38.2109 40.487 37.9362C39.9398 37.389 39.0527 37.389 38.5055 37.9362C38.2308 38.2109 38.0941 38.5713 38.0957 38.9318V39.4438Z" fill="#DDDEDE"/>
<path d="M40.4876 39.9173C39.9403 40.4643 39.0533 40.4643 38.5061 39.9173C37.9589 39.3701 37.9589 38.4835 38.5061 37.9365C39.0533 37.3893 39.9403 37.3893 40.4876 37.9365C41.0346 38.4835 41.0346 39.3701 40.4876 39.9173Z" fill="#F3FAFE"/>
</svg>
