<svg width="7" height="14" viewBox="0 0 7 14" fill="none" xmlns="http://www.w3.org/2000/svg">
<path d="M0.750021 13.1875C0.638766 13.1875 0.530008 13.1545 0.437502 13.0927C0.344995 13.0309 0.272895 12.9431 0.230319 12.8403C0.187743 12.7375 0.176604 12.6244 0.19831 12.5153C0.220016 12.4061 0.273592 12.3059 0.352263 12.2272L5.57951 7L0.352263 1.77276C0.246771 1.66727 0.187506 1.52419 0.187506 1.375C0.187506 1.22581 0.246771 1.08273 0.352263 0.977241C0.457755 0.871749 0.600833 0.812485 0.750021 0.812485C0.899209 0.812485 1.04229 0.871749 1.14778 0.977241L6.77278 6.60224C6.82502 6.65448 6.86645 6.71649 6.89472 6.78474C6.92299 6.85298 6.93755 6.92613 6.93755 7C6.93755 7.07387 6.92299 7.14702 6.89472 7.21527C6.86645 7.28352 6.82502 7.34553 6.77278 7.39776L1.14778 13.0228C1.0956 13.0751 1.0336 13.1166 0.96534 13.1448C0.89708 13.1731 0.823905 13.1876 0.750021 13.1875V13.1875Z" fill="#D0D5DD"/>
</svg>
