<svg width="38" height="38" viewBox="0 0 38 38" fill="none" xmlns="http://www.w3.org/2000/svg">
<path d="M37.7473 1.72063C37.7248 1.33864 37.5629 0.978182 37.2924 0.707606C37.0218 0.437031 36.6613 0.27515 36.2793 0.252661C21.3745 -0.625073 9.44027 3.86907 4.35121 12.2722C2.58673 15.153 1.71756 18.493 1.85395 21.8685C1.96508 24.9851 2.87406 28.131 4.55395 31.2363L0.707657 35.0825C0.414624 35.3756 0.25 35.773 0.25 36.1874C0.25 36.6018 0.414624 36.9993 0.707657 37.2923C1.00069 37.5853 1.39813 37.75 1.81254 37.75C2.22695 37.75 2.62439 37.5853 2.91742 37.2923L6.76371 33.446C9.86899 35.1257 13.0149 36.0351 16.1315 36.146C16.3497 36.1538 16.5664 36.1577 16.7829 36.1577C19.9395 36.1667 23.0364 35.2981 25.728 33.649C34.1307 28.5597 38.6241 16.6238 37.7475 1.72063H37.7473ZM24.109 30.9759C19.652 33.6755 14.3772 33.7115 9.08363 31.1263L26.3549 13.8548C26.648 13.5618 26.8126 13.1643 26.8126 12.7499C26.8126 12.3355 26.648 11.9381 26.3549 11.645C26.0619 11.352 25.6645 11.1874 25.25 11.1874C24.8356 11.1874 24.4382 11.352 24.1452 11.645L6.87367 28.9165C4.28871 23.623 4.32445 18.3482 7.02406 13.8911C11.3489 6.75032 21.6329 2.83821 34.694 3.30579C35.1614 16.3673 31.2493 26.6515 24.109 30.9759V30.9759Z" fill="#142850"/>
</svg>
