<svg width="91" height="40" viewBox="0 0 91 40" fill="none" xmlns="http://www.w3.org/2000/svg">
<path fill-rule="evenodd" clip-rule="evenodd" d="M5.73861 28.286V34.118V34.1181C5.73861 37.3368 3.16967 39.9464 0 39.9464V34.1181V34.118V27.8957V5.92965C3.16967 5.92965 5.73861 8.53955 5.73861 11.7584C6.29494 10.4971 8.99317 8.27892 12.976 8.27892C18.158 8.27892 23.6821 12.1934 23.6821 20.0223C23.6821 27.8509 18.158 31.7654 12.976 31.7654C8.99317 31.7654 6.29494 29.5471 5.73861 28.286ZM41.0837 28.3556C41.0827 31.5675 38.5108 34.1716 35.3452 34.1716H29.6066V34.1718C29.6066 37.3905 32.1754 40 35.3452 40V34.1716V28.3434C35.3452 21.8175 35.3452 15.2378 35.3467 8.71366H41.0853C41.0853 15.2434 41.0863 21.8263 41.0837 28.3556ZM91 8.73145C91 12.6464 87.5461 13.9537 84.1693 13.8435C79.8656 13.7033 76.7821 16.7333 76.7821 21.4569V28.286V28.2862C76.7821 31.5049 74.2124 34.114 71.0435 34.114V28.286V8.71392H76.7821V14.5849C77.449 11.5763 79.6611 8.73031 83.0286 8.73031L91 8.73134V8.73145ZM61.85 28.286V28.2862C61.85 31.5049 64.419 34.114 67.5888 34.114V28.286V8.71392H61.85V11.7584H61.7217C61.1651 10.4967 58.5955 8.27892 54.6127 8.27892C49.4306 8.27892 43.9065 12.1935 43.9065 20.022C43.9065 27.8509 49.4306 31.7654 54.6127 31.7654C58.5955 31.7654 61.2933 29.5471 61.85 28.286ZM49.5596 20.022C49.5596 15.803 52.5574 13.4978 55.7689 13.4978C58.9806 13.4978 61.9786 15.7595 61.9786 20.022C61.9786 24.284 59.0121 26.6654 55.8004 26.6654C52.5889 26.6654 49.5596 24.2407 49.5596 20.022ZM32.2444 25.9307C32.2429 29.1422 29.671 31.7466 26.5054 31.7473V25.9182V8.71392H32.2444C32.2444 15.243 32.2465 19.4021 32.2444 25.9307ZM11.8199 13.3635C15.3853 13.3635 18.2757 16.344 18.2757 20.021C18.2757 23.6978 15.3853 26.6784 11.8199 26.6784C8.2544 26.6784 5.36396 23.6978 5.36396 20.021C5.36396 16.344 8.2544 13.3635 11.8199 13.3635Z" fill="white"/>
<path fill-rule="evenodd" clip-rule="evenodd" d="M41.0852 -0.000110626C41.0852 3.2187 38.5161 5.82812 35.3463 5.82812V-0.000110626H41.0852ZM32.2446 -0.000110626C32.2446 3.2187 29.6756 5.82812 26.5057 5.82812V-0.000110626H32.2446Z" fill="#00B8B8"/>
</svg>
