<svg width="50" height="36" viewBox="0 0 50 36" fill="none" xmlns="http://www.w3.org/2000/svg">
<path d="M48.5953 20.5925C48.2639 20.8413 47.8473 20.9484 47.437 20.8901C47.0267 20.8318 46.6564 20.6129 46.4076 20.2815C45.4655 19.0156 44.2395 17.9886 42.8282 17.2829C41.4168 16.5773 39.8595 16.2128 38.2816 16.2188C37.8672 16.2188 37.4697 16.0542 37.1767 15.7612C36.8837 15.4682 36.7191 15.0707 36.7191 14.6563C36.7191 14.2419 36.8837 13.8445 37.1767 13.5515C37.4697 13.2585 37.8672 13.0938 38.2816 13.0938C39.1709 13.0936 40.0418 12.8404 40.7926 12.3638C41.5434 11.8872 42.1431 11.2068 42.5218 10.4021C42.9004 9.59743 43.0423 8.70164 42.9309 7.81933C42.8196 6.93702 42.4595 6.10459 41.8928 5.41923C41.3261 4.73388 40.5761 4.22388 39.7304 3.94877C38.8847 3.67367 37.9782 3.64481 37.1167 3.86556C36.2553 4.08632 35.4744 4.54759 34.8652 5.19551C34.256 5.84343 33.8438 6.65126 33.6765 7.5247C33.5992 7.93183 33.3633 8.29155 33.0207 8.52475C32.6781 8.75794 32.257 8.8455 31.8498 8.76816C31.4427 8.69082 31.083 8.45493 30.8498 8.11236C30.6166 7.7698 30.529 7.34862 30.6064 6.9415C30.8376 5.72558 31.3544 4.582 32.1141 3.60495C32.8739 2.6279 33.855 1.84535 34.9765 1.32177C36.098 0.798197 37.3279 0.548571 38.5647 0.593463C39.8016 0.638356 41.0102 0.97648 42.0907 1.57998C43.1713 2.18348 44.0931 3.03509 44.7801 4.06465C45.467 5.09421 45.8995 6.27225 46.042 7.50173C46.1844 8.73121 46.0327 9.97693 45.5993 11.1363C45.166 12.2956 44.4633 13.3354 43.5494 14.17C45.6743 15.0891 47.5212 16.5491 48.906 18.4046C49.0293 18.5686 49.119 18.7554 49.1701 18.9541C49.2213 19.1528 49.2327 19.3597 49.2039 19.5629C49.175 19.766 49.1065 19.9615 49.0021 20.1382C48.8977 20.3148 48.7595 20.4692 48.5954 20.5925H48.5953ZM37.648 33.5028C37.7399 33.6875 37.7944 33.8886 37.8082 34.0944C37.822 34.3002 37.795 34.5067 37.7286 34.7021C37.6622 34.8974 37.5578 35.0776 37.4214 35.2324C37.285 35.3871 37.1193 35.5133 36.9338 35.6037C36.7484 35.6941 36.5469 35.7469 36.341 35.759C36.135 35.7711 35.9287 35.7423 35.734 35.6743C35.5392 35.6062 35.3599 35.5003 35.2063 35.3626C35.0527 35.2249 34.9278 35.0582 34.839 34.872C33.9409 33.027 32.5422 31.4718 30.8025 30.3837C29.0628 29.2957 27.0522 28.7188 25.0003 28.7188C22.9484 28.7188 20.9378 29.2957 19.1981 30.3837C17.4584 31.4718 16.0597 33.027 15.1617 34.872C14.9801 35.2445 14.658 35.5296 14.2662 35.6647C13.8744 35.7997 13.445 35.7736 13.0725 35.592C12.7 35.4104 12.4148 35.0883 12.2798 34.6965C12.1448 34.3047 12.1709 33.8754 12.3525 33.5028C13.7982 30.5083 16.2627 28.1263 19.3046 26.7833C17.7478 25.5925 16.6033 23.9436 16.0322 22.0686C15.461 20.1936 15.4919 18.1867 16.1205 16.3302C16.7492 14.4736 17.9439 12.8608 19.5367 11.7185C21.1295 10.5762 23.0403 9.96185 25.0003 9.96185C26.9604 9.96185 28.8712 10.5762 30.464 11.7185C32.0568 12.8608 33.2515 14.4736 33.8801 16.3302C34.5087 18.1867 34.5396 20.1936 33.9685 22.0686C33.3974 23.9436 32.2529 25.5925 30.696 26.7833C33.738 28.1263 36.2025 30.5083 37.6482 33.5028H37.648ZM25.0003 25.5938C26.2365 25.5938 27.4448 25.2273 28.4726 24.5405C29.5005 23.8538 30.3015 22.8777 30.7746 21.7356C31.2476 20.5936 31.3714 19.3369 31.1302 18.1245C30.8891 16.9122 30.2938 15.7985 29.4197 14.9244C28.5457 14.0504 27.432 13.4551 26.2196 13.2139C25.0073 12.9728 23.7506 13.0966 22.6086 13.5696C21.4665 14.0426 20.4904 14.8437 19.8036 15.8715C19.1169 16.8993 18.7503 18.1077 18.7503 19.3438C18.7522 21.0009 19.4113 22.5895 20.583 23.7612C21.7547 24.9329 23.3433 25.592 25.0003 25.5938ZM13.2816 14.6563C13.2816 14.2419 13.117 13.8445 12.8239 13.5515C12.5309 13.2585 12.1335 13.0938 11.7191 13.0938C10.8298 13.0936 9.95889 12.8404 9.2081 12.3638C8.45731 11.8872 7.85758 11.2068 7.47895 10.4021C7.10032 9.59746 6.95839 8.70168 7.06975 7.81938C7.18111 6.93708 7.54115 6.10465 8.10785 5.4193C8.67454 4.73394 9.42451 4.22393 10.2702 3.94881C11.1159 3.67368 12.0223 3.6448 12.8838 3.86553C13.7453 4.08626 14.5262 4.54749 15.1354 5.19538C15.7446 5.84327 16.1569 6.65109 16.3242 7.52451C16.4056 7.92764 16.6426 8.28243 16.9839 8.51191C17.3252 8.74138 17.7432 8.82705 18.1473 8.75031C18.5513 8.67358 18.9088 8.44064 19.1422 8.10202C19.3756 7.7634 19.4661 7.34641 19.3941 6.9415C19.1629 5.72553 18.6462 4.58187 17.8864 3.60476C17.1266 2.62764 16.1456 1.84504 15.024 1.32142C13.9025 0.797793 12.6726 0.548142 11.4357 0.593031C10.1987 0.637919 8.99018 0.976062 7.90955 1.5796C6.82892 2.18314 5.90716 3.0348 5.2202 4.06441C4.53325 5.09403 4.10076 6.27214 3.95837 7.50166C3.81598 8.73119 3.96777 9.97696 4.40123 11.1363C4.83469 12.2957 5.53741 13.3355 6.4515 14.17C4.32633 15.0891 2.47925 16.5493 1.09447 18.405C0.971231 18.569 0.881509 18.7558 0.830432 18.9545C0.779355 19.1532 0.767922 19.3601 0.796786 19.5633C0.85508 19.9735 1.07397 20.3439 1.40531 20.5928C1.73665 20.8417 2.1533 20.9488 2.56359 20.8905C2.97388 20.8322 3.34421 20.6133 3.59311 20.2819C4.53504 19.0159 5.76103 17.9887 7.17241 17.283C8.58378 16.5773 10.1411 16.2128 11.7191 16.2188C12.1335 16.2188 12.5309 16.0542 12.8239 15.7612C13.117 15.4682 13.2816 15.0707 13.2816 14.6563Z" fill="#142850"/>
</svg>
