<svg width="14" height="22" viewBox="0 0 14 22" fill="none" xmlns="http://www.w3.org/2000/svg">
<path d="M11.5 0.5H2.5C1.90347 0.50067 1.33156 0.737938 0.90975 1.15975C0.487938 1.58156 0.25067 2.15347 0.25 2.75V19.25C0.25067 19.8465 0.487938 20.4184 0.90975 20.8403C1.33156 21.2621 1.90347 21.4993 2.5 21.5H11.5C12.0965 21.4993 12.6684 21.2621 13.0903 20.8403C13.5121 20.4184 13.7493 19.8465 13.75 19.25V2.75C13.7493 2.15347 13.5121 1.58156 13.0903 1.15975C12.6684 0.737938 12.0965 0.50067 11.5 0.5ZM12.25 19.25C12.2498 19.4488 12.1707 19.6395 12.0301 19.7801C11.8895 19.9207 11.6988 19.9998 11.5 20H2.5C2.30116 19.9998 2.11054 19.9207 1.96994 19.7801C1.82935 19.6395 1.75025 19.4488 1.75 19.25V2.75C1.75025 2.55116 1.82935 2.36054 1.96994 2.21994C2.11054 2.07935 2.30116 2.00025 2.5 2H11.5C11.6988 2.00025 11.8895 2.07935 12.0301 2.21994C12.1707 2.36054 12.2498 2.55116 12.25 2.75V19.25ZM8.125 4.625C8.125 4.8475 8.05902 5.06501 7.9354 5.25002C7.81179 5.43502 7.63609 5.57922 7.43052 5.66436C7.22495 5.74951 6.99875 5.77179 6.78052 5.72838C6.56229 5.68498 6.36184 5.57783 6.2045 5.4205C6.04717 5.26316 5.94002 5.06271 5.89662 4.84448C5.85321 4.62625 5.87549 4.40005 5.96064 4.19448C6.04578 3.98891 6.18998 3.81321 6.37498 3.6896C6.55999 3.56598 6.7775 3.5 7 3.5C7.29827 3.50032 7.58423 3.61895 7.79514 3.82986C8.00605 4.04077 8.12468 4.32673 8.125 4.625Z" fill="#FCFCFD"/>
</svg>
