<svg width="32" height="37" viewBox="0 0 32 37" fill="none" xmlns="http://www.w3.org/2000/svg">
<path d="M6.77931 1.576C6.13496 1.19116 5.40703 0.99221 4.66788 0.998913C3.92873 1.00562 3.20411 1.21774 2.56603 1.61421C1.92795 2.01067 1.39864 2.57767 1.03071 3.25884C0.662776 3.94001 0.469038 4.71163 0.46875 5.49701V32.4971C0.468545 33.2827 0.661924 34.0547 1.02965 34.7363C1.39738 35.4179 1.92665 35.9853 2.56481 36.3822C3.20297 36.779 3.92779 36.9914 4.66718 36.9982C5.40656 37.005 6.13475 36.8061 6.77931 36.4211L29.3675 22.9211C30.0226 22.5297 30.568 21.9601 30.9475 21.2707C31.327 20.5814 31.527 19.7972 31.527 18.9986C31.527 18.1999 31.327 17.4157 30.9475 16.7264C30.568 16.0371 30.0226 15.4674 29.3675 15.076L6.77931 1.576Z" fill="#142850"/>
</svg>
