<svg width="20" height="20" viewBox="0 0 20 20" fill="none" xmlns="http://www.w3.org/2000/svg">
<path fill-rule="evenodd" clip-rule="evenodd" d="M20 10.0001C20 15.5231 15.5231 20 9.99986 20C4.47699 20 0 15.5231 0 10.0001C0 4.47726 4.47699 0 9.99986 0C15.5231 0 20 4.47726 20 10.0001ZM10.7739 8.63591C10.9377 8.45134 11.0735 8.26401 11.242 8.10491C11.7606 7.61644 12.3743 7.36939 13.0902 7.37572C13.4838 7.37847 13.8732 7.40724 14.2524 7.51735C15.1206 7.76812 15.625 8.36545 15.8653 9.2137C16.0459 9.84916 16.0791 10.5024 16.0803 11.157C16.083 12.5385 16.0762 13.92 16.0791 15.3014C16.0795 15.4307 16.0433 15.4645 15.916 15.4634C15.2044 15.4579 14.4924 15.4579 13.7807 15.4638C13.6558 15.4649 13.6286 15.426 13.629 15.3078C13.6331 13.9933 13.6345 12.6789 13.6297 11.3641C13.6286 11.0349 13.608 10.7059 13.5155 10.3857C13.3449 9.79534 12.9228 9.49488 12.3048 9.52777C11.4606 9.57223 11.0221 9.99009 10.9143 10.848C10.8886 11.0532 10.8765 11.2584 10.8765 11.4649C10.8777 12.7433 10.8753 14.0214 10.8806 15.2995C10.881 15.4271 10.8494 15.4649 10.719 15.4638C10.0023 15.4569 9.28526 15.4583 8.5686 15.463C8.4534 15.4642 8.42037 15.433 8.42037 15.3167C8.42312 12.7859 8.42312 10.2549 8.42037 7.72407C8.41996 7.59882 8.46125 7.56952 8.57947 7.57076C9.26035 7.57626 9.9411 7.57625 10.6218 7.57034C10.7471 7.56924 10.7796 7.60969 10.7764 7.72833C10.7695 8.03071 10.775 8.33352 10.775 8.63591H10.7739ZM7.07059 5.05863C7.07141 5.8448 6.43319 6.48495 5.64936 6.48536C4.87489 6.48577 4.2316 5.84481 4.22884 5.07075C4.22609 4.28843 4.86938 3.64388 5.65211 3.64471C6.4292 3.64554 7.0699 4.28375 7.07059 5.05863ZM6.87445 11.5284C6.87445 12.7804 6.87308 14.0323 6.87721 15.2848C6.87762 15.4236 6.84335 15.4658 6.69897 15.4642C5.98767 15.456 5.27651 15.4587 4.5648 15.463C4.45098 15.4642 4.41658 15.4353 4.41658 15.3175C4.4207 12.7823 4.41932 10.2475 4.41739 7.71237C4.41739 7.60735 4.44272 7.56993 4.55392 7.57076C5.27568 7.57489 5.99743 7.57625 6.71919 7.56992C6.85765 7.56854 6.87679 7.62221 6.87651 7.74127C6.87238 9.00338 6.87376 10.2659 6.87376 11.5284" fill="#295C88"/>
</svg>
