<svg width="20" height="20" viewBox="0 0 20 20" fill="none" xmlns="http://www.w3.org/2000/svg">
<path fill-rule="evenodd" clip-rule="evenodd" d="M20 10.0002C20 15.523 15.5232 20 10.0003 20C4.47727 20 0 15.523 0 10.0002C0 4.47736 4.47727 0 10.0003 0C15.5232 0 20 4.47736 20 10.0002ZM7.97925 15.7595C12.8639 15.7595 15.5348 11.7129 15.5348 8.20436C15.5348 8.0893 15.5321 7.97492 15.528 7.86109C16.0464 7.48618 16.497 7.01878 16.8526 6.48614C16.3769 6.69768 15.8642 6.84 15.3283 6.904C15.8763 6.57547 16.2969 6.05549 16.4955 5.43517C15.9813 5.73948 15.414 5.96065 14.8096 6.07997C14.3235 5.56385 13.6345 5.24083 12.8702 5.24083C11.4037 5.24083 10.2154 6.42997 10.2154 7.89619C10.2154 8.10443 10.2376 8.30704 10.2837 8.50165C8.07615 8.39044 6.12076 7.33396 4.81102 5.72736C4.58283 6.11948 4.45098 6.57545 4.45098 7.06157C4.45098 7.98317 4.91907 8.79618 5.63312 9.27225C5.19765 9.25849 4.78721 9.13917 4.43018 8.93974C4.42881 8.95075 4.42882 8.96204 4.42882 8.97374C4.42882 10.2601 5.34451 11.3333 6.55941 11.5772C6.33699 11.6376 6.10135 11.6704 5.85994 11.6704C5.68817 11.6704 5.52247 11.6536 5.36088 11.6224C5.69878 12.6773 6.67914 13.4452 7.84065 13.4666C6.93281 14.179 5.78727 14.6035 4.54319 14.6035C4.32972 14.6035 4.11791 14.5911 3.91036 14.5668C5.08507 15.3198 6.48095 15.7595 7.97993 15.7595" fill="#295C88"/>
</svg>
