<svg width="50" height="50" viewBox="0 0 50 50" fill="none" xmlns="http://www.w3.org/2000/svg">
<path d="M50 24.9999C50 38.8072 38.8073 50 25.0002 50C11.1931 50 0 38.8072 0 24.9999C0 11.1928 11.1931 0 25.0002 0C38.8073 0 50 11.1928 50 24.9999Z" fill="#142850"/>
<path d="M46.6285 24.9999C46.6285 36.9453 36.9452 46.6289 25 46.6289C13.0547 46.6289 3.37109 36.9453 3.37109 24.9999C3.37109 13.0546 13.0547 3.37125 25 3.37125C36.9452 3.37125 46.6285 13.0546 46.6285 24.9999Z" fill="#142850"/>
<path d="M32.5222 11.821H17.4769C16.7832 11.821 16.2207 12.3835 16.2207 13.0771V14.3333V39.4353V40.6915C16.2207 41.3852 16.7832 41.9478 17.4769 41.9478H32.5222C33.2163 41.9478 33.7789 41.3852 33.7789 40.6915V39.4353V14.3333V13.0771C33.7789 12.3835 33.2163 11.821 32.5222 11.821Z" fill="#142850"/>
<path d="M32.5222 40.6914H17.4769C16.7832 40.6914 16.2207 40.1289 16.2207 39.4352V13.077C16.2207 12.3834 16.7832 11.8209 17.4769 11.8209H32.5222C33.2163 11.8209 33.7789 12.3834 33.7789 13.077V39.4352C33.7789 40.1289 33.2163 40.6914 32.5222 40.6914Z" fill="#0069A2"/>
<path d="M32.5222 39.4355H17.4769C16.7832 39.4355 16.2207 38.873 16.2207 38.1791V11.8213C16.2207 11.1276 16.7832 10.565 17.4769 10.565H32.5222C33.2163 10.565 33.7789 11.1276 33.7789 11.8213V38.1791C33.7789 38.873 33.2163 39.4355 32.5222 39.4355Z" fill="#25ABE3"/>
<path d="M32.5222 10.5648H17.4769C16.7832 10.5648 16.2207 11.1273 16.2207 11.821V12.4492C16.2207 11.7553 16.7832 11.1927 17.4769 11.1927H32.5222C33.2163 11.1927 33.7789 11.7553 33.7789 12.4492V11.821C33.7789 11.1273 33.2163 10.5648 32.5222 10.5648Z" fill="#36BDE7"/>
<path d="M31.5719 34.7363H18.4271C18.0931 34.7363 17.8223 34.4651 17.8223 34.1311V14.2774C17.8223 13.9433 18.0931 13.6724 18.4271 13.6724H31.5719C31.9059 13.6724 32.1768 13.9433 32.1768 14.2774V34.1311C32.1768 34.4651 31.9059 34.7363 31.5719 34.7363Z" fill="#0069A2"/>
<path d="M31.5719 13.6724H18.4271C18.0931 13.6724 17.8223 13.9434 17.8223 14.2775V14.9058C17.8223 14.5716 18.0931 14.3008 18.4271 14.3008H31.5719C31.9059 14.3008 32.1768 14.5716 32.1768 14.9058V14.2775C32.1768 13.9434 31.9059 13.6724 31.5719 13.6724Z" fill="#0091DA"/>
<path d="M26.2566 37.0604C26.2566 37.7544 25.6941 38.3169 25.0004 38.3169C24.3063 38.3169 23.7441 37.7544 23.7441 37.0604C23.7441 36.3667 24.3063 35.8042 25.0004 35.8042C25.6941 35.8042 26.2566 36.3667 26.2566 37.0604Z" fill="#F3FAFE"/>
<path d="M25.0004 37.9397C24.3707 37.9397 23.8509 37.4763 23.7596 36.8721C23.7507 36.9335 23.7441 36.9964 23.7441 37.0604C23.7441 37.7544 24.3063 38.3169 25.0004 38.3169C25.6941 38.3169 26.2566 37.7544 26.2566 37.0604C26.2566 36.9964 26.2503 36.9335 26.2408 36.8721C26.15 37.4763 25.6297 37.9397 25.0004 37.9397Z" fill="#DDDEDE"/>
<path d="M26.57 12.6255H23.4294C23.1521 12.6255 22.9268 12.4003 22.9268 12.1229C22.9268 11.8452 23.1521 11.6204 23.4294 11.6204H26.57C26.8477 11.6204 27.0726 11.8452 27.0726 12.1229C27.0726 12.4003 26.8477 12.6255 26.57 12.6255Z" fill="#F3FAFE"/>
<path d="M23.4294 11.8718H26.5701C26.8043 11.8718 27.0004 12.0323 27.0562 12.249C27.0663 12.2087 27.0727 12.1666 27.0727 12.1232C27.0727 11.8455 26.8477 11.6207 26.5701 11.6207H23.4294C23.1522 11.6207 22.9268 11.8455 22.9268 12.1232C22.9268 12.1666 22.9332 12.2087 22.9434 12.249C22.9994 12.0323 23.1956 11.8718 23.4294 11.8718Z" fill="#DDDEDE"/>
<path d="M28.4825 22.138C28.4825 22.7879 28.3039 23.3976 27.9932 23.9181C27.5115 24.7267 27.237 25.6417 27.237 26.5827V26.802C27.237 27.0998 26.9956 27.3408 26.6979 27.3408H23.3022C23.0044 27.3408 22.7634 27.0998 22.7634 26.802V26.6583C22.7634 25.6826 22.4832 24.7328 21.9906 23.8904C21.671 23.3433 21.4963 22.7014 21.5196 22.0166C21.5819 20.1843 23.0819 18.7007 24.9147 18.6568C26.8771 18.6098 28.4825 20.1864 28.4825 22.138Z" fill="#EFEFF0"/>
<path d="M27.0157 22.1378C27.0157 20.186 26.0864 18.6094 24.9506 18.6565C23.8897 18.7007 23.0215 20.1846 22.9855 22.017C22.9722 22.7013 23.0733 23.3433 23.2583 23.8904C23.5432 24.7331 23.7051 25.6822 23.7051 26.6579V26.8022C23.7051 27.0998 23.8449 27.3408 24.0172 27.3408H25.983C26.155 27.3408 26.2948 27.0998 26.2948 26.8022V26.5827C26.2948 25.6413 26.4536 24.7263 26.7327 23.9181C26.9123 23.3972 27.0157 22.7883 27.0157 22.1378Z" fill="#F3FAFE"/>
<path d="M27.9928 22.9345C27.5108 23.7431 27.2366 24.658 27.2366 25.5992V25.8187C27.2366 26.1165 26.9952 26.3575 26.6978 26.3575H23.3018C23.004 26.3575 22.763 26.1165 22.763 25.8187V25.6746C22.763 24.699 22.4824 23.7499 21.9902 22.9072C21.7685 22.5275 21.6166 22.1018 21.5523 21.6481C21.5351 21.7691 21.5236 21.892 21.5197 22.017C21.4963 22.7013 21.6708 23.3433 21.9902 23.8904C22.4824 24.7331 22.763 25.6822 22.763 26.6579V26.8022C22.763 27.0998 23.004 27.3408 23.3018 27.3408H26.6978C26.9952 27.3408 27.2366 27.0998 27.2366 26.8022V26.5827C27.2366 25.6413 27.5108 24.7263 27.9928 23.9181C28.3035 23.3972 28.4821 22.7883 28.4821 22.1378C28.4821 21.9718 28.4694 21.8087 28.4469 21.6485C28.3809 22.1129 28.2235 22.548 27.9928 22.9345Z" fill="#EFEFF0"/>
<path d="M26.6132 22.4168L25.7858 27.3408H25.1497L25.9325 22.6788H24.0681L24.8509 27.3408H24.2143L23.3871 22.4168C23.372 22.3256 23.3972 22.2322 23.4568 22.1617C23.5167 22.0914 23.6044 22.0508 23.6967 22.0508H26.3035C26.3959 22.0508 26.4838 22.0914 26.5435 22.1617C26.6031 22.2322 26.6283 22.3256 26.6132 22.4168Z" fill="#6BC7DE"/>
<path d="M26.3032 22.3652L25.4677 27.3413H25.1493L25.9321 22.6793H24.0677L24.8505 27.3413H24.5318L23.6963 22.3652H26.3032Z" fill="#67C3C1"/>
<path d="M26.7572 27.3411V29.9197C26.7572 29.9783 26.7483 30.035 26.7303 30.0878C26.6599 30.3013 26.4594 30.4546 26.223 30.4546H23.7767C23.54 30.4546 23.3395 30.3013 23.2692 30.0878C23.2516 30.035 23.2422 29.9783 23.2422 29.9197V27.3411H26.7572Z" fill="#EFEFF0"/>
<path d="M26.2227 30.2089H23.7767C23.4818 30.2089 23.2422 29.9693 23.2422 29.6741V29.92C23.2422 30.2151 23.4818 30.4546 23.7767 30.4546H26.2227C26.5179 30.4546 26.7572 30.2151 26.7572 29.92V29.6741C26.7572 29.9693 26.5179 30.2089 26.2227 30.2089Z" fill="#DDDEDE"/>
<path d="M26.8103 29.8403H23.189C23.0216 29.8403 22.8857 29.7046 22.8857 29.5372V29.4309C22.8857 29.2635 23.0216 29.1276 23.189 29.1276H26.8103C26.9779 29.1276 27.1138 29.2635 27.1138 29.4309V29.5372C27.1138 29.7046 26.9779 29.8403 26.8103 29.8403Z" fill="#F3FAFE"/>
<path d="M26.81 29.5946H23.1887C23.0453 29.5946 22.9253 29.4948 22.8937 29.3612C22.8886 29.3835 22.8848 29.4068 22.8848 29.4309V29.5372C22.8848 29.7046 23.0206 29.8403 23.188 29.8403H26.8094C26.977 29.8403 27.1129 29.7046 27.1129 29.5372V29.4309C27.1129 29.4068 27.1091 29.3835 27.104 29.3612C27.0723 29.4948 26.9527 29.5946 26.8091 29.5946" fill="#DDDEDE"/>
<path d="M25.2587 31.0693H24.7403C24.4716 31.0693 24.2539 30.8514 24.2539 30.5826V30.4547H25.7451V30.5826C25.7451 30.8514 25.5274 31.0693 25.2587 31.0693Z" fill="#F3FAFE"/>
<path d="M25.2587 30.8234H24.7403C24.5126 30.8234 24.3218 30.6664 24.269 30.4547H24.2539V30.5826C24.2539 30.8514 24.4716 31.0693 24.7403 31.0693H25.2587C25.5274 31.0693 25.7451 30.8514 25.7451 30.5826V30.4547H25.7304C25.6775 30.6664 25.4868 30.8234 25.2587 30.8234Z" fill="#DDDEDE"/>
<path d="M26.8103 28.5908H23.189C23.0216 28.5908 22.8857 28.4551 22.8857 28.2873V28.1814C22.8857 28.0136 23.0216 27.8779 23.189 27.8779H26.8103C26.9779 27.8779 27.1138 28.0136 27.1138 28.1814V28.2873C27.1138 28.4551 26.9779 28.5908 26.8103 28.5908Z" fill="#F3FAFE"/>
<path d="M26.81 28.3449H23.1887C23.0453 28.3449 22.9253 28.2452 22.8937 28.1113C22.8886 28.134 22.8848 28.1573 22.8848 28.1814V28.2873C22.8848 28.4551 23.0206 28.5908 23.188 28.5908H26.8094C26.977 28.5908 27.1129 28.4551 27.1129 28.2873V28.1814C27.1129 28.1573 27.1091 28.134 27.104 28.1113C27.0723 28.2452 26.9527 28.3449 26.8091 28.3449" fill="#DDDEDE"/>
<path d="M26.7572 28.8389H23.2422V28.591H26.7572V28.8389Z" fill="#C9CACB"/>
<path d="M26.7572 27.5894H23.2422V27.3415H26.7572V27.5894Z" fill="#C9CACB"/>
<path d="M26.7572 29.84V29.9197C26.7572 29.9784 26.7483 30.035 26.7303 30.0879H23.2692C23.2516 30.035 23.2422 29.9784 23.2422 29.9197V29.84H26.7572Z" fill="#C9CACB"/>
<path d="M25.0003 17.6143C24.7912 17.6143 24.6221 17.4451 24.6221 17.2364V16.4798C24.6221 16.2711 24.7912 16.1015 25.0003 16.1015C25.2091 16.1015 25.3783 16.2711 25.3783 16.4798V17.2364C25.3783 17.4451 25.2091 17.6143 25.0003 17.6143Z" fill="#6BC7DE"/>
<path d="M24.9994 16.101C24.7903 16.101 24.6211 16.2705 24.6211 16.4793V16.605C24.6211 16.396 24.7903 16.2267 24.9994 16.2267C25.2081 16.2267 25.3773 16.396 25.3773 16.605V16.4793C25.3773 16.2705 25.2081 16.101 24.9994 16.101Z" fill="#72C8D7"/>
<path d="M25.0003 17.3004C24.7912 17.3004 24.6221 17.131 24.6221 16.9221V17.2364C24.6221 17.4451 24.7912 17.6143 25.0003 17.6143C25.2091 17.6143 25.3783 17.4451 25.3783 17.2364V16.9221C25.3783 17.131 25.2091 17.3004 25.0003 17.3004Z" fill="#67C3C1"/>
<path d="M29.6885 22.3024C29.6885 22.0937 29.8576 21.9241 30.0664 21.9241H30.8229C31.0316 21.9241 31.2012 22.0937 31.2012 22.3024C31.2012 22.5115 31.0316 22.6807 30.8229 22.6807H30.0664C29.8576 22.6807 29.6885 22.5115 29.6885 22.3024Z" fill="#6BC7DE"/>
<path d="M30.0659 22.0498H30.8224C31.0098 22.0498 31.1647 22.1863 31.1949 22.3652C31.1987 22.3447 31.2012 22.3239 31.2012 22.3024C31.2012 22.0937 31.0317 21.9241 30.8229 21.9241H30.0664C29.8576 21.9241 29.6885 22.0937 29.6885 22.3024C29.6885 22.3239 29.691 22.3447 29.6935 22.3652C29.7238 22.1863 29.879 22.0498 30.0661 22.0498" fill="#72C8D7"/>
<path d="M30.8229 22.3666H30.0664C29.9137 22.3666 29.7826 22.2758 29.7229 22.1454C29.701 22.1932 29.6885 22.2464 29.6885 22.3024C29.6885 22.5115 29.8576 22.6807 30.0664 22.6807H30.8229C31.0316 22.6807 31.2012 22.5115 31.2012 22.3024C31.2012 22.2464 31.1885 22.1932 31.1667 22.1454C31.107 22.2758 30.9756 22.3666 30.8229 22.3666Z" fill="#67C3C1"/>
<path d="M18.7988 22.3024C18.7988 22.0937 18.968 21.9241 19.1771 21.9241H19.9333C20.1424 21.9241 20.3115 22.0937 20.3115 22.3024C20.3115 22.5115 20.1424 22.6807 19.9333 22.6807H19.1771C18.968 22.6807 18.7988 22.5115 18.7988 22.3024Z" fill="#6BC7DE"/>
<path d="M19.1775 22.0498H19.9336C20.1212 22.0498 20.2763 22.1863 20.3062 22.3652C20.31 22.3447 20.3126 22.3239 20.3126 22.3024C20.3126 22.0937 20.1434 21.9241 19.9343 21.9241H19.1781C18.969 21.9241 18.7998 22.0937 18.7998 22.3024C18.7998 22.3239 18.8023 22.3447 18.8061 22.3652C18.8359 22.1863 18.9912 22.0498 19.1786 22.0498" fill="#72C8D7"/>
<path d="M19.9333 22.3666H19.1771C19.0241 22.3666 18.893 22.2758 18.8333 22.1454C18.8115 22.1932 18.7988 22.2464 18.7988 22.3024C18.7988 22.5115 18.968 22.6807 19.1771 22.6807H19.9333C20.1424 22.6807 20.3115 22.5115 20.3115 22.3024C20.3115 22.2464 20.2989 22.1932 20.2771 22.1454C20.2174 22.2758 20.086 22.3666 19.9333 22.3666Z" fill="#67C3C1"/>
<path d="M28.3148 18.9874C28.1672 18.8398 28.1672 18.6002 28.3148 18.4525L28.8497 17.9176C28.9974 17.7699 29.237 17.7699 29.3847 17.9176C29.5323 18.0652 29.5323 18.3049 29.3847 18.4525L28.8497 18.9874C28.7021 19.1351 28.4625 19.1351 28.3148 18.9874Z" fill="#6BC7DE"/>
<path d="M28.315 18.5778L28.8499 18.0429C28.9975 17.8953 29.2372 17.8953 29.3848 18.0429C29.4426 18.1008 29.4767 18.1726 29.4894 18.2473C29.509 18.1309 29.4746 18.007 29.3848 17.9172C29.2372 17.7695 28.9975 17.7695 28.8499 17.9172L28.315 18.4521C28.2252 18.542 28.1907 18.6659 28.2105 18.7822C28.2231 18.7076 28.2572 18.6357 28.315 18.5778Z" fill="#72C8D7"/>
<path d="M29.3847 18.1386L28.8497 18.6732C28.7021 18.821 28.4625 18.821 28.3148 18.6732C28.2822 18.6405 28.2577 18.6027 28.2398 18.5627C28.1758 18.7025 28.1999 18.8725 28.3148 18.9874C28.4625 19.1351 28.7021 19.1351 28.8497 18.9874L29.3847 18.4525C29.4996 18.3376 29.5237 18.1676 29.4597 18.028C29.4417 18.0677 29.4174 18.1055 29.3847 18.1386Z" fill="#67C3C1"/>
<path d="M20.6146 26.6871C20.467 26.5395 20.467 26.2998 20.6146 26.1522L21.1495 25.6177C21.2972 25.47 21.5364 25.47 21.6841 25.6177C21.8317 25.7653 21.8317 26.0045 21.6841 26.1522L21.1495 26.6871C21.0015 26.8348 20.7623 26.8348 20.6146 26.6871Z" fill="#6BC7DE"/>
<path d="M20.6149 26.2776L21.1498 25.7427C21.2975 25.5951 21.5367 25.5951 21.6844 25.7427C21.7422 25.8007 21.7768 25.8725 21.7893 25.9475C21.8087 25.8312 21.7746 25.7072 21.6844 25.6174C21.5367 25.4698 21.2975 25.4698 21.1498 25.6174L20.6149 26.1519C20.5252 26.242 20.4907 26.3657 20.5101 26.4824C20.5228 26.4073 20.5571 26.3354 20.6149 26.2776Z" fill="#72C8D7"/>
<path d="M21.6844 25.8382L21.1498 26.3731C21.0018 26.5207 20.7626 26.5207 20.6149 26.3731C20.5822 26.3404 20.5579 26.3024 20.5395 26.2628C20.4755 26.4022 20.5 26.5722 20.6149 26.6871C20.7626 26.8348 21.0018 26.8348 21.1498 26.6871L21.6844 26.1522C21.7993 26.0376 21.8238 25.8673 21.7598 25.7279C21.7415 25.7678 21.7174 25.8055 21.6844 25.8382Z" fill="#67C3C1"/>
<path d="M28.3148 25.6177C28.4625 25.47 28.7021 25.47 28.8497 25.6177L29.3847 26.1522C29.5323 26.2998 29.5323 26.5395 29.3847 26.6871C29.237 26.8348 28.9974 26.8348 28.8497 26.6871L28.3148 26.1522C28.1672 26.0045 28.1672 25.7653 28.3148 25.6177Z" fill="#6BC7DE"/>
<path d="M28.315 25.7427C28.4626 25.5951 28.7023 25.5951 28.8499 25.7427L29.3848 26.2776C29.4426 26.3354 29.4767 26.4073 29.4894 26.4824C29.509 26.3657 29.4746 26.242 29.3848 26.1519L28.8499 25.6174C28.7023 25.4698 28.4626 25.4698 28.315 25.6174C28.2252 25.7072 28.1907 25.8312 28.2105 25.9475C28.2231 25.8725 28.2572 25.8007 28.315 25.7427Z" fill="#72C8D7"/>
<path d="M29.3847 26.3731C29.237 26.5207 28.9974 26.5207 28.8497 26.3731L28.3148 25.8382C28.2822 25.8055 28.2577 25.7678 28.2398 25.7279C28.1758 25.8673 28.1999 26.0376 28.3148 26.1522L28.8497 26.6871C28.9974 26.8348 29.237 26.8348 29.3847 26.6871C29.4996 26.5722 29.5237 26.4022 29.4597 26.2628C29.4417 26.3024 29.4174 26.3404 29.3847 26.3731Z" fill="#67C3C1"/>
<path d="M20.6146 17.9176C20.7623 17.7699 21.0015 17.7699 21.1495 17.9176L21.6841 18.4525C21.8317 18.6002 21.8317 18.8398 21.6841 18.9874C21.5364 19.1351 21.2972 19.1351 21.1495 18.9874L20.6146 18.4525C20.467 18.3049 20.467 18.0652 20.6146 17.9176Z" fill="#6BC7DE"/>
<path d="M20.6149 18.0429C20.7626 17.8953 21.0018 17.8953 21.1498 18.0429L21.6844 18.5778C21.7422 18.6357 21.7768 18.7076 21.7893 18.7822C21.8087 18.6659 21.7746 18.542 21.6844 18.4521L21.1498 17.9172C21.0018 17.7695 20.7626 17.7695 20.6149 17.9172C20.5252 18.007 20.4907 18.1309 20.5101 18.2473C20.5228 18.1726 20.5571 18.1008 20.6149 18.0429Z" fill="#72C8D7"/>
<path d="M21.6844 18.6732C21.5367 18.821 21.2975 18.821 21.1498 18.6732L20.6149 18.1386C20.5822 18.1055 20.5579 18.0677 20.5395 18.028C20.4755 18.1676 20.5 18.3376 20.6149 18.4525L21.1498 18.9874C21.2975 19.1351 21.5367 19.1351 21.6844 18.9874C21.7993 18.8725 21.8238 18.7025 21.7598 18.5627C21.7415 18.6027 21.7174 18.6405 21.6844 18.6732Z" fill="#67C3C1"/>
</svg>
