<svg width="18" height="10" viewBox="0 0 18 10" fill="none" xmlns="http://www.w3.org/2000/svg">
<path d="M16.5 9.75003C16.4015 9.75016 16.304 9.73082 16.2129 9.69312C16.1219 9.65543 16.0393 9.60012 15.9697 9.53037L9.00003 2.56071L2.03038 9.53037C1.88972 9.67103 1.69895 9.75005 1.50003 9.75005C1.30112 9.75005 1.11035 9.67103 0.969691 9.53037C0.829035 9.38972 0.750015 9.19895 0.750015 9.00003C0.750015 8.80111 0.829035 8.61034 0.969691 8.46968L8.46969 0.969684C8.53934 0.900036 8.62202 0.844787 8.71301 0.807094C8.80401 0.7694 8.90154 0.75 9.00003 0.75C9.09853 0.75 9.19606 0.7694 9.28706 0.807094C9.37805 0.844787 9.46073 0.900036 9.53038 0.969684L17.0304 8.46968C17.1353 8.57457 17.2067 8.70821 17.2356 8.8537C17.2646 8.99919 17.2497 9.15 17.193 9.28704C17.1362 9.42409 17.0401 9.54123 16.9167 9.62364C16.7934 9.70605 16.6484 9.75003 16.5 9.75003Z" fill="#FCFCFD"/>
</svg>
