<svg width="16" height="14" viewBox="0 0 16 14" fill="none" xmlns="http://www.w3.org/2000/svg">
<path d="M15.317 7.44197L9.69195 13.067C9.63391 13.125 9.56501 13.171 9.48918 13.2025C9.41335 13.2339 9.33208 13.25 9.25 13.25C9.16792 13.25 9.08665 13.2339 9.01082 13.2025C8.93499 13.171 8.86609 13.125 8.80805 13.067C8.75001 13.0089 8.70397 12.94 8.67256 12.8642C8.64115 12.7884 8.62498 12.7071 8.62498 12.625C8.62498 12.5429 8.64115 12.4617 8.67256 12.3858C8.70397 12.31 8.75001 12.2411 8.80805 12.1831L13.3661 7.62502H1.125C0.95924 7.62502 0.800269 7.55917 0.683058 7.44196C0.565848 7.32475 0.5 7.16578 0.5 7.00002C0.5 6.83426 0.565848 6.67528 0.683058 6.55807C0.800269 6.44086 0.95924 6.37502 1.125 6.37502H13.3661L8.80805 1.81697C8.69083 1.69976 8.62498 1.54078 8.62498 1.37502C8.62498 1.20925 8.69083 1.05028 8.80805 0.933063C8.92526 0.81585 9.08424 0.75 9.25 0.75C9.41576 0.75 9.57474 0.81585 9.69195 0.933063L15.317 6.55806C15.375 6.6161 15.421 6.685 15.4524 6.76083C15.4839 6.83666 15.5 6.91794 15.5 7.00002C15.5 7.0821 15.4839 7.16337 15.4524 7.2392C15.421 7.31503 15.375 7.38393 15.317 7.44197Z" fill="#98A2B3"/>
</svg>
