<svg width="7" height="12" viewBox="0 0 7 12" fill="none" xmlns="http://www.w3.org/2000/svg">
<path d="M1.00002 11.5C0.901125 11.5 0.804452 11.4707 0.722224 11.4157C0.639996 11.3608 0.575907 11.2827 0.538061 11.1913C0.500216 11.1 0.490314 10.9994 0.509609 10.9025C0.528903 10.8055 0.576526 10.7164 0.646456 10.6464L5.2929 6L0.646456 1.35356C0.552686 1.25979 0.500006 1.13261 0.500006 1C0.500006 0.867388 0.552686 0.740208 0.646456 0.646437C0.740227 0.552667 0.867407 0.499987 1.00002 0.499987C1.13263 0.499987 1.25981 0.552667 1.35358 0.646437L6.35358 5.64644C6.40002 5.69287 6.43685 5.74799 6.46198 5.80865C6.48711 5.86932 6.50004 5.93434 6.50004 6C6.50004 6.06567 6.48711 6.13069 6.46198 6.19135C6.43685 6.25201 6.40002 6.30713 6.35358 6.35356L1.35358 11.3536C1.3072 11.4001 1.25209 11.4369 1.19141 11.4621C1.13074 11.4872 1.06569 11.5001 1.00002 11.5Z" fill="#FCFCFD"/>
</svg>
