<svg width="23" height="23" viewBox="0 0 23 23" fill="none" xmlns="http://www.w3.org/2000/svg">
<path d="M18.6875 2.875H16.5312V2.15625C16.5312 1.96563 16.4555 1.78281 16.3207 1.64802C16.1859 1.51323 16.0031 1.4375 15.8125 1.4375C15.6219 1.4375 15.4391 1.51323 15.3043 1.64802C15.1695 1.78281 15.0938 1.96563 15.0938 2.15625V2.875H7.90625V2.15625C7.90625 1.96563 7.83052 1.78281 7.69573 1.64802C7.56094 1.51323 7.37812 1.4375 7.1875 1.4375C6.99688 1.4375 6.81406 1.51323 6.67927 1.64802C6.54448 1.78281 6.46875 1.96563 6.46875 2.15625V2.875H4.3125C3.93138 2.87543 3.566 3.02702 3.29651 3.29651C3.02702 3.566 2.87543 3.93138 2.875 4.3125V18.6875C2.87543 19.0686 3.02702 19.434 3.29651 19.7035C3.566 19.973 3.93138 20.1246 4.3125 20.125H18.6875C19.0686 20.1246 19.434 19.973 19.7035 19.7035C19.973 19.434 20.1246 19.0686 20.125 18.6875V4.3125C20.1246 3.93138 19.973 3.566 19.7035 3.29651C19.434 3.02702 19.0686 2.87543 18.6875 2.875ZM6.46875 4.3125V5.03125C6.46875 5.22187 6.54448 5.40469 6.67927 5.53948C6.81406 5.67427 6.99688 5.75 7.1875 5.75C7.37812 5.75 7.56094 5.67427 7.69573 5.53948C7.83052 5.40469 7.90625 5.22187 7.90625 5.03125V4.3125H15.0938V5.03125C15.0938 5.22187 15.1695 5.40469 15.3043 5.53948C15.4391 5.67427 15.6219 5.75 15.8125 5.75C16.0031 5.75 16.1859 5.67427 16.3207 5.53948C16.4555 5.40469 16.5312 5.22187 16.5312 5.03125V4.3125H18.6875L18.6877 7.1875H4.3125V4.3125H6.46875ZM18.6875 18.6875H4.3125V8.625H18.6878L18.6884 18.6875H18.6875Z" fill="white"/>
</svg>
