<svg width="20" height="16" viewBox="0 0 20 16" fill="none" xmlns="http://www.w3.org/2000/svg">
<path d="M19.7491 1.23219C19.7488 1.21825 19.7481 1.20438 19.747 1.19056C19.7461 1.17931 19.745 1.16812 19.7436 1.157C19.739 1.11993 19.7316 1.08326 19.7215 1.04731C19.7118 1.01229 19.6995 0.978034 19.6847 0.944844C19.6795 0.93346 19.6741 0.922206 19.6684 0.911094C19.6406 0.855702 19.6058 0.804122 19.5648 0.757625C19.5606 0.752938 19.5572 0.747875 19.5528 0.743188C19.5493 0.73925 19.5453 0.735969 19.5416 0.732125C19.5325 0.722641 19.5231 0.713388 19.5135 0.704375C19.5048 0.696103 19.496 0.688038 19.4869 0.680188C19.4777 0.672468 19.4684 0.664965 19.4588 0.657687C19.4488 0.649783 19.4386 0.642124 19.4282 0.634719C19.4189 0.628156 19.4092 0.622156 19.3996 0.616062C19.3886 0.609219 19.3777 0.602281 19.3665 0.596C19.3562 0.590187 19.3457 0.585031 19.3352 0.579781C19.3242 0.57425 19.3132 0.568719 19.3021 0.563844C19.2904 0.558687 19.2786 0.554281 19.2667 0.549781C19.2561 0.545656 19.2456 0.541531 19.2348 0.538062C19.2221 0.53397 19.2093 0.530219 19.1964 0.526812C19.1858 0.524 19.1753 0.521188 19.1645 0.518656C19.1517 0.515888 19.1387 0.513449 19.1257 0.511344C19.1144 0.509342 19.103 0.507591 19.0916 0.506094C19.0792 0.504665 19.0667 0.503539 19.0543 0.502719C19.0417 0.501775 19.0291 0.501149 19.0165 0.500844C19.0109 0.50075 19.0055 0.5 19 0.5H1C0.994844 0.5 0.989969 0.500656 0.984812 0.50075C0.971125 0.501031 0.957625 0.501781 0.944031 0.502812C0.932508 0.503603 0.921005 0.504666 0.909531 0.506C0.897113 0.507577 0.884734 0.509453 0.872406 0.511625C0.860219 0.513781 0.848219 0.515844 0.836312 0.518469C0.824687 0.521094 0.813344 0.524187 0.801906 0.527375C0.789719 0.530656 0.777719 0.533937 0.765813 0.537781C0.754375 0.541531 0.743125 0.545937 0.731781 0.55025C0.720625 0.554562 0.709375 0.558688 0.6985 0.563563C0.686781 0.568719 0.67525 0.574531 0.663812 0.58025C0.653687 0.585312 0.643656 0.590281 0.633812 0.595719C0.622287 0.602322 0.610939 0.60923 0.599781 0.616438C0.590406 0.622344 0.581031 0.62825 0.572031 0.634531C0.561444 0.642026 0.551065 0.64981 0.540906 0.657875C0.531531 0.665094 0.522156 0.672406 0.51325 0.680094C0.504069 0.687982 0.495098 0.69611 0.486344 0.704469C0.476788 0.713438 0.467472 0.722661 0.458406 0.732125C0.454656 0.735875 0.450719 0.73925 0.447156 0.743188C0.442844 0.747875 0.439375 0.752844 0.43525 0.757625C0.418758 0.77656 0.403178 0.79627 0.388563 0.816687C0.38129 0.826908 0.374288 0.837318 0.367562 0.847906C0.341244 0.888905 0.319162 0.932472 0.301656 0.977937C0.288019 1.01223 0.277141 1.04757 0.269125 1.08359C0.263707 1.10785 0.259452 1.13234 0.256375 1.157C0.255 1.16812 0.253875 1.17931 0.253 1.19056C0.251937 1.20444 0.25125 1.21828 0.250938 1.23209C0.25075 1.23809 0.25 1.244 0.25 1.25V14C0.250447 14.3977 0.408625 14.779 0.689833 15.0602C0.971041 15.3414 1.35231 15.4996 1.75 15.5H18.25C18.6477 15.4996 19.029 15.3414 19.3102 15.0602C19.5914 14.779 19.7496 14.3977 19.75 14V1.25C19.75 1.244 19.7493 1.23809 19.7491 1.23219ZM17.0718 2L10 8.48253L2.92816 2H17.0718ZM18.25 14H1.75V2.95503L9.49319 10.0528C9.63153 10.1796 9.81236 10.2499 10 10.2499C10.1876 10.2499 10.3685 10.1796 10.5068 10.0528L18.2501 2.95484L18.2509 14H18.25Z" fill="#FCFCFD"/>
</svg>
