<svg width="79" height="79" viewBox="0 0 79 79" fill="none" xmlns="http://www.w3.org/2000/svg">
<path d="M79 39.5001C79 61.3154 61.3151 79 39.5003 79C17.6851 79 0 61.3154 0 39.5001C0 17.6846 17.6851 0 39.5003 0C61.3151 0 79 17.6846 79 39.5001Z" fill="#19294F"/>
<path d="M73.6708 39.4999C73.6708 58.3735 58.3708 73.6732 39.4978 73.6732C20.6244 73.6732 5.32422 58.3735 5.32422 39.4999C5.32422 20.6262 20.6244 5.32613 39.4978 5.32613C58.3708 5.32613 73.6708 20.6262 73.6708 39.4999Z" fill="#19294F"/>
<path d="M61.7316 26.0657H39.6007C39.6007 25.9878 39.5986 25.9113 39.5946 25.8347C39.5934 25.8108 39.5927 25.787 39.5907 25.7632C39.5867 25.7069 39.5826 25.6512 39.5786 25.5956C39.5746 25.5571 39.5707 25.5191 39.5667 25.481C39.5606 25.4328 39.5546 25.3851 39.5486 25.3375C39.5426 25.2936 39.5346 25.2506 39.5282 25.2075C39.5242 25.1871 39.5202 25.1665 39.5182 25.1467C39.374 24.3516 39.0482 23.6193 38.5827 22.9972C38.2876 22.6024 37.9362 22.2509 37.5413 21.9558C37.3836 21.8377 37.2177 21.7294 37.0463 21.6301L42.2527 16.4231C42.2923 16.4435 42.3322 16.4639 42.3736 16.481C42.5218 16.544 42.6812 16.5853 42.8482 16.6023C42.9036 16.6083 42.9599 16.6103 43.0172 16.6103C43.931 16.6103 44.671 15.8703 44.671 14.9564C44.671 14.9054 44.669 14.8543 44.663 14.8043C44.6612 14.7883 44.659 14.7724 44.657 14.7572C44.653 14.722 44.649 14.6879 44.641 14.6539C44.639 14.6379 44.635 14.6199 44.631 14.6028C44.623 14.5648 44.6129 14.5267 44.6019 14.4899C44.3999 13.8037 43.767 13.3026 43.0155 13.3026C42.2749 13.3026 41.6484 13.7889 41.4371 14.4603C41.4351 14.4703 41.4331 14.4783 41.4291 14.4887C41.4171 14.5261 41.4081 14.5642 41.3997 14.6028C41.3957 14.6189 41.3937 14.6369 41.3897 14.6539C41.3837 14.6879 41.3777 14.722 41.3737 14.7566C41.3721 14.7726 41.3697 14.7885 41.3677 14.8043C41.3636 14.8543 41.3596 14.9054 41.3596 14.9564C41.3596 15.2321 41.4277 15.4922 41.5475 15.7209L36.0745 21.1942C35.5693 21.0278 35.0301 20.9365 34.4693 20.9365H34.4699H34.4693C34.4693 20.9365 34.4692 20.9365 34.4688 20.9365C34.4692 20.9365 34.4693 20.9365 34.4693 20.9365C34.0438 20.9365 33.6299 20.9891 33.2342 21.0874C33.2008 21.0954 33.1674 21.1055 33.1339 21.1129C33.0356 21.1395 32.9385 21.1691 32.8426 21.2013L27.3622 15.7209C27.4813 15.4922 27.55 15.2321 27.55 14.9564C27.55 14.9054 27.546 14.8543 27.542 14.8043C27.5407 14.7883 27.538 14.7724 27.536 14.7572C27.532 14.722 27.526 14.6879 27.52 14.6539C27.5159 14.6379 27.5139 14.6199 27.5099 14.6028C27.5019 14.5648 27.4919 14.5267 27.4803 14.4899C27.2789 13.8037 26.6454 13.3026 25.8945 13.3026C25.1539 13.3026 24.5274 13.7889 24.3161 14.4603C24.3141 14.4703 24.3121 14.4783 24.3081 14.4887C24.2981 14.5261 24.2871 14.5642 24.2793 14.6028C24.2753 14.6189 24.2733 14.6369 24.2693 14.6539C24.2632 14.6879 24.2572 14.722 24.2532 14.7566C24.2516 14.7726 24.2492 14.7885 24.2492 14.8043C24.2452 14.8543 24.2412 14.9054 24.2412 14.9564C24.2412 15.3861 24.4064 15.776 24.6749 16.0699C24.7106 16.1092 24.7482 16.1466 24.7872 16.1818C24.8231 16.2141 24.8599 16.2449 24.898 16.2737C24.9484 16.3118 25.0007 16.347 25.0557 16.3792C25.1188 16.4167 25.1835 16.4519 25.2516 16.4804C25.4003 16.5435 25.5597 16.5847 25.7265 16.6017C25.7822 16.6077 25.8384 16.6097 25.8957 16.6097C26.1716 16.6097 26.4309 16.5416 26.6598 16.4219L31.8773 21.6397C31.7123 21.7362 31.5527 21.8405 31.4005 21.9546C30.3836 22.7151 29.6599 23.8452 29.4243 25.1449C29.4203 25.1653 29.4163 25.1859 29.4143 25.2063C29.4063 25.2494 29.4003 25.293 29.3938 25.3363C29.3878 25.3839 29.3798 25.431 29.3758 25.4786C29.3718 25.5173 29.3678 25.5559 29.3638 25.595C29.3598 25.65 29.3538 25.7057 29.3518 25.7614C29.3506 25.7858 29.3498 25.8096 29.3478 25.834C29.3438 25.9101 29.3418 25.986 29.3418 26.0627C29.3418 26.0633 29.3418 26.0639 29.3418 26.0645H17.2701C15.8999 26.0645 14.7891 27.1752 14.7891 28.5453V30.5306V55.7374V57.7223C14.7891 59.0928 15.8999 60.2037 17.2701 60.2037H23.5713V61.6766C23.5713 62.8003 24.4821 63.7113 25.6054 63.7113C26.7292 63.7113 27.6401 62.8003 27.6401 61.6766V60.2037H51.3596V61.6766C51.3596 62.8003 52.2706 63.7113 53.3943 63.7113C54.5182 63.7113 55.429 62.8003 55.429 61.6766V60.2037H61.7298C63.0999 60.2037 64.2112 59.0928 64.2112 57.7223V55.7374V30.5306V28.5453C64.2112 27.1752 63.0999 26.0645 61.7298 26.0645" fill="#19294F"/>
<path d="M61.7298 58.2198H17.2701C15.8999 58.2198 14.7891 57.1086 14.7891 55.7384V28.5464C14.7891 27.1762 15.8999 26.0655 17.2701 26.0655H61.7298C63.1 26.0655 64.2112 27.1762 64.2112 28.5464V55.7384C64.2112 57.1086 63.1 58.2198 61.7298 58.2198Z" fill="#3A6CB4"/>
<path d="M61.7298 56.2345H17.2701C15.8999 56.2345 14.7891 55.1238 14.7891 53.7537V26.5616C14.7891 25.1914 15.8999 24.0808 17.2701 24.0808H61.7298C63.1 24.0808 64.2112 25.1914 64.2112 26.5616V53.7537C64.2112 55.1238 63.1 56.2345 61.7298 56.2345Z" fill="#6BC6D8"/>
<path d="M60.0655 54.1535H18.925C17.7218 54.1535 16.7461 53.178 16.7461 51.9746V27.9433C16.7461 26.7402 17.7218 25.7645 18.925 25.7645H60.0655C61.2689 25.7645 62.2446 26.7402 62.2446 27.9433V51.9746C62.2446 53.178 61.2689 54.1535 60.0655 54.1535Z" fill="#03ABA9"/>
<path d="M59.9133 53.4284H19.0781C18.2045 53.4284 17.4961 52.72 17.4961 51.8466V28.0719C17.4961 27.1983 18.2045 26.49 19.0781 26.49H59.9133C60.7867 26.49 61.4951 27.1983 61.4951 28.0719V51.8466C61.4951 52.72 60.7867 53.4284 59.9133 53.4284Z" fill="#3A6CB4"/>
<path d="M34.4763 22.0121C34.3494 22.0121 34.2226 21.9639 34.1257 21.867C33.9321 21.6734 33.9321 21.359 34.1257 21.1648L42.6698 12.6211C42.8634 12.427 43.1777 12.427 43.3714 12.6211C43.5656 12.8147 43.5656 13.129 43.3714 13.3227L34.8271 21.867C34.7306 21.9639 34.6034 22.0121 34.4763 22.0121Z" fill="#67C3C1"/>
<path d="M43.359 12.6212C43.2931 12.5549 43.2126 12.5135 43.128 12.4924C43.1688 12.6558 43.127 12.8352 42.9992 12.963L34.4555 21.5073C34.3584 21.6042 34.2312 21.6525 34.1041 21.6525C34.0638 21.6525 34.0242 21.6465 33.9844 21.6365C34.0054 21.721 34.0474 21.8017 34.1133 21.8675C34.2102 21.9645 34.337 22.0127 34.4639 22.0127C34.5911 22.0127 34.7182 21.9645 34.8147 21.8675L43.359 13.3232C43.5532 13.1296 43.5532 12.8152 43.359 12.6216" fill="#AAD1C6"/>
<path d="M44.6652 12.9721C44.6652 13.8853 43.9251 14.626 43.0113 14.626C42.0974 14.626 41.3574 13.8853 41.3574 12.9721C41.3574 12.0582 42.0974 11.3182 43.0113 11.3182C43.9251 11.3182 44.6652 12.0582 44.6652 12.9721Z" fill="#F3FAFE"/>
<path d="M43.0113 13.6338C42.2706 13.6338 41.6441 13.1469 41.4329 12.4761C41.384 12.6327 41.3574 12.7991 41.3574 12.9721C41.3574 13.8853 42.0974 14.626 43.0113 14.626C43.9251 14.626 44.6652 13.8853 44.6652 12.9721C44.6652 12.7991 44.6386 12.6327 44.5893 12.4761C44.3787 13.1469 43.7519 13.6338 43.0113 13.6338Z" fill="#DDDEDE"/>
<path d="M34.4425 22.0126C34.316 22.0126 34.1888 21.9643 34.0917 21.8674L25.5476 13.3231C25.3539 13.1295 25.3539 12.8151 25.5476 12.6215C25.7416 12.4275 26.0556 12.4275 26.2496 12.6215L34.7939 21.1652C34.9873 21.3594 34.9873 21.6738 34.7939 21.8674C34.6968 21.9643 34.5696 22.0126 34.4425 22.0126Z" fill="#67C3C1"/>
<path d="M34.7899 21.6654C34.6633 21.6654 34.5362 21.6171 34.4391 21.52L25.8948 12.9757C25.7648 12.8457 25.724 12.6613 25.7688 12.4955C25.6883 12.5171 25.611 12.558 25.5476 12.6214C25.3539 12.8151 25.3539 13.1294 25.5476 13.323L34.0917 21.8674C34.1888 21.9643 34.316 22.0126 34.4425 22.0126C34.5696 22.0126 34.6968 21.9643 34.7939 21.8674C34.8574 21.8037 34.8976 21.7266 34.9199 21.6459C34.8772 21.658 34.8341 21.666 34.7899 21.666" fill="#AAD1C6"/>
<path d="M24.2441 12.9721C24.2441 13.8853 24.9848 14.626 25.8986 14.626C26.8118 14.626 27.5525 13.8853 27.5525 12.9721C27.5525 12.0582 26.8118 11.3182 25.8986 11.3182C24.9848 11.3182 24.2441 12.0582 24.2441 12.9721Z" fill="#F3FAFE"/>
<path d="M25.8986 13.6338C25.158 13.6338 24.5315 13.1469 24.3202 12.4761C24.2708 12.6327 24.2441 12.7991 24.2441 12.9721C24.2441 13.8853 24.9848 14.626 25.8986 14.626C26.8118 14.626 27.5525 13.8853 27.5525 12.9721C27.5525 12.7991 27.5258 12.6327 27.4764 12.4761C27.266 13.1469 26.6389 13.6338 25.8986 13.6338Z" fill="#DDDEDE"/>
<path d="M46.6506 50.6444H24.9818C22.2411 50.6444 20.0195 48.4229 20.0195 45.6821V33.7067C20.0195 30.966 22.2411 28.7444 24.9818 28.7444H46.6506C49.391 28.7444 51.6131 30.966 51.6131 33.7067V45.6821C51.6131 48.4229 49.391 50.6444 46.6506 50.6444Z" fill="#6BC7DE"/>
<path d="M46.6506 50.6444H24.9818C22.2411 50.6444 20.0195 48.4229 20.0195 45.6821V33.7067C20.0195 30.966 22.2411 28.7444 24.9818 28.7444H46.6506C49.391 28.7444 51.6131 30.966 51.6131 33.7067V45.6821C51.6131 48.4229 49.391 50.6444 46.6506 50.6444Z" fill="#6BC7DE"/>
<path d="M40.6628 41.8844H30.9698C25.4876 41.8844 20.947 37.8562 20.1449 32.5988C20.0638 32.9552 20.0195 33.3252 20.0195 33.7066V45.6821C20.0195 48.4229 22.2411 50.6444 24.9818 50.6444H46.6506C49.391 50.6444 51.6131 48.4229 51.6131 45.6821V33.7066C51.6131 33.3252 51.5682 32.9552 51.4869 32.5988C50.6856 37.8562 46.1444 41.8844 40.6628 41.8844Z" fill="#67C3C1"/>
<path d="M46.6506 28.7445H24.9818C22.2411 28.7445 20.0195 30.966 20.0195 33.7067V34.6989C20.0195 31.9587 22.2411 29.7366 24.9818 29.7366H46.6506C49.391 29.7366 51.6131 31.9587 51.6131 34.6989V33.7067C51.6131 30.966 49.391 28.7445 46.6506 28.7445Z" fill="#67C3C1"/>
<path d="M59.4293 50.6677H53.5703C53.3382 50.6677 53.1504 50.4799 53.1504 50.2476C53.1504 50.0156 53.3382 49.8277 53.5703 49.8277H59.4293C59.6616 49.8277 59.8494 50.0156 59.8494 50.2476C59.8494 50.4799 59.6616 50.6677 59.4293 50.6677Z" fill="#6BC7E5"/>
<path d="M59.4293 48.9809H53.5703C53.3382 48.9809 53.1504 48.7923 53.1504 48.5602C53.1504 48.3282 53.3382 48.1401 53.5703 48.1401H59.4293C59.6616 48.1401 59.8494 48.3282 59.8494 48.5602C59.8494 48.7923 59.6616 48.9809 59.4293 48.9809Z" fill="#6BC7E5"/>
<path d="M59.4293 47.2933H53.5703C53.3382 47.2933 53.1504 47.1055 53.1504 46.8733C53.1504 46.6412 53.3382 46.4528 53.5703 46.4528H59.4293C59.6616 46.4528 59.8494 46.6412 59.8494 46.8733C59.8494 47.1055 59.6616 47.2933 59.4293 47.2933Z" fill="#6BC7E5"/>
<path d="M59.4293 45.6061H53.5703C53.3382 45.6061 53.1504 45.4181 53.1504 45.186C53.1504 44.954 53.3382 44.7659 53.5703 44.7659H59.4293C59.6616 44.7659 59.8494 44.954 59.8494 45.186C59.8494 45.4181 59.6616 45.6061 59.4293 45.6061Z" fill="#6BC7E5"/>
<path d="M59.4293 50.3702H53.5703C53.3382 50.3702 53.1504 50.1818 53.1504 49.9495C53.1504 49.7181 53.3382 49.5296 53.5703 49.5296H59.4293C59.6616 49.5296 59.8494 49.7181 59.8494 49.9495C59.8494 50.1818 59.6616 50.3702 59.4293 50.3702Z" fill="#03ABA9"/>
<path d="M59.4293 48.6826H53.5703C53.3382 48.6826 53.1504 48.4947 53.1504 48.2627C53.1504 48.0304 53.3382 47.842 53.5703 47.842H59.4293C59.6616 47.842 59.8494 48.0304 59.8494 48.2627C59.8494 48.4947 59.6616 48.6826 59.4293 48.6826Z" fill="#03ABA9"/>
<path d="M59.4293 46.9955H53.5703C53.3382 46.9955 53.1504 46.8077 53.1504 46.5754C53.1504 46.3433 53.3382 46.1555 53.5703 46.1555H59.4293C59.6616 46.1555 59.8494 46.3433 59.8494 46.5754C59.8494 46.8077 59.6616 46.9955 59.4293 46.9955Z" fill="#03ABA9"/>
<path d="M59.4293 45.3085H53.5703C53.3382 45.3085 53.1504 45.1201 53.1504 44.8881C53.1504 44.6564 53.3382 44.468 53.5703 44.468H59.4293C59.6616 44.468 59.8494 44.6564 59.8494 44.8881C59.8494 45.1201 59.6616 45.3085 59.4293 45.3085Z" fill="#03ABA9"/>
<path d="M58.642 41.7721C57.4575 42.9567 55.5363 42.9567 54.3518 41.7721C53.1666 40.587 53.1666 38.6664 54.3518 37.4818C55.5363 36.2967 57.4575 36.2967 58.642 37.4818C59.8266 38.6664 59.8266 40.587 58.642 41.7721Z" fill="#6BC6D8"/>
<path d="M58.642 37.4818C57.4575 36.2967 55.5363 36.2967 54.3518 37.4818C53.1666 38.6664 53.1666 40.587 54.3518 41.7721C55.5363 42.9567 57.4575 42.9567 58.642 41.7721C59.8266 40.587 59.8266 38.6664 58.642 37.4818ZM58.0932 41.2233C57.2116 42.1053 55.782 42.1053 54.9 41.2233C54.0186 40.3417 54.0186 38.912 54.9 38.03C55.782 37.1486 57.2116 37.1486 58.0932 38.03C58.9752 38.912 58.9752 40.3417 58.0932 41.2233Z" fill="#03ABA9"/>
<path d="M55.3437 40.7855C55.1485 40.5897 55.1485 40.273 55.3437 40.0777L56.9533 38.4681C57.1485 38.2729 57.4653 38.2729 57.6611 38.4681C57.8563 38.6634 57.8563 38.9807 57.6611 39.1759L56.0515 40.7855C55.8562 40.9808 55.5389 40.9808 55.3437 40.7855Z" fill="#6BC7DE"/>
<path d="M58.642 33.9228C57.4575 35.1079 55.5363 35.1079 54.3518 33.9228C53.1666 32.7382 53.1666 30.8177 54.3518 29.6325C55.5363 28.448 57.4575 28.448 58.642 29.6325C59.8266 30.8177 59.8266 32.7382 58.642 33.9228Z" fill="#6BC6D8"/>
<path d="M58.642 29.6325C57.4575 28.448 55.5363 28.448 54.3518 29.6325C53.1666 30.8177 53.1666 32.7382 54.3518 33.9228C55.5363 35.1079 57.4575 35.1079 58.642 33.9228C59.8266 32.7382 59.8266 30.8177 58.642 29.6325ZM58.0932 33.3746C57.2116 34.256 55.782 34.256 54.9 33.3746C54.0186 32.4926 54.0186 31.0629 54.9 30.1813C55.782 29.2993 57.2116 29.2993 58.0932 30.1813C58.9752 31.0629 58.9752 32.4926 58.0932 33.3746Z" fill="#03ABA9"/>
<path d="M55.3437 32.9366C55.1485 32.7414 55.1485 32.424 55.3437 32.2288L56.9533 30.6192C57.1485 30.424 57.4653 30.424 57.6611 30.6192C57.8563 30.815 57.8563 31.1318 57.6611 31.3276L56.0515 32.9366C55.8562 33.1325 55.5389 33.1325 55.3437 32.9366Z" fill="#6BC7DE"/>
<path d="M25.6025 61.7268C24.4792 61.7268 23.5684 60.8164 23.5684 59.6927V58.2198H27.6371V59.6927C27.6371 60.8164 26.7263 61.7268 25.6025 61.7268Z" fill="#3A6CB4"/>
<path d="M53.3941 61.7268C52.2704 61.7268 51.3594 60.8164 51.3594 59.6927V58.2198H55.4288V59.6927C55.4288 60.8164 54.518 61.7268 53.3941 61.7268Z" fill="#3A6CB4"/>
<path d="M34.4683 18.9521C31.6363 18.9521 29.3398 21.2479 29.3398 24.0807H39.5969C39.5969 21.2479 37.3005 18.9521 34.4683 18.9521Z" fill="#6BC7DE"/>
<path d="M29.3398 24.0807H31.3245C31.3245 21.2479 32.7321 18.9521 34.4683 18.9521C31.6363 18.9521 29.3398 21.2479 29.3398 24.0807Z" fill="#67C3C1"/>
<path d="M34.4668 18.9521C36.2032 18.9521 37.6107 21.2479 37.6107 24.0807H39.5954C39.5954 21.2479 37.299 18.9521 34.4668 18.9521Z" fill="#67C3C1"/>
<path d="M29.5323 22.6913C29.4079 23.1328 29.3398 23.5987 29.3398 24.0807H39.5969C39.5969 23.5987 39.5288 23.1328 39.405 22.6913H29.5323Z" fill="#67C3C1"/>
</svg>
