<svg width="50" height="50" viewBox="0 0 50 50" fill="none" xmlns="http://www.w3.org/2000/svg">
<path d="M50 25.0001C50 38.8072 38.807 50 25.0002 50C11.1931 50 0 38.8072 0 25.0001C0 11.1928 11.1931 0 25.0002 0C38.807 0 50 11.1928 50 25.0001Z" fill="#19294F"/>
<path d="M46.6287 25.0003C46.6287 36.9456 36.9452 46.6289 25.0002 46.6289C13.055 46.6289 3.37134 36.9456 3.37134 25.0003C3.37134 13.0549 13.055 3.37115 25.0002 3.37115C36.9452 3.37115 46.6287 13.0549 46.6287 25.0003Z" fill="#19294F"/>
<path d="M25.13 14.8358C18.8328 14.8358 13.7095 19.9591 13.7095 26.2563C13.7095 32.5536 18.8328 37.6768 25.13 37.6768C31.4272 37.6768 36.5504 32.5536 36.5504 26.2563C36.5504 19.9591 31.4272 14.8358 25.13 14.8358ZM18.03 32.7641C18.5426 32.4989 19.112 32.2644 19.7255 32.0647C19.9561 32.7949 20.2313 33.4799 20.5492 34.1053C20.7084 34.4178 20.8761 34.711 21.0513 34.9851C19.9028 34.4462 18.8777 33.6879 18.03 32.7641ZM32.2296 19.7486C31.717 20.0141 31.1476 20.2483 30.5341 20.448C30.3039 19.7177 30.0284 19.0326 29.7105 18.4072C29.5517 18.0947 29.3839 17.8015 29.2086 17.5274C30.3566 18.0663 31.3819 18.8246 32.2296 19.7486ZM25.13 35.8922C24.0685 35.8922 22.9787 34.9463 22.1399 33.2964C21.8779 32.7813 21.6488 32.2176 21.454 31.6155C22.6082 31.3849 23.8551 31.2613 25.13 31.2613C26.4046 31.2613 27.6514 31.3849 28.8059 31.6155C28.6112 32.2176 28.3818 32.7813 28.1198 33.2964C27.281 34.9463 26.1912 35.8922 25.13 35.8922ZM25.13 16.6204C26.1912 16.6204 27.281 17.5666 28.1198 19.2162C28.3818 19.7313 28.6112 20.2949 28.8059 20.897C27.6514 21.1276 26.4046 21.2516 25.13 21.2516C23.8551 21.2516 22.6082 21.1276 21.454 20.897C21.6488 20.2949 21.8779 19.7313 22.1399 19.2162C22.9787 17.5666 24.0685 16.6204 25.13 16.6204ZM29.2513 29.8809C28.7532 29.7789 28.2398 29.6951 27.7147 29.6312C27.7096 29.6305 27.7032 29.6301 27.6984 29.63C27.5993 29.6186 27.4998 29.6065 27.3999 29.5958C27.3911 29.5951 27.3816 29.5945 27.3726 29.5932C27.2761 29.5831 27.1794 29.5736 27.0824 29.5646C27.0736 29.5638 27.0652 29.5634 27.0568 29.562C26.9591 29.5532 26.8611 29.5451 26.7627 29.538C26.7421 29.5367 26.7217 29.5354 26.7012 29.5342C26.6146 29.5278 26.5277 29.5215 26.4404 29.5165C26.4149 29.5153 26.3897 29.514 26.3643 29.5128C26.2816 29.5077 26.1986 29.5039 26.1157 29.4995C26.0891 29.4983 26.0621 29.4982 26.0356 29.4969C25.9536 29.4944 25.8714 29.4906 25.7892 29.488C25.7406 29.4868 25.6918 29.4855 25.6429 29.4842C25.5822 29.483 25.5215 29.4804 25.4605 29.4804C25.3506 29.4792 25.2403 29.4779 25.13 29.4779C25.0193 29.4779 24.9094 29.4787 24.7995 29.4804C24.7384 29.4811 24.6778 29.483 24.6171 29.4842C24.5681 29.4853 24.5192 29.4855 24.4708 29.488C24.3882 29.4906 24.3064 29.4944 24.224 29.4969C24.1975 29.498 24.1708 29.4982 24.1442 29.4995C24.0609 29.5033 23.9783 29.5083 23.8953 29.5128C23.8701 29.514 23.8447 29.5153 23.8196 29.5165C23.7315 29.5216 23.6442 29.528 23.5566 29.5342C23.5369 29.5354 23.5171 29.5367 23.4973 29.538C23.3992 29.5456 23.3023 29.5534 23.2049 29.562C23.1961 29.5627 23.1866 29.5633 23.1772 29.5646C23.0799 29.5735 22.9826 29.5832 22.8856 29.5932C22.8768 29.5944 22.8683 29.5945 22.86 29.5958C22.7606 29.6059 22.6618 29.6177 22.5629 29.6296C22.5566 29.6306 22.5516 29.6309 22.545 29.6321C22.4412 29.6451 22.3374 29.6584 22.2342 29.6727C22.2338 29.6727 22.2336 29.6727 22.2336 29.6727C21.8165 29.7302 21.4078 29.7999 21.0086 29.8818C20.8384 29.0146 20.7305 28.0967 20.689 27.1495H29.571C29.5293 28.0967 29.4213 29.0146 29.2513 29.8818V29.8809ZM20.689 25.364C20.7305 24.4171 20.8384 23.4989 21.0086 22.6321C21.5069 22.7341 22.0202 22.8174 22.545 22.8814C22.5513 22.882 22.5564 22.8824 22.5619 22.8826C22.6611 22.8953 22.7602 22.906 22.86 22.9167C22.8613 22.9167 22.8638 22.9171 22.8664 22.9171C22.9698 22.9285 23.0735 22.9383 23.1777 22.948C23.1866 22.9488 23.1965 22.9493 23.2055 22.9506C23.3028 22.9594 23.3998 22.9674 23.4978 22.975C23.5176 22.9763 23.5374 22.9776 23.5572 22.9788C23.6447 22.9852 23.732 22.9915 23.8201 22.9965C23.8452 22.9977 23.8707 22.999 23.8959 23.0003C23.9789 23.0053 24.0614 23.0091 24.1448 23.0136C24.1714 23.0146 24.198 23.0148 24.2244 23.0161C24.3068 23.0199 24.3887 23.0224 24.4713 23.025C24.5197 23.0262 24.5687 23.0275 24.6176 23.0288C24.6783 23.03 24.739 23.0313 24.8001 23.0326C24.9099 23.0338 25.0198 23.0351 25.1304 23.0351C25.2408 23.0351 25.351 23.0343 25.4609 23.0326C25.522 23.0318 25.5828 23.03 25.6435 23.0288C25.6924 23.0276 25.7411 23.0262 25.7896 23.025C25.8719 23.0224 25.9542 23.0186 26.0362 23.0161C26.0626 23.0151 26.0896 23.0148 26.1162 23.0136C26.1991 23.0098 26.2821 23.0047 26.3647 23.0003C26.3902 22.999 26.4154 22.9977 26.4409 22.9965C26.5282 22.9914 26.6152 22.9851 26.7017 22.9788C26.7223 22.9776 26.7426 22.9763 26.7631 22.975C26.8616 22.9674 26.9596 22.9592 27.0573 22.9506C27.0662 22.9498 27.0743 22.9493 27.0829 22.948C27.1863 22.9392 27.2897 22.9283 27.3925 22.9175C27.3951 22.9171 27.3976 22.9171 27.4001 22.9167C27.5002 22.9066 27.6001 22.8944 27.7 22.8826C27.705 22.8819 27.7101 22.8815 27.7147 22.8814C28.2399 22.8174 28.7532 22.7341 29.2514 22.6321C29.4213 23.4989 29.5295 24.4171 29.5712 25.364H20.6891H20.689ZM21.0513 17.5274C20.8761 17.8015 20.7084 18.0947 20.5492 18.4072C20.2313 19.0326 19.9561 19.7177 19.7255 20.448C19.112 20.2483 18.5426 20.0141 18.03 19.7486C18.8777 18.8246 19.9028 18.0663 21.0513 17.5274ZM16.9379 21.1883C16.9566 21.1985 16.9756 21.2091 16.9942 21.2196C17.0087 21.2272 17.0226 21.2353 17.0371 21.2433C17.1053 21.2803 17.1742 21.3166 17.2443 21.3526C17.2676 21.3652 17.2915 21.3765 17.3152 21.3884C17.3629 21.4125 17.4111 21.4366 17.4599 21.4603C17.4886 21.4746 17.5174 21.4883 17.5464 21.5024C17.5914 21.5239 17.6366 21.5451 17.6822 21.5662C17.712 21.5799 17.7418 21.5938 17.772 21.6075C17.8213 21.6298 17.8716 21.6518 17.9215 21.6737C17.9473 21.6851 17.9728 21.6966 17.9987 21.7078C18.0715 21.7391 18.1453 21.7699 18.2196 21.8C18.2473 21.8114 18.2753 21.8223 18.3033 21.8335C18.3533 21.8536 18.4035 21.8734 18.4541 21.8932C18.4879 21.9061 18.522 21.919 18.5561 21.9319C18.6017 21.9492 18.6478 21.9664 18.6942 21.9833C18.7294 21.996 18.7645 22.0087 18.8001 22.0214C18.8482 22.0387 18.8964 22.0555 18.9448 22.072C18.9782 22.0834 19.0113 22.0954 19.045 22.1065C19.122 22.1324 19.1991 22.1579 19.2771 22.1826C19.2782 22.183 19.2784 22.1834 19.2796 22.1838C19.0752 23.1949 18.9473 24.264 18.9025 25.364H15.5355C15.6755 23.843 16.1709 22.423 16.9375 21.1883H16.9379ZM18.9029 27.1487C18.9477 28.2485 19.0756 29.318 19.28 30.3289C19.2013 30.354 19.123 30.3798 19.045 30.4061C19.0113 30.4175 18.9782 30.4291 18.9448 30.4405C18.8964 30.4571 18.8482 30.474 18.8001 30.4912C18.7645 30.5039 18.7294 30.5167 18.6942 30.5296C18.6478 30.5465 18.6017 30.5634 18.5561 30.5807C18.522 30.5936 18.4879 30.6065 18.4541 30.6195C18.4035 30.6392 18.3533 30.659 18.303 30.679C18.2753 30.6904 18.2473 30.701 18.2196 30.7125C18.1453 30.7426 18.0715 30.7736 17.9983 30.8051C17.9728 30.8152 17.9476 30.8274 17.9221 30.8386C17.8718 30.8605 17.8216 30.8828 17.7716 30.9054C17.7418 30.919 17.7124 30.9327 17.6826 30.9463C17.637 30.9676 17.5914 30.9887 17.546 31.0107C17.5174 31.0243 17.4883 31.0383 17.4599 31.0524C17.4111 31.076 17.3629 31.1001 17.3152 31.1242C17.2915 31.1369 17.2676 31.1479 17.2443 31.1601C17.1742 31.1959 17.1053 31.2323 17.0371 31.2693C17.0226 31.2769 17.0087 31.285 16.9942 31.293C16.9756 31.3032 16.9566 31.3138 16.9379 31.3242C16.1713 30.0896 15.6759 28.6699 15.5359 27.1487H18.9029ZM29.2086 34.9851C29.3839 34.711 29.5517 34.4178 29.7105 34.1053C30.0284 33.4799 30.3039 32.7949 30.5341 32.0647C31.1476 32.2644 31.717 32.4989 32.2296 32.7641C31.3819 33.6879 30.3566 34.4462 29.2086 34.9851ZM33.322 31.3242C33.303 31.3141 33.2844 31.3034 33.2653 31.293C33.2509 31.2854 33.2369 31.2772 33.2225 31.2693C33.1547 31.2323 33.0852 31.1959 33.0157 31.1601C32.9922 31.1474 32.9686 31.136 32.9449 31.1242C32.8967 31.1001 32.8486 31.076 32.8002 31.0524C32.7714 31.0383 32.7426 31.0243 32.7139 31.0107C32.6686 30.9887 32.623 30.9676 32.577 30.9463C32.5476 30.9327 32.5181 30.919 32.4882 30.9054C32.4383 30.8828 32.3881 30.8605 32.3375 30.8386C32.3119 30.8272 32.2872 30.8159 32.2613 30.8051C32.1883 30.7736 32.1143 30.7426 32.04 30.7125C32.0126 30.7011 31.9846 30.6902 31.957 30.679C31.9067 30.6594 31.8564 30.6392 31.8057 30.6195C31.772 30.6065 31.7379 30.5936 31.7037 30.5807C31.6581 30.5634 31.6119 30.5465 31.5659 30.5292C31.5306 30.5166 31.495 30.5038 31.4599 30.4912C31.4117 30.474 31.3632 30.4571 31.3146 30.4405C31.2813 30.4291 31.2482 30.4172 31.2148 30.4061C31.1369 30.3798 31.0585 30.354 30.9796 30.3289C31.1842 29.318 31.3119 28.2485 31.3571 27.1487H34.7241C34.5837 28.6699 34.0887 30.0896 33.322 31.3242ZM31.3571 25.364C31.3119 24.264 31.1842 23.1949 30.9796 22.1838C30.9806 22.1834 30.9821 22.183 30.9821 22.1826C31.0601 22.1579 31.1374 22.1324 31.2142 22.1065C31.2476 22.0951 31.2807 22.0835 31.314 22.072C31.3626 22.0555 31.4111 22.0387 31.4593 22.0214C31.4944 22.0087 31.5299 21.9958 31.5652 21.9833C31.6112 21.9664 31.6575 21.9492 31.7031 21.9319C31.7373 21.919 31.7714 21.9061 31.8051 21.8932C31.8558 21.8734 31.9061 21.8536 31.9564 21.8335C31.984 21.8221 32.0116 21.8116 32.0394 21.8004C32.1137 21.7699 32.1873 21.7391 32.2607 21.7078C32.2865 21.6964 32.312 21.6851 32.3375 21.6741C32.3878 21.6518 32.4377 21.6298 32.4872 21.6071C32.5175 21.5938 32.5469 21.5799 32.5767 21.5662C32.6223 21.5451 32.6676 21.5239 32.7129 21.5024C32.742 21.4883 32.7707 21.4742 32.7995 21.4603C32.8483 21.4366 32.896 21.4125 32.9442 21.3884C32.9679 21.377 32.9916 21.3647 33.0151 21.3526C33.0846 21.3166 33.1541 21.2803 33.2219 21.2433C33.2363 21.2357 33.2503 21.2275 33.2647 21.2196C33.2837 21.2095 33.3023 21.1987 33.3213 21.1883C34.088 22.423 34.5831 23.843 34.7235 25.364H31.3565H31.3571Z" fill="#19294F"/>
<path d="M37.1896 26.0523L37.4383 26.3662L40.2936 29.9744L42.5788 27.0869L43.3974 26.0523H42.5183H41.4023C41.3502 21.7815 39.664 17.7736 36.6379 14.7479C33.564 11.6739 29.4771 9.98132 25.1302 9.98132C20.7828 9.98132 16.696 11.6739 13.6222 14.7479C10.5483 17.8218 8.85565 21.909 8.85565 26.256C8.85565 30.6034 10.5483 34.6903 13.6222 37.7642C16.696 40.8381 20.7828 42.5308 25.1302 42.5308C29.4771 42.5308 33.564 40.8381 36.6379 37.7642C38.61 35.7924 40.012 33.4031 40.7653 30.7962H39.6018H38.4294C36.5374 36.3237 31.2906 40.3086 25.1302 40.3086C17.3818 40.3086 11.0778 34.0046 11.0778 26.256C11.0778 18.5075 17.3818 12.2035 25.1302 12.2035C32.8104 12.2035 39.0705 18.3976 39.1802 26.0523H38.069H37.1896Z" fill="#19294F"/>
<path d="M25.13 36.4209C18.8328 36.4209 13.7095 31.2976 13.7095 25.0004C13.7095 18.7031 18.8328 13.5797 25.13 13.5797C31.4272 13.5797 36.5504 18.7031 36.5504 25.0004C36.5504 31.2976 31.4272 36.4209 25.13 36.4209ZM25.13 15.3644C19.8167 15.3644 15.4942 19.687 15.4942 25.0004C15.4942 30.3137 19.8167 34.6362 25.13 34.6362C30.4433 34.6362 34.7658 30.3137 34.7658 25.0004C34.7658 19.687 30.4433 15.3644 25.13 15.3644Z" fill="#F3FAFE"/>
<path d="M25.13 14.472C19.3152 14.472 14.6019 19.1857 14.6019 25.0002C14.6019 30.8146 19.3152 35.5283 25.13 35.5283C30.9444 35.5283 35.6581 30.8146 35.6581 25.0002C35.6581 19.1857 30.9444 14.472 25.13 14.472ZM25.13 34.636C19.8167 34.636 15.4941 30.3135 15.4941 25.0002C15.4941 19.6868 19.8167 15.3643 25.13 15.3643C30.4433 15.3643 34.7658 19.6868 34.7658 25.0002C34.7658 30.3135 30.4433 34.636 25.13 34.636Z" fill="#DDDEDE"/>
<path d="M25.1299 36.4209C23.3471 36.4209 21.7202 35.1524 20.5491 32.8491C19.4758 30.7378 18.8844 27.9504 18.8844 25.0004C18.8844 22.0503 19.4758 19.2628 20.5491 17.1512C21.7202 14.8483 23.3471 13.5797 25.1299 13.5797C26.9128 13.5797 28.5393 14.8483 29.7104 17.1512C30.7841 19.2628 31.3754 22.0503 31.3754 25.0004C31.3754 27.9504 30.7841 30.7378 29.7104 32.8491C28.5393 35.1524 26.9128 36.4209 25.1299 36.4209ZM25.1299 15.3644C24.0684 15.3644 22.9786 16.3103 22.1398 17.9602C21.1914 19.8256 20.6687 22.3259 20.6687 25.0004C20.6687 27.6747 21.1914 30.175 22.1398 32.0405C22.9786 33.6901 24.0684 34.6362 25.1299 34.6362C26.1911 34.6362 27.2809 33.6901 28.1197 32.0405C29.0684 30.175 29.5907 27.6747 29.5907 25.0004C29.5907 22.3259 29.0684 19.8256 28.1197 17.9602C27.2809 16.3103 26.1911 15.3644 25.1299 15.3644Z" fill="#F3FAFE"/>
<path d="M25.1299 14.472C22.1731 14.472 19.7764 19.1857 19.7764 25.0002C19.7764 30.8146 22.1731 35.5283 25.1299 35.5283C28.0864 35.5283 30.4831 30.8146 30.4831 25.0002C30.4831 19.1857 28.0864 14.472 25.1299 14.472ZM25.1299 34.636C24.0684 34.636 22.9786 33.6899 22.1398 32.0403C21.1914 30.1749 20.6687 27.6745 20.6687 25.0002C20.6687 22.3258 21.1914 19.8254 22.1398 17.96C22.9786 16.3102 24.0684 15.3643 25.1299 15.3643C26.1911 15.3643 27.281 16.3102 28.1198 17.96C29.0684 19.8254 29.5908 22.3258 29.5908 25.0002C29.5908 27.6745 29.0684 30.1749 28.1198 32.0403C27.281 33.6899 26.1911 34.636 25.1299 34.636Z" fill="#DDDEDE"/>
<path d="M25.1298 21.7793C21.5911 21.7793 18.3265 20.934 16.1722 19.4608L17.1799 17.988C19.0169 19.2446 21.9888 19.9946 25.1298 19.9946C28.2706 19.9946 31.2428 19.2446 33.0799 17.988L34.0871 19.4608C31.9333 20.934 28.6683 21.7793 25.1298 21.7793Z" fill="#F3FAFE"/>
<path d="M30.9794 20.9272C32.1605 20.5507 33.2148 20.0575 34.087 19.4609L33.5834 18.7245C32.8168 19.2486 31.8656 19.699 30.7793 20.0511C30.8525 20.3375 30.9193 20.6298 30.9794 20.9272Z" fill="#DDDEDE"/>
<path d="M19.48 20.0511C18.3941 19.699 17.4428 19.2486 16.6763 18.7245L16.1722 19.4609C17.0444 20.0575 18.0992 20.5507 19.2799 20.9272C19.3403 20.6298 19.4068 20.3375 19.48 20.0511Z" fill="#DDDEDE"/>
<path d="M25.1299 20.887C23.4043 20.887 21.7755 20.6757 20.3383 20.3014C20.266 20.5855 20.2004 20.8769 20.1411 21.1747C21.6668 21.5688 23.364 21.7793 25.1299 21.7793C26.8956 21.7793 28.5932 21.5688 30.1188 21.1747C30.0595 20.8769 29.9935 20.5855 29.9213 20.3014C28.4839 20.6757 26.8557 20.887 25.1299 20.887Z" fill="#DDDEDE"/>
<path d="M33.0799 32.0117C31.2428 30.7551 28.2706 30.0047 25.1298 30.0047C21.9888 30.0047 19.0169 30.7551 17.1799 32.0117L16.1722 30.5389C18.3265 29.0653 21.5911 28.2204 25.1298 28.2204C28.6683 28.2204 31.9333 29.0653 34.0871 30.5389L33.0799 32.0117Z" fill="#F3FAFE"/>
<path d="M30.9794 29.0726C30.9193 29.37 30.8525 29.6621 30.7793 29.9488C31.8656 30.3009 32.8168 30.7509 33.5834 31.2754L34.087 30.539C33.2148 29.9423 32.1605 29.4487 30.9794 29.0726Z" fill="#DDDEDE"/>
<path d="M25.1299 28.2203C23.364 28.2203 21.6668 28.4308 20.1411 28.825C20.2004 29.1228 20.266 29.4141 20.3383 29.6982C21.7755 29.3239 23.4043 29.1126 25.1299 29.1126C26.8557 29.1126 28.4839 29.3239 29.9213 29.6982C29.9935 29.4141 30.0595 29.1228 30.1188 28.825C28.5932 28.4308 26.8956 28.2203 25.1299 28.2203Z" fill="#DDDEDE"/>
<path d="M19.2799 29.0726C18.0992 29.4487 17.0444 29.9423 16.1722 30.539L16.6763 31.2754C17.4428 30.7509 18.3941 30.3009 19.48 29.9488C19.4068 29.6621 19.3403 29.37 19.2799 29.0726Z" fill="#DDDEDE"/>
<path d="M26.0221 35.5283H24.2375V14.472H26.0221V35.5283Z" fill="#F3FAFE"/>
<path d="M35.6581 25.8926H14.6019V24.1079H35.6581V25.8926Z" fill="#F3FAFE"/>
<path d="M38.4294 29.5405C36.5374 35.0678 31.2906 39.0527 25.1302 39.0527C17.3818 39.0527 11.0778 32.7487 11.0778 25.0003C11.0778 17.2517 17.3818 10.9476 25.1302 10.9476C32.8104 10.9476 39.0705 17.1414 39.1802 24.7965H41.4023C41.3502 20.5253 39.664 16.5178 36.6383 13.4921C33.564 10.4182 29.4771 8.72546 25.1302 8.72546C20.7828 8.72546 16.696 10.4182 13.6222 13.4921C10.5483 16.5659 8.85565 20.6529 8.85565 25.0003C8.85565 29.3472 10.5483 33.4344 13.6222 36.5083C16.696 39.5822 20.7828 41.2749 25.1302 41.2749C29.4771 41.2749 33.564 39.5822 36.6383 36.5083C38.61 34.5362 40.0121 32.1474 40.7653 29.5405H38.4294Z" fill="#6BC7DE"/>
<path d="M43.3968 24.7962L40.293 28.7183L37.189 24.7962H43.3968Z" fill="#6BC7DE"/>
<path d="M40.293 27.6069L38.0684 24.7962H37.189L40.293 28.7183L43.3968 24.7962H42.5175L40.293 27.6069Z" fill="#AAD1C6"/>
<path d="M38.4294 29.5402C36.5374 35.0675 31.2906 39.0524 25.1302 39.0524C17.3818 39.0524 11.0778 32.7484 11.0778 24.9999C11.0778 17.2513 17.3818 10.9473 25.1302 10.9473C32.8104 10.9473 39.0705 17.1411 39.1802 24.7961H40.2912C40.182 16.5153 33.4366 9.83612 25.1302 9.83612C16.7557 9.83612 9.96667 16.6252 9.96667 24.9999C9.96667 33.3746 16.7557 40.1636 25.1302 40.1636C31.9232 40.1636 37.6721 35.6966 39.6019 29.5402H38.4294Z" fill="#AAD1C6"/>
<path d="M43.1486 25.1104L43.3968 24.7963H37.189L37.4377 25.1104H43.1486Z" fill="#72C8D7"/>
</svg>
