<svg width="34" height="28" viewBox="0 0 34 28" fill="none" xmlns="http://www.w3.org/2000/svg">
<path d="M3.15167 4.4865C5.49001 1.9515 9.02834 0.666504 13.6667 0.666504H15.3333V5.36484L13.9933 5.63317C11.71 6.08984 10.1217 6.98817 9.27167 8.3065C8.82816 9.01672 8.57662 9.82991 8.54167 10.6665H13.6667C14.1087 10.6665 14.5326 10.8421 14.8452 11.1547C15.1577 11.4672 15.3333 11.8911 15.3333 12.3332V23.9998C15.3333 25.8382 13.8383 27.3332 12 27.3332H2.00001C1.55798 27.3332 1.13406 27.1576 0.821496 26.845C0.508935 26.5324 0.33334 26.1085 0.33334 25.6665V17.3332L0.33834 12.4682C0.32334 12.2832 0.00667381 7.89984 3.15167 4.4865ZM30.3333 27.3332H20.3333C19.8913 27.3332 19.4674 27.1576 19.1548 26.845C18.8423 26.5324 18.6667 26.1085 18.6667 25.6665V17.3332L18.6717 12.4682C18.6567 12.2832 18.34 7.89984 21.485 4.4865C23.8233 1.9515 27.3617 0.666504 32 0.666504H33.6667V5.36484L32.3267 5.63317C30.0433 6.08984 28.455 6.98817 27.605 8.3065C27.1615 9.01672 26.91 9.82991 26.875 10.6665H32C32.442 10.6665 32.866 10.8421 33.1785 11.1547C33.4911 11.4672 33.6667 11.8911 33.6667 12.3332V23.9998C33.6667 25.8382 32.1717 27.3332 30.3333 27.3332Z" fill="#00B8B8"/>
</svg>
