<svg width="50" height="50" viewBox="0 0 50 50" fill="none" xmlns="http://www.w3.org/2000/svg">
<path d="M46.6079 6.51797C45.4349 5.34769 43.8456 4.69046 42.1886 4.69046C40.5316 4.69046 38.9423 5.34769 37.7692 6.51797V6.51817C36.5989 7.69121 35.9416 9.28058 35.9416 10.9376C35.9416 12.5946 36.5989 14.184 37.7692 15.357C37.8265 15.4143 37.8855 15.469 37.9444 15.5236L32.7437 25.1824C31.1582 24.7944 29.484 25.0395 28.0763 25.8656L24.1355 21.9246C24.9079 20.6142 25.1759 19.067 24.8893 17.573C24.6026 16.0791 23.7811 14.741 22.5785 13.8095C21.3759 12.8779 19.8749 12.4169 18.3567 12.5128C16.8386 12.6087 15.4075 13.255 14.3317 14.3305V14.3307C13.1614 15.5037 12.5041 17.0931 12.5041 18.7501C12.5041 20.4071 13.1614 21.9965 14.3317 23.1695C14.389 23.2268 14.448 23.2815 14.5069 23.3361L9.30615 32.9949C8.26216 32.7382 7.1696 32.7549 6.13397 33.0436C5.09835 33.3323 4.15466 33.8832 3.39405 34.643V34.6432C2.51997 35.5173 1.92472 36.6309 1.68357 37.8433C1.44241 39.0557 1.56619 40.3123 2.03924 41.4544C2.51229 42.5964 3.31336 43.5725 4.34117 44.2593C5.36898 44.946 6.57735 45.3126 7.81348 45.3126C9.04961 45.3126 10.258 44.946 11.2858 44.2593C12.3136 43.5725 13.1147 42.5964 13.5877 41.4544C14.0608 40.3123 14.1845 39.0557 13.9434 37.8433C13.7022 36.6309 13.107 35.5173 12.2329 34.6432C12.1757 34.5858 12.1167 34.5311 12.0577 34.4764L17.2587 24.8176C18.844 25.2048 20.5179 24.9598 21.9257 24.1344L25.8667 28.0754C25.2729 29.0824 24.9734 30.2358 25.0023 31.4045C25.0311 32.5732 25.3872 33.7104 26.0299 34.6868C26.6727 35.6633 27.5765 36.44 28.6385 36.9286C29.7006 37.4171 30.8784 37.5981 32.0381 37.4508C33.1979 37.3035 34.2931 36.834 35.1993 36.0954C36.1055 35.3569 36.7865 34.379 37.1648 33.2729C37.5431 32.1667 37.6036 30.9767 37.3395 29.8378C37.0753 28.699 36.4971 27.6571 35.6704 26.8305C35.6132 26.7733 35.5542 26.7186 35.4952 26.6639L40.6962 17.0051C41.1847 17.1242 41.6857 17.1844 42.1886 17.1844C43.4247 17.1852 44.6333 16.8192 45.6613 16.1328C46.6894 15.4464 47.4907 14.4705 47.9639 13.3285C48.437 12.1865 48.5608 10.9298 48.3194 9.71747C48.078 8.50514 47.4824 7.39166 46.6079 6.51797ZM10.0233 41.2721C9.7338 41.5652 9.38917 41.7981 9.00928 41.9575C8.62938 42.1169 8.22172 42.1996 7.80975 42.2008C7.39777 42.2021 6.98961 42.1218 6.60876 41.9648C6.2279 41.8077 5.88186 41.5769 5.59055 41.2855C5.29924 40.9942 5.0684 40.6482 4.91132 40.2673C4.75425 39.8865 4.67402 39.4783 4.67527 39.0663C4.67652 38.6544 4.75922 38.2467 4.91861 37.8668C5.078 37.4869 5.31093 37.1423 5.60401 36.8527C6.19007 36.2667 6.98494 35.9375 7.81374 35.9375C8.22413 35.9375 8.63049 36.0184 9.00963 36.1754C9.38877 36.3325 9.73326 36.5627 10.0234 36.8528C10.3136 37.143 10.5438 37.4875 10.7008 37.8667C10.8579 38.2458 10.9387 38.6522 10.9387 39.0626C10.9387 39.473 10.8578 39.8793 10.7008 40.2585C10.5437 40.6376 10.3135 40.9821 10.0233 41.2723V41.2721ZM16.5415 20.9598C15.9564 20.3732 15.6278 19.5785 15.6278 18.75C15.6278 17.9215 15.9564 17.1268 16.5415 16.5402C16.9786 16.1032 17.5354 15.8057 18.1416 15.6851C18.7477 15.5646 19.3761 15.6265 19.947 15.863C20.518 16.0996 21.0061 16.5001 21.3494 17.014C21.6928 17.5279 21.8761 18.1321 21.8761 18.7501C21.8761 19.3682 21.6928 19.9723 21.3494 20.4862C21.0061 21.0001 20.518 21.4007 19.947 21.6372C19.3761 21.8737 18.7477 21.9356 18.1416 21.8151C17.5354 21.6945 16.9786 21.397 16.5415 20.96V20.9598ZM33.4608 33.4598C32.8748 34.0459 32.08 34.3752 31.2512 34.3753C30.4223 34.3754 29.6274 34.0462 29.0413 33.4602C28.4552 32.8742 28.1259 32.0793 28.1258 31.2505C28.1257 30.4217 28.4549 29.6268 29.0409 29.0406L29.0413 29.0402C29.6274 28.4542 30.4222 28.1249 31.251 28.1249C32.0798 28.1249 32.8747 28.4541 33.4607 29.0401C34.0468 29.6262 34.3761 30.421 34.3761 31.2498C34.3761 32.0786 34.0469 32.8735 33.4608 33.4596V33.4598ZM44.3983 13.1473C44.1082 13.4375 43.7636 13.6676 43.3845 13.8247C43.0054 13.9817 42.599 14.0625 42.1886 14.0625C41.7782 14.0625 41.3719 13.9817 40.9927 13.8246C40.6136 13.6676 40.2691 13.4374 39.9789 13.1472C39.6887 12.857 39.4586 12.5125 39.3015 12.1333C39.1445 11.7542 39.0637 11.3478 39.0637 10.9374C39.0637 10.5271 39.1445 10.1207 39.3016 9.74155C39.4586 9.36241 39.6888 9.01792 39.979 8.72774C40.2692 8.43756 40.6137 8.20738 40.9928 8.05035C41.372 7.89331 41.7784 7.81249 42.1887 7.81249C42.5991 7.8125 43.0055 7.89334 43.3846 8.0504C43.7638 8.20745 44.1083 8.43765 44.3984 8.72784C44.6886 9.01803 44.9188 9.36253 45.0758 9.74168C45.2329 10.1208 45.3137 10.5272 45.3137 10.9376C45.3137 11.348 45.2328 11.7543 45.0758 12.1335C44.9187 12.5126 44.6885 12.8571 44.3983 13.1473Z" fill="#142850"/>
</svg>
