<svg width="24" height="24" viewBox="0 0 24 24" fill="none" xmlns="http://www.w3.org/2000/svg">
<path fill-rule="evenodd" clip-rule="evenodd" d="M24 12.0002C24 18.6276 18.6278 24 12.0003 24C5.37273 24 0 18.6276 0 12.0002C0 5.37283 5.37273 0 12.0003 0C18.6278 0 24 5.37283 24 12.0002ZM9.57511 18.9114C15.4367 18.9114 18.6418 14.0555 18.6418 9.84523C18.6418 9.70716 18.6385 9.5699 18.6336 9.43331C19.2557 8.98341 19.7965 8.42254 20.2231 7.78337C19.6523 8.03722 19.037 8.208 18.3939 8.2848C19.0516 7.89056 19.5563 7.26659 19.7946 6.52221C19.1776 6.88738 18.4968 7.15277 17.7716 7.29597C17.1882 6.67662 16.3614 6.28899 15.4443 6.28899C13.6845 6.28899 12.2585 7.71597 12.2585 9.47542C12.2585 9.72531 12.2851 9.96845 12.3404 10.202C9.69138 10.0685 7.34491 8.80076 5.77323 6.87284C5.49939 7.34338 5.34117 7.89054 5.34117 8.47389C5.34117 9.57981 5.90289 10.5554 6.75975 11.1267C6.23718 11.1102 5.74465 10.967 5.31622 10.7277C5.31457 10.7409 5.31458 10.7544 5.31458 10.7685C5.31458 12.3121 6.41341 13.6 7.87129 13.8926C7.60439 13.9652 7.32162 14.0045 7.03193 14.0045C6.82581 14.0045 6.62696 13.9843 6.43306 13.9468C6.83853 15.2128 8.01497 16.1342 9.40877 16.16C8.31937 17.0149 6.94473 17.5242 5.45183 17.5242C5.19567 17.5242 4.94149 17.5093 4.69243 17.4801C6.10209 18.3837 7.77713 18.9114 9.57591 18.9114" fill="#FCFCFD"/>
</svg>
