<svg width="80" height="80" viewBox="0 0 80 80" fill="none" xmlns="http://www.w3.org/2000/svg">
<path d="M80 40.0001C80 62.0916 62.0916 80 40.0001 80C17.9085 80 0 62.0916 0 40.0001C0 17.9085 17.9085 0 40.0001 0C62.0916 0 80 17.9085 80 40.0001Z" fill="#19294F"/>
<path d="M74.6048 40.0001C74.6048 59.1125 59.1109 74.6058 39.9984 74.6058C20.8857 74.6058 5.39258 59.1125 5.39258 40.0001C5.39258 20.8874 20.8857 5.39344 39.9984 5.39344C59.1109 5.39344 74.6048 20.8874 74.6048 40.0001Z" fill="#19294F"/>
<path d="M65.539 30.9591H48.3565C46.8713 30.9591 45.6673 32.1631 45.6673 33.6483V35.7997V40.5691V42.7204V43.1865V44.7367C45.5912 44.705 45.5154 44.6752 45.4383 44.6464C45.401 44.6322 45.3625 44.6188 45.3246 44.6051C45.266 44.5838 45.2067 44.5631 45.1469 44.543C45.1062 44.5288 45.066 44.5159 45.0245 44.5027C44.947 44.4779 44.8682 44.4544 44.7889 44.4315C44.7747 44.4274 44.759 44.4214 44.744 44.4173C43.5865 44.0919 42.4186 43.8196 41.2431 43.5976C41.2431 43.5976 41.2431 43.5975 41.2425 43.5971C41.2202 43.5931 41.1973 43.589 41.1748 43.585C40.9161 43.5361 40.6569 43.4907 40.3972 43.4475C40.3264 43.4353 40.2553 43.424 40.1845 43.4124C39.9386 43.3729 39.692 43.3356 39.4454 43.2999C39.4016 43.2938 39.3581 43.2877 39.3143 43.2816C39.0207 43.2409 38.7268 43.2029 38.4326 43.1679C38.39 43.1638 38.3481 43.1598 38.3055 43.1537C38.2625 43.1496 38.2199 43.1436 38.1767 43.1395C38.1767 43.1395 38.1767 43.1395 38.1767 43.1389L37.7246 43.0377V39.937C37.771 39.892 37.8177 39.8462 37.8631 39.7996C37.9164 39.7456 37.9693 39.6903 38.021 39.6347C38.3349 39.299 38.6326 38.9328 38.912 38.5408C39.0338 38.3707 39.151 38.1949 39.2654 38.0155C39.2994 37.9627 39.3327 37.9092 39.366 37.8557C39.4195 37.7683 39.4724 37.6799 39.5247 37.5909C39.6228 37.4224 39.719 37.2504 39.8115 37.0753C39.85 37.001 39.8885 36.9268 39.9264 36.8522C39.984 36.7372 40.0398 36.621 40.0949 36.5045C40.265 36.1423 40.422 35.7698 40.5633 35.3895C40.615 35.251 40.6655 35.1113 40.7133 34.9704C40.7575 34.8394 40.8001 34.7072 40.8409 34.575C40.9546 34.6354 41.0765 34.6749 41.2046 34.6899C42.0577 34.7893 42.8762 33.7773 43.0329 32.4293C43.14 31.5092 42.9107 30.6706 42.4831 30.1993C42.6617 29.3137 42.7726 28.21 42.729 26.8547C42.6043 22.9901 40.2259 19.8967 37.0141 21.8291C35.9938 20.7204 34.5122 20.0612 32.9947 19.8811C28.8312 19.3874 25.9086 21.9635 25.0051 25.8053C24.6498 27.314 24.7372 28.7826 24.9734 30.012C24.4154 30.4183 24.0928 31.3695 24.2159 32.4293C24.3729 33.7773 25.1912 34.7893 26.0442 34.6899C26.1729 34.6757 26.2942 34.6354 26.4086 34.575C26.4493 34.7072 26.4913 34.8394 26.5361 34.9704C26.5637 35.0515 26.5918 35.1326 26.6206 35.2135C26.661 35.325 26.7028 35.4365 26.7459 35.547C26.8127 35.721 26.8835 35.8936 26.9565 36.0643C27.0712 36.3321 27.1937 36.5953 27.323 36.8522C27.3603 36.9268 27.3989 37.001 27.438 37.0753C27.4988 37.1908 27.5615 37.3046 27.6247 37.4171C27.7651 37.6655 27.9111 37.9074 28.064 38.1414C28.3697 38.6088 28.7002 39.0443 29.0524 39.4421C29.1106 39.507 29.1686 39.5715 29.2278 39.6347C29.3249 39.7387 29.4242 39.8393 29.5244 39.937V43.0377L29.0727 43.1389C29.0727 43.1395 29.0727 43.1395 29.0727 43.1395C29.0301 43.1436 28.9875 43.1496 28.9455 43.1537C28.9025 43.1578 28.8594 43.1638 28.8162 43.1679C28.522 43.2023 28.2277 43.2403 27.9339 43.281C27.8914 43.2871 27.8496 43.2932 27.807 43.2993C27.558 43.335 27.3093 43.3735 27.0605 43.413C26.9925 43.4252 26.9248 43.4355 26.8569 43.4465C26.5884 43.4913 26.3206 43.5383 26.0527 43.5884C26.0385 43.5905 26.0223 43.5925 26.0069 43.5965C26.0069 43.5969 26.0069 43.5969 26.0069 43.5969C24.8315 43.819 23.6629 44.0913 22.5053 44.4167C21.2823 44.7604 20.188 45.365 19.2741 46.1593C18.8349 46.5405 18.4371 46.965 18.0878 47.4261C18.0205 47.5151 17.9549 47.6054 17.8911 47.6968C16.9348 49.0693 16.3848 50.7309 16.3848 52.4926V53.4616C16.3848 53.4535 16.3854 53.4474 16.3854 53.4386V53.6116C16.3854 53.6055 16.3848 53.5995 16.3848 53.5934V55.5302C16.3848 56.8678 17.4688 57.9518 18.8062 57.9518H48.4426C49.7801 57.9518 50.8641 56.8678 50.8641 55.5302V53.5934C50.8641 53.5974 50.8641 53.6015 50.8641 53.6055V53.447C50.8641 53.451 50.8641 53.4571 50.8641 53.4612V52.4922C50.8641 52.4423 50.862 52.3928 50.862 52.3421C50.861 52.2835 50.8604 52.2243 50.858 52.1651C50.8564 52.1099 50.8519 52.0548 50.8478 51.9997C50.8438 51.9439 50.8418 51.8887 50.8377 51.8336C50.8336 51.7772 50.8276 51.7215 50.8215 51.6657C50.8154 51.6122 50.8114 51.5588 50.8053 51.5053C50.7992 51.4483 50.791 51.3922 50.7829 51.3352C50.7748 51.2841 50.7688 51.2328 50.7605 51.1823C50.7503 51.1237 50.7402 51.0657 50.7306 51.0075C50.7225 50.9605 50.7144 50.9132 50.7041 50.8662C50.6919 50.8048 50.6795 50.7431 50.6656 50.6823C50.6554 50.6415 50.6473 50.6006 50.6376 50.5604C50.6214 50.4931 50.6053 50.4264 50.5881 50.3603C50.58 50.3305 50.5719 50.3013 50.5634 50.2713C50.5427 50.1943 50.5208 50.1172 50.4972 50.0414C50.4966 50.0397 50.4967 50.0373 50.4961 50.0353C50.49 50.015 50.4819 49.9955 50.4758 49.9755C50.4429 49.8714 50.4085 49.768 50.3718 49.665C50.3596 49.6283 50.3452 49.592 50.332 49.556C50.3118 49.5049 50.2935 49.4535 50.2734 49.4031C50.2552 49.3589 50.2373 49.3151 50.2195 49.2715C50.1895 49.1995 50.1585 49.1277 50.1268 49.0569C50.1055 49.0099 50.0844 48.9633 50.0625 48.9162C50.0423 48.8736 50.0218 48.8311 50.0009 48.7891C49.9758 48.7374 49.9492 48.6863 49.9228 48.6352C49.8981 48.5869 49.8728 48.5391 49.847 48.4914C49.8132 48.4294 49.7791 48.3679 49.744 48.3069C49.7257 48.2743 49.7055 48.2414 49.6866 48.2086L49.8969 48.0253H65.538C67.0231 48.0253 68.2273 46.8213 68.2273 45.336V43.1847V35.7978V33.6465C68.2273 32.1613 67.0231 30.9573 65.538 30.9573" fill="#19294F"/>
<path d="M50.8634 50.4833V53.5219C50.8634 54.8583 49.7801 55.9429 48.442 55.9429H18.8061C17.4681 55.9429 16.3848 54.8583 16.3848 53.5219V50.4833C16.3848 48.6043 17.0101 46.8392 18.0872 45.4172C19.1649 43.9953 20.6955 42.9163 22.5042 42.4078C29.7767 40.3652 37.4715 40.3652 44.7434 42.4078C45.0601 42.4974 45.3678 42.6033 45.6666 42.7268C48.0098 43.6883 49.7685 45.6522 50.4956 48.0272C50.7359 48.8082 50.8634 49.6343 50.8634 50.4833Z" fill="#25ABE3"/>
<path d="M44.7441 42.4077C37.4715 40.3651 29.7773 40.3651 22.5054 42.4077C18.886 43.4243 16.3848 46.7247 16.3848 50.4835V51.4521C16.3848 47.6931 18.886 44.3929 22.5054 43.3761C29.7773 41.3335 37.4715 41.3335 44.7441 43.3761C48.3634 44.3929 50.8641 47.6931 50.8641 51.4521V50.4835C50.8641 46.7247 48.3634 43.4243 44.7441 42.4077Z" fill="#36BDE7"/>
<path d="M48.4427 54.0059H18.8062C17.4688 54.0059 16.3848 52.9219 16.3848 51.5845V53.5215C16.3848 54.8589 17.4688 55.9429 18.8062 55.9429H48.4427C49.7801 55.9429 50.8641 54.8589 50.8641 53.5215V51.5845C50.8641 52.9219 49.7801 54.0059 48.4427 54.0059Z" fill="#0091DA"/>
<path d="M39.0205 43.9383L41.419 45.4748C40.9883 49.7602 38.5898 53.7311 35.4672 54.8859C34.8752 55.1043 34.258 55.2227 33.6233 55.2227C32.9889 55.2227 32.3727 55.1043 31.7812 54.8859C28.6586 53.733 26.2595 49.7612 25.8291 45.4748L28.228 43.9383L25.8037 42.9751C25.8451 42.4583 25.9118 42.0037 26.0061 41.5876C31.0399 40.6387 36.2069 40.6387 41.2418 41.5876C41.3344 42.0037 41.4034 42.4583 41.4431 42.9751L39.0205 43.9383Z" fill="#0091DA"/>
<path d="M38.172 41.1299C38.0514 42.9291 37.6968 44.6706 37.2087 46.3483C36.6461 48.2784 35.9045 50.1268 35.131 51.889C34.6269 53.0375 34.1101 54.149 33.6204 55.2227C33.1307 54.1506 32.6157 53.0409 32.1116 51.8925C31.3381 50.1296 30.5966 48.28 30.0333 46.3483C29.5436 44.6706 29.1912 42.9291 29.0684 41.1299C29.2391 41.1117 29.4114 41.0932 29.5805 41.076C32.268 40.811 34.9746 40.811 37.6604 41.076C37.8312 41.0922 38.0029 41.1111 38.172 41.1299Z" fill="#EFEFF0"/>
<path d="M33.6267 45.1281C31.3622 45.1281 29.5264 43.2929 29.5264 41.0284V33.5278H37.7265V41.0284C37.7265 43.2929 35.8913 45.1281 33.6267 45.1281Z" fill="#AAD1C6"/>
<path d="M35.1318 51.889C34.6277 53.0375 34.1108 54.149 33.6211 55.2227C33.1314 54.1506 32.6164 53.0409 32.1123 51.8925L32.7965 45.7408H34.4472L35.1318 51.889Z" fill="#25ABE3"/>
<path d="M34.8978 46.193L34.0373 46.8303C33.7919 47.0126 33.4562 47.0126 33.2102 46.8303L32.3505 46.193C32.2262 46.101 32.1366 45.9706 32.0952 45.8222L31.9217 45.2009C31.7976 44.7585 32.1303 44.3199 32.5902 44.3199H34.6576C35.1172 44.3199 35.4501 44.7585 35.3265 45.2009L35.1529 45.8222C35.1115 45.9706 35.0213 46.101 34.8978 46.193Z" fill="#0091DA"/>
<path d="M33.6205 44.32L30.0327 46.3489C29.5436 44.6706 29.1902 42.9291 29.0684 41.1296L29.5207 41.0278L29.5804 41.0767L33.6205 44.32Z" fill="#F3FAFE"/>
<path d="M38.1809 41.1296C38.0586 42.9291 37.705 44.6706 37.216 46.3489L33.6289 44.32L37.6683 41.0767L37.7287 41.0278L38.1809 41.1296Z" fill="#F3FAFE"/>
<path d="M27.2993 30.0607C27.4562 31.4085 26.8919 32.5811 26.0388 32.6804C25.1858 32.78 24.3675 31.7672 24.2106 30.4194C24.0542 29.0716 24.6187 27.8984 25.4715 27.7995C26.3246 27.7001 27.1429 28.7129 27.2993 30.0607Z" fill="#67C3C1"/>
<path d="M39.9451 30.0607C39.7882 31.4085 40.3527 32.5811 41.2056 32.6804C42.0586 32.78 42.8771 31.7672 43.0339 30.4194C43.1908 29.0716 42.6265 27.8984 41.7735 27.7995C40.9205 27.7001 40.1021 28.7129 39.9451 30.0607Z" fill="#67C3C1"/>
<path d="M41.4881 28.4293C41.4881 33.789 37.9671 39.8137 33.6241 39.8137C29.2814 39.8137 25.7598 33.789 25.7598 28.4293C25.7598 28.2438 25.7638 28.0609 25.7739 27.8817C26.0061 22.8876 29.4316 20.4034 33.6245 20.4034C36.4575 20.4034 38.9412 21.5381 40.3246 23.8153C41.0625 25.028 41.4885 26.5653 41.4885 28.4293" fill="#6BC7DE"/>
<path d="M33.6246 37.8767C29.5494 37.8767 26.1982 32.5722 25.7997 27.4897C25.7896 27.6189 25.7795 27.7488 25.774 27.8817C25.7639 28.0609 25.7598 28.2438 25.7598 28.4293C25.7598 33.789 29.2814 39.8137 33.6241 39.8137C37.9671 39.8137 41.4881 33.789 41.4881 28.4293C41.4881 28.1035 41.4739 27.7886 41.4489 27.4828C41.0536 32.5677 37.7009 37.8767 33.6241 37.8767" fill="#67C3C1"/>
<path d="M33.6259 34.5605C32.9711 34.5605 32.4219 34.1979 32.2568 33.7052C32.224 33.803 32.2051 33.9054 32.2051 34.0116C32.2051 34.6538 32.8414 35.1738 33.6259 35.1738C34.4103 35.1738 35.046 34.6538 35.046 34.0116C35.046 33.9054 35.0277 33.803 34.9943 33.7052C34.8301 34.1979 34.2806 34.5605 33.6259 34.5605Z" fill="#67C3C1"/>
<path d="M35.7228 25.4746C35.7228 25.4746 39.3001 25.6316 40.5009 27.483C41.7182 29.3606 41.1876 31.228 41.1876 31.228C41.1876 31.228 42.8797 29.5372 42.7286 24.8448C42.5993 20.8392 40.0485 17.6619 36.6592 20.0507C35.6855 20.7369 35.7228 25.4746 35.7228 25.4746Z" fill="#36BDE7"/>
<path d="M42.2193 29.2199C42.1798 29.2669 42.1563 29.291 42.1563 29.291C42.1563 29.291 42.6867 27.4238 41.4693 25.546C40.2692 23.6946 36.6914 23.5372 36.6914 23.5372C36.6914 23.5372 36.6752 21.4634 36.9461 19.8609C36.8512 19.9201 36.7551 19.9828 36.6592 20.0507C35.6855 20.7369 35.7228 25.4746 35.7228 25.4746C35.7228 25.4746 39.3001 25.6316 40.5009 27.483C41.7183 29.3606 41.1877 31.228 41.1877 31.228C41.1877 31.228 41.7688 30.6459 42.2193 29.2199Z" fill="#25ABE3"/>
<path d="M33.3024 28.102C32.9161 28.1606 32.5252 28.1882 32.1355 28.1858C31.3033 28.1797 30.4694 28.0369 29.6876 27.7496C28.8887 27.4558 28.1928 26.9846 27.3087 26.972C26.7363 26.9639 26.284 27.2289 26.1483 27.8048C25.9247 28.7559 25.9839 29.7991 26.0322 30.7677C26.0403 30.921 26.0483 31.0745 26.0597 31.228C26.0597 31.228 24.0998 27.6375 25.0039 23.7957C25.9074 19.9542 28.8301 17.3781 32.9936 17.8718C35.1317 18.1253 37.1987 19.3287 38.0045 21.4025C38.7235 23.2544 38.1781 25.3154 36.6744 26.6036C35.7238 27.4179 34.5358 27.9157 33.3024 28.102Z" fill="#36BDE7"/>
<path d="M38.0052 21.4025C37.8114 20.9047 37.5448 20.457 37.2224 20.0604C37.6288 21.7456 37.0505 23.5153 35.7068 24.666C34.7562 25.4805 33.568 25.9787 32.3346 26.165C31.9483 26.2236 31.5576 26.2512 31.1679 26.2483C30.3355 26.2423 29.5016 26.0999 28.72 25.8126C27.9211 25.519 27.225 25.0476 26.3409 25.035C25.7685 25.0269 25.3162 25.2919 25.1805 25.8678C24.9956 26.6563 25.0041 27.5081 25.0404 28.3283C25.4202 30.0526 26.0605 31.228 26.0605 31.228C26.0483 31.0745 26.0403 30.921 26.033 30.7677C25.9847 29.7991 25.9255 28.7559 26.1491 27.8054C26.2848 27.2289 26.7371 26.9633 27.3095 26.972C28.1936 26.9842 28.8895 27.4558 29.6884 27.7496C30.4702 28.0369 31.3041 28.1801 32.1363 28.1858C32.526 28.1878 32.9169 28.1606 33.3032 28.102C34.5366 27.9157 35.7246 27.4179 36.6752 26.6036C38.1789 25.3154 38.7242 23.2543 38.0052 21.4025Z" fill="#25ABE3"/>
<path d="M50.4941 48.027H49.8957L45.665 51.7165V42.7265C48.0082 43.6881 49.767 45.652 50.4941 48.027Z" fill="#0069A2"/>
<path d="M65.5368 31.1004H48.3543C46.869 31.1004 45.665 32.3044 45.665 33.7896V40.7104V43.3278V49.7065L49.8957 46.0171H65.5368C67.0219 46.0171 68.2261 44.813 68.2261 43.3278V33.7896C68.2261 32.3044 67.0219 31.1004 65.5368 31.1004Z" fill="#C9CACB"/>
<path d="M65.5368 43.8658H48.3543C46.869 43.8658 45.665 42.6618 45.665 41.1766V31.6384C45.665 30.1532 46.869 28.9491 48.3543 28.9491H65.5368C67.0219 28.9491 68.2261 30.1532 68.2261 31.6384V41.1766C68.2261 42.6618 67.0219 43.8658 65.5368 43.8658Z" fill="#F3FAFE"/>
<path d="M49.8958 43.8659L45.665 47.5554V38.5585H49.8958V43.8659Z" fill="#F3FAFE"/>
<path d="M64.0995 34.0179H50.3994C50.0626 34.0179 49.7891 33.7448 49.7891 33.4074V33.3724C49.7891 33.0356 50.0626 32.7627 50.3994 32.7627H64.0995C64.4369 32.7627 64.7099 33.0356 64.7099 33.3724V33.4074C64.7099 33.7448 64.4369 34.0179 64.0995 34.0179Z" fill="#DDDEDE"/>
<path d="M64.0995 37.2643H50.3994C50.0626 37.2643 49.7891 36.9912 49.7891 36.6538V36.6187C49.7891 36.2819 50.0626 36.009 50.3994 36.009H64.0995C64.4369 36.009 64.7099 36.2819 64.7099 36.6187V36.6538C64.7099 36.9912 64.4369 37.2643 64.0995 37.2643Z" fill="#DDDEDE"/>
<path d="M64.0995 40.5104H50.3994C50.0626 40.5104 49.7891 40.2373 49.7891 39.8999V39.8654C49.7891 39.528 50.0626 39.2551 50.3994 39.2551H64.0995C64.4369 39.2551 64.7099 39.528 64.7099 39.8654V39.8999C64.7099 40.2373 64.4369 40.5104 64.0995 40.5104Z" fill="#DDDEDE"/>
</svg>
