<svg width="50" height="50" viewBox="0 0 50 50" fill="none" xmlns="http://www.w3.org/2000/svg">
<path d="M50 25.0001C50 38.8072 38.8072 50 25.0001 50C11.1928 50 0 38.8072 0 25.0001C0 11.1928 11.1928 0 25.0001 0C38.8072 0 50 11.1928 50 25.0001Z" fill="#142850"/>
<path d="M46.6288 25.0003C46.6288 36.9456 36.945 46.6289 24.9998 46.6289C13.0543 46.6289 3.37109 36.9456 3.37109 25.0003C3.37109 13.0549 13.0543 3.37115 24.9998 3.37115C36.945 3.37115 46.6288 13.0549 46.6288 25.0003Z" fill="#142850"/>
<path d="M40.9617 19.3493H30.2226C29.2943 19.3493 28.5418 20.1018 28.5418 21.0301V22.3746V25.3555V26.7001V26.9914V27.9603C28.4943 27.9405 28.4469 27.9219 28.3987 27.9039C28.3754 27.895 28.3513 27.8866 28.3276 27.878C28.291 27.8647 28.254 27.8518 28.2166 27.8393C28.1911 27.8304 28.166 27.8223 28.1401 27.814C28.0916 27.7986 28.0424 27.7839 27.9928 27.7695C27.9839 27.767 27.9742 27.7632 27.9648 27.7607C27.2413 27.5573 26.5114 27.3871 25.7767 27.2483C25.7767 27.2483 25.7767 27.2483 25.7763 27.2481C25.7624 27.2455 25.7481 27.243 25.734 27.2405C25.5723 27.2099 25.4103 27.1815 25.248 27.1545C25.2038 27.1469 25.1593 27.1398 25.1151 27.1326C24.9614 27.1079 24.8073 27.0846 24.6532 27.0623C24.6258 27.0585 24.5985 27.0547 24.5712 27.0509C24.3877 27.0254 24.204 27.0017 24.0201 26.9798C23.9935 26.9772 23.9673 26.9747 23.9407 26.9709C23.9138 26.9684 23.8872 26.9646 23.8602 26.962C23.8602 26.962 23.8602 26.962 23.8602 26.9617L23.5776 26.8984V24.9605C23.6067 24.9324 23.6358 24.9037 23.6642 24.8746C23.6975 24.8409 23.7306 24.8063 23.7629 24.7716C23.9591 24.5617 24.1451 24.3328 24.3198 24.0879C24.3959 23.9815 24.4691 23.8717 24.5406 23.7595C24.5619 23.7266 24.5827 23.6931 24.6035 23.6597C24.637 23.6051 24.67 23.5498 24.7027 23.4942C24.764 23.3889 24.8241 23.2814 24.8819 23.1719C24.906 23.1255 24.9301 23.0791 24.9538 23.0325C24.9898 22.9606 25.0246 22.888 25.0591 22.8151C25.1654 22.5888 25.2635 22.356 25.3518 22.1183C25.3841 22.0317 25.4157 21.9444 25.4456 21.8563C25.4732 21.7745 25.4998 21.6918 25.5253 21.6092C25.5964 21.647 25.6726 21.6717 25.7527 21.6811C26.2858 21.7432 26.7974 21.1107 26.8953 20.2682C26.9622 19.6931 26.8189 19.169 26.5517 18.8745C26.6633 18.3209 26.7326 17.6311 26.7054 16.7841C26.6275 14.3687 25.1409 12.4353 23.1336 13.643C22.4959 12.9501 21.5699 12.5381 20.6215 12.4256C18.0193 12.117 16.1926 13.7271 15.6279 16.1282C15.4059 17.0711 15.4605 17.989 15.6082 18.7573C15.2594 19.0113 15.0578 19.6058 15.1347 20.2682C15.2328 21.1107 15.7442 21.7432 16.2774 21.6811C16.3578 21.6722 16.4336 21.647 16.5051 21.6092C16.5306 21.6918 16.5568 21.7745 16.5848 21.8563C16.6021 21.907 16.6197 21.9577 16.6377 22.0083C16.6629 22.078 16.689 22.1477 16.716 22.2167C16.7577 22.3255 16.8019 22.4333 16.8475 22.54C16.9193 22.7074 16.9958 22.8719 17.0766 23.0325C17.1 23.0791 17.124 23.1255 17.1485 23.1719C17.1865 23.2441 17.2257 23.3152 17.2652 23.3855C17.3529 23.5408 17.4442 23.692 17.5397 23.8382C17.7308 24.1303 17.9374 24.4025 18.1575 24.6512C18.1939 24.6917 18.2301 24.732 18.2671 24.7716C18.3279 24.8366 18.3899 24.8994 18.4525 24.9605V26.8984L18.1702 26.9617C18.1702 26.962 18.1702 26.962 18.1702 26.962C18.1436 26.9646 18.1169 26.9684 18.0907 26.9709C18.0639 26.9735 18.0369 26.9772 18.0099 26.9798C17.826 27.0013 17.6421 27.025 17.4585 27.0505C17.4319 27.0543 17.4058 27.0581 17.3792 27.0619C17.2235 27.0842 17.068 27.1083 16.9126 27.133C16.8701 27.1406 16.8278 27.1471 16.7853 27.1539C16.6175 27.1819 16.4501 27.2113 16.2827 27.2426C16.2738 27.2439 16.2637 27.2452 16.2541 27.2477C16.2541 27.2479 16.2541 27.2479 16.2541 27.2479C15.5194 27.3867 14.7891 27.5569 14.0656 27.7603C13.3012 27.9751 12.6172 28.353 12.0461 28.8494C11.7716 29.0876 11.523 29.353 11.3046 29.6412C11.2625 29.6968 11.2216 29.7532 11.1817 29.8104C10.584 30.6682 10.2402 31.7067 10.2402 32.8077V33.4133C10.2402 33.4083 10.2406 33.4045 10.2406 33.399V33.5071C10.2406 33.5033 10.2402 33.4995 10.2402 33.4957V34.7062C10.2402 35.5422 10.9177 36.2197 11.7536 36.2197H30.2764C31.1123 36.2197 31.7898 35.5422 31.7898 34.7062V33.4957C31.7898 33.4983 31.7898 33.5008 31.7898 33.5033V33.4042C31.7898 33.4068 31.7898 33.4106 31.7898 33.4131V32.8075C31.7898 32.7763 31.7885 32.7454 31.7885 32.7137C31.7879 32.6771 31.7875 32.64 31.786 32.603C31.785 32.5686 31.7822 32.5341 31.7797 32.4997C31.7771 32.4648 31.7759 32.4303 31.7733 32.3958C31.7708 32.3606 31.767 32.3258 31.7632 32.2909C31.7594 32.2575 31.7569 32.2241 31.7531 32.1907C31.7493 32.1551 31.7442 32.12 31.7391 32.0843C31.734 32.0524 31.7303 32.0204 31.7251 31.9888C31.7187 31.9522 31.7124 31.9159 31.7064 31.8796C31.7013 31.8502 31.6963 31.8206 31.6898 31.7912C31.6822 31.7528 31.6745 31.7143 31.6657 31.6763C31.6594 31.6508 31.6543 31.6252 31.6483 31.6001C31.6381 31.5581 31.6281 31.5164 31.6173 31.4751C31.6122 31.4564 31.6072 31.4382 31.6019 31.4194C31.589 31.3713 31.5752 31.3231 31.5605 31.2757C31.5602 31.2747 31.5602 31.2732 31.5598 31.2719C31.556 31.2592 31.5509 31.2471 31.5471 31.2345C31.5266 31.1695 31.505 31.1049 31.4821 31.0405C31.4745 31.0176 31.4655 30.9949 31.4573 30.9723C31.4446 30.9404 31.4332 30.9083 31.4207 30.8768C31.4092 30.8491 31.3981 30.8218 31.3869 30.7945C31.3682 30.7495 31.3488 30.7047 31.329 30.6604C31.3157 30.631 31.3025 30.6019 31.2889 30.5725C31.2762 30.5459 31.2634 30.5193 31.2503 30.493C31.2346 30.4607 31.218 30.4288 31.2015 30.3969C31.1861 30.3667 31.1702 30.3368 31.1542 30.307C31.133 30.2682 31.1117 30.2298 31.0898 30.1917C31.0784 30.1713 31.0657 30.1508 31.0539 30.1302L31.1853 30.0157H40.961C41.8892 30.0157 42.6418 29.2632 42.6418 28.3349V26.9903V22.3735V21.0289C42.6418 20.1007 41.8892 19.3482 40.961 19.3482" fill="#142850"/>
<path d="M31.7894 31.5521V33.4512C31.7894 34.2865 31.1123 34.9644 30.276 34.9644H11.7536C10.9173 34.9644 10.2402 34.2865 10.2402 33.4512V31.5521C10.2402 30.3777 10.6311 29.2746 11.3042 28.3858C11.9778 27.4971 12.9345 26.8228 14.0649 26.5049C18.6102 25.2283 23.4195 25.2283 27.9644 26.5049C28.1623 26.561 28.3546 26.6271 28.5414 26.7043C30.0059 27.3052 31.1051 28.5327 31.5595 30.0171C31.7097 30.5052 31.7894 31.0215 31.7894 31.5521Z" fill="#25ABE3"/>
<path d="M27.9648 26.505C23.4195 25.2283 18.6105 25.2283 14.0656 26.505C11.8035 27.1404 10.2402 29.2031 10.2402 31.5523V32.1577C10.2402 29.8083 11.8035 27.7457 14.0656 27.1102C18.6105 25.8336 23.4195 25.8336 27.9648 27.1102C30.2269 27.7457 31.7898 29.8083 31.7898 32.1577V31.5523C31.7898 29.2031 30.2269 27.1404 27.9648 26.505Z" fill="#36BDE7"/>
<path d="M30.2764 33.7537H11.7536C10.9177 33.7537 10.2402 33.0763 10.2402 32.2404V33.451C10.2402 34.2869 10.9177 34.9644 11.7536 34.9644H30.2764C31.1123 34.9644 31.7898 34.2869 31.7898 33.451V32.2404C31.7898 33.0763 31.1123 33.7537 30.2764 33.7537Z" fill="#0091DA"/>
<path d="M24.3884 27.4614L25.8875 28.4218C25.6183 31.1001 24.1192 33.582 22.1676 34.3037C21.7976 34.4402 21.4118 34.5142 21.0152 34.5142C20.6187 34.5142 20.2335 34.4402 19.8639 34.3037C17.9123 33.5831 16.4128 31.1008 16.1438 28.4218L17.6431 27.4614L16.1279 26.8595C16.1538 26.5364 16.1955 26.2523 16.2544 25.9923C19.4006 25.3992 22.6299 25.3992 25.7767 25.9923C25.8346 26.2523 25.8777 26.5364 25.9026 26.8595L24.3884 27.4614Z" fill="#0091DA"/>
<path d="M23.8597 25.7062C23.7843 26.8307 23.5627 27.9191 23.2576 28.9677C22.906 30.174 22.4425 31.3292 21.9591 32.4306C21.644 33.1484 21.321 33.8431 21.0149 34.5142C20.7089 33.8442 20.387 33.1506 20.072 32.4328C19.5885 31.331 19.1251 30.175 18.773 28.9677C18.467 27.9191 18.2467 26.8307 18.1699 25.7062C18.2766 25.6948 18.3843 25.6833 18.49 25.6725C20.1697 25.5069 21.8613 25.5069 23.54 25.6725C23.6467 25.6826 23.754 25.6944 23.8597 25.7062Z" fill="#EFEFF0"/>
<path d="M21.0148 28.2051C19.5996 28.2051 18.4521 27.0581 18.4521 25.6428V20.9549H23.5773V25.6428C23.5773 27.0581 22.4302 28.2051 21.0148 28.2051Z" fill="#AAD1C6"/>
<path d="M21.9585 32.4306C21.6434 33.1484 21.3204 33.8431 21.0143 34.5142C20.7083 33.8441 20.3863 33.1506 20.0713 32.4328L20.4989 28.588H21.5306L21.9585 32.4306Z" fill="#25ABE3"/>
<path d="M21.811 28.8707L21.2732 29.269C21.1198 29.383 20.91 29.383 20.7563 29.269L20.2189 28.8707C20.1413 28.8132 20.0853 28.7317 20.0594 28.639L19.9509 28.2507C19.8734 27.9741 20.0813 27.7 20.3688 27.7H21.6608C21.9481 27.7 22.1562 27.9741 22.0789 28.2507L21.9704 28.639C21.9446 28.7317 21.8882 28.8132 21.811 28.8707Z" fill="#0091DA"/>
<path d="M21.015 27.6998L18.7726 28.9678C18.467 27.9189 18.2461 26.8304 18.1699 25.7057L18.4526 25.6421L18.4899 25.6726L21.015 27.6998Z" fill="#F3FAFE"/>
<path d="M23.8606 25.7057C23.7842 26.8304 23.5632 27.9189 23.2575 28.9678L21.0156 27.6998L23.5402 25.6726L23.578 25.6421L23.8606 25.7057Z" fill="#F3FAFE"/>
<path d="M17.0648 18.7881C17.1629 19.6305 16.8102 20.3634 16.2771 20.4255C15.7439 20.4877 15.2325 19.8547 15.1344 19.0123C15.0367 18.17 15.3895 17.4367 15.9225 17.3749C16.4557 17.3128 16.9671 17.9458 17.0648 18.7881Z" fill="#67C3C1"/>
<path d="M24.9646 18.7881C24.8665 19.6305 25.2194 20.3634 25.7524 20.4255C26.2855 20.4877 26.7971 19.8547 26.8951 19.0123C26.9932 18.17 26.6405 17.4367 26.1073 17.3749C25.5742 17.3128 25.0627 17.9458 24.9646 18.7881Z" fill="#67C3C1"/>
<path d="M25.9298 17.7686C25.9298 21.1183 23.7292 24.8838 21.0148 24.8838C18.3006 24.8838 16.0996 21.1183 16.0996 17.7686C16.0996 17.6526 16.1021 17.5383 16.1085 17.4263C16.2536 14.305 18.3945 12.7523 21.0151 12.7523C22.7857 12.7523 24.338 13.4615 25.2027 14.8848C25.6638 15.6427 25.9301 16.6036 25.9301 17.7686" fill="#6BC7DE"/>
<path d="M21.0151 23.6732C18.4682 23.6732 16.3736 20.3578 16.1246 17.1813C16.1183 17.262 16.1119 17.3432 16.1085 17.4262C16.1022 17.5383 16.0996 17.6526 16.0996 17.7685C16.0996 21.1183 18.3006 24.8838 21.0148 24.8838C23.7292 24.8838 25.9298 21.1183 25.9298 17.7685C25.9298 17.5649 25.9209 17.3681 25.9053 17.177C25.6582 20.355 23.5628 23.6732 21.0148 23.6732" fill="#67C3C1"/>
<path d="M21.0149 21.6001C20.6057 21.6001 20.2624 21.3735 20.1593 21.0655C20.1388 21.1266 20.127 21.1906 20.127 21.257C20.127 21.6584 20.5246 21.9834 21.0149 21.9834C21.5052 21.9834 21.9025 21.6584 21.9025 21.257C21.9025 21.1906 21.8911 21.1266 21.8702 21.0655C21.7676 21.3735 21.4241 21.6001 21.0149 21.6001Z" fill="#67C3C1"/>
<path d="M22.3263 15.9217C22.3263 15.9217 24.5621 16.0198 25.3126 17.1769C26.0734 18.3504 25.7418 19.5176 25.7418 19.5176C25.7418 19.5176 26.7993 18.4608 26.7049 15.5281C26.6241 13.0246 25.0298 11.0388 22.9115 12.5317C22.303 12.9606 22.3263 15.9217 22.3263 15.9217Z" fill="#36BDE7"/>
<path d="M26.3866 18.2625C26.3619 18.2919 26.3472 18.307 26.3472 18.307C26.3472 18.307 26.6787 17.1399 25.9178 15.9663C25.1677 14.8092 22.9317 14.7108 22.9317 14.7108C22.9317 14.7108 22.9215 13.4147 23.0908 12.4131C23.0315 12.4502 22.9714 12.4893 22.9115 12.5318C22.303 12.9606 22.3263 15.9217 22.3263 15.9217C22.3263 15.9217 24.5621 16.0198 25.3126 17.1769C26.0735 18.3504 25.7418 19.5176 25.7418 19.5176C25.7418 19.5176 26.105 19.1537 26.3866 18.2625Z" fill="#25ABE3"/>
<path d="M20.814 17.5638C20.5726 17.6004 20.3282 17.6177 20.0847 17.6162C19.5646 17.6124 19.0434 17.5231 18.5547 17.3436C18.0554 17.1599 17.6205 16.8654 17.0679 16.8576C16.7102 16.8525 16.4275 17.0181 16.3427 17.3781C16.2029 17.9725 16.2399 18.6245 16.2701 19.2299C16.2752 19.3257 16.2802 19.4216 16.2873 19.5176C16.2873 19.5176 15.0624 17.2735 15.6275 14.8724C16.1922 12.4714 18.0188 10.8614 20.621 11.1699C21.9573 11.3284 23.2492 12.0805 23.7528 13.3766C24.2022 14.534 23.8613 15.8222 22.9215 16.6273C22.3274 17.1362 21.5849 17.4474 20.814 17.5638Z" fill="#36BDE7"/>
<path d="M23.7528 13.3766C23.6316 13.0655 23.465 12.7857 23.2635 12.5378C23.5175 13.591 23.1561 14.6971 22.3162 15.4163C21.7221 15.9254 20.9795 16.2367 20.2086 16.3532C19.9672 16.3898 19.723 16.407 19.4794 16.4053C18.9592 16.4015 18.438 16.3125 17.9495 16.1329C17.4502 15.9494 17.0151 15.6548 16.4626 15.6469C16.1048 15.6419 15.8221 15.8075 15.7373 16.1674C15.6218 16.6602 15.6271 17.1926 15.6498 17.7052C15.8871 18.7829 16.2873 19.5176 16.2873 19.5176C16.2797 19.4216 16.2747 19.3257 16.2701 19.2299C16.24 18.6245 16.2029 17.9725 16.3427 17.3784C16.4275 17.0181 16.7102 16.8521 17.068 16.8576C17.6205 16.8652 18.0554 17.1599 18.5547 17.3436C19.0434 17.5231 19.5646 17.6126 20.0847 17.6162C20.3283 17.6174 20.5726 17.6004 20.814 17.5638C21.5849 17.4474 22.3274 17.1362 22.9215 16.6273C23.8613 15.8222 24.2022 14.534 23.7528 13.3766Z" fill="#25ABE3"/>
<path d="M31.5602 30.0168H31.1862L28.542 32.3228V26.704C30.0065 27.305 31.1057 28.5325 31.5602 30.0168Z" fill="#0069A2"/>
<path d="M40.9618 19.4376H30.2228C29.2945 19.4376 28.542 20.1901 28.542 21.1183V25.4438V27.0797V31.0664L31.1861 28.7605H40.9618C41.89 28.7605 42.6427 28.008 42.6427 27.0797V21.1183C42.6427 20.1901 41.89 19.4376 40.9618 19.4376Z" fill="#C9CACB"/>
<path d="M40.9618 27.416H30.2228C29.2945 27.416 28.542 26.6635 28.542 25.7352V19.7739C28.542 18.8456 29.2945 18.0931 30.2228 18.0931H40.9618C41.89 18.0931 42.6427 18.8456 42.6427 19.7739V25.7352C42.6427 26.6635 41.89 27.416 40.9618 27.416Z" fill="#F3FAFE"/>
<path d="M31.1862 27.4162L28.542 29.7222V24.0992H31.1862V27.4162Z" fill="#F3FAFE"/>
<path d="M40.0632 21.2612H31.5006C31.2901 21.2612 31.1191 21.0905 31.1191 20.8797V20.8577C31.1191 20.6473 31.2901 20.4767 31.5006 20.4767H40.0632C40.2741 20.4767 40.4446 20.6473 40.4446 20.8577V20.8797C40.4446 21.0905 40.2741 21.2612 40.0632 21.2612Z" fill="#DDDEDE"/>
<path d="M40.0632 23.29H31.5006C31.2901 23.29 31.1191 23.1193 31.1191 22.9085V22.8865C31.1191 22.676 31.2901 22.5055 31.5006 22.5055H40.0632C40.2741 22.5055 40.4446 22.676 40.4446 22.8865V22.9085C40.4446 23.1193 40.2741 23.29 40.0632 23.29Z" fill="#DDDEDE"/>
<path d="M40.0632 25.3193H31.5006C31.2901 25.3193 31.1191 25.1486 31.1191 24.9378V24.9162C31.1191 24.7054 31.2901 24.5348 31.5006 24.5348H40.0632C40.2741 24.5348 40.4446 24.7054 40.4446 24.9162V24.9378C40.4446 25.1486 40.2741 25.3193 40.0632 25.3193Z" fill="#DDDEDE"/>
</svg>
