<svg width="50" height="50" viewBox="0 0 50 50" fill="none" xmlns="http://www.w3.org/2000/svg">
<path d="M50 24.9999C50 38.8072 38.8072 50 25 50C11.1927 50 0 38.8072 0 24.9999C0 11.1928 11.1927 0 25 0C38.8072 0 50 11.1928 50 24.9999Z" fill="#142850"/>
<path d="M46.6288 24.9999C46.6288 36.9453 36.9455 46.6289 25.0001 46.6289C13.0547 46.6289 3.37109 36.9453 3.37109 24.9999C3.37109 13.0546 13.0547 3.37088 25.0001 3.37088C36.9455 3.37088 46.6288 13.0546 46.6288 24.9999Z" fill="#142850"/>
<path d="M37.5958 24.041L37.3353 24.0201V23.6968C37.3353 23.5697 37.2674 23.4587 37.1662 23.3976L36.2358 22.8059C36.0724 22.7017 35.8815 22.6493 35.6879 22.6522C34.5722 22.6684 33.5448 22.7771 32.5681 22.9815C32.54 22.9633 32.5124 22.9445 32.484 22.9269C32.484 22.9267 32.4836 22.9267 32.4836 22.9267C32.4154 22.8838 32.3457 22.8437 32.2749 22.8041C32.2622 22.7978 32.2494 22.79 32.2365 22.7833C32.1683 22.7463 32.0992 22.7107 32.0289 22.6766C32.0251 22.6754 32.0226 22.6728 32.0188 22.6716C31.9405 22.6342 31.8611 22.5989 31.7803 22.5656C31.7795 22.5652 31.779 22.5649 31.7777 22.5649C31.735 22.5472 31.6922 22.53 31.6491 22.5138C31.6279 22.5062 31.6064 22.4984 31.5849 22.4905C31.5518 22.4791 31.5187 22.4671 31.4854 22.456C31.4623 22.4484 31.4394 22.4405 31.416 22.4331C31.3726 22.4194 31.3284 22.4057 31.2841 22.3931C31.2753 22.3906 31.2669 22.3881 31.2583 22.3855C30.607 22.2027 29.9496 22.049 29.2879 21.9243C29.2879 21.9243 29.2879 21.9242 29.2879 21.9239C29.2752 21.9213 29.2631 21.9201 29.2505 21.9175C29.1047 21.8903 28.9585 21.8647 28.8119 21.8404C28.7721 21.834 28.7326 21.8271 28.6927 21.8206C28.554 21.7983 28.4154 21.7771 28.2767 21.7573C28.2519 21.7535 28.2275 21.7498 28.2028 21.7472C28.0375 21.7239 27.8719 21.7026 27.7062 21.6832C27.6829 21.6807 27.6596 21.6781 27.6359 21.6756C27.6115 21.6731 27.587 21.6705 27.5625 21.6667L27.3082 21.6096V19.8648C28.0816 19.1101 28.6981 18.0249 29.0623 16.8459C29.1262 16.88 29.1945 16.9037 29.2668 16.912C29.7467 16.9677 30.2072 16.3983 30.2955 15.6396C30.3556 15.1219 30.2266 14.6502 29.9859 14.3851C30.0864 13.8866 30.1487 13.2655 30.1242 12.5025C30.0541 10.3277 28.7156 8.58725 26.9084 9.67469C26.334 9.05069 25.5006 8.67962 24.6467 8.57824C22.3039 8.30058 20.6589 9.75009 20.1502 11.9123C19.9501 12.7619 19.9997 13.5888 20.1326 14.2807C19.8191 14.5098 19.6373 15.0436 19.7063 15.6396C19.7947 16.3983 20.2552 16.9677 20.7351 16.912C20.8077 16.9031 20.8755 16.88 20.9399 16.8459C21.3037 18.0249 21.9205 19.1101 22.6935 19.8648V21.6096L22.4393 21.6667C22.4152 21.6693 22.3911 21.6718 22.3671 21.6756C22.343 21.6781 22.3193 21.6807 22.2952 21.6832C22.1296 21.7026 21.964 21.7239 21.7987 21.7472C21.7746 21.7498 21.7509 21.7548 21.7269 21.7573C21.5868 21.7775 21.4467 21.7987 21.307 21.8213C21.2689 21.8277 21.2308 21.834 21.1927 21.84C21.0415 21.8654 20.8903 21.8917 20.739 21.9201C20.7314 21.9213 20.7225 21.9226 20.7143 21.9239C20.7143 21.9242 20.7143 21.9243 20.7143 21.9243C20.0525 22.049 19.3952 22.2027 18.7436 22.3855C18.2694 22.5187 17.83 22.7221 17.4341 22.9818C16.4567 22.777 15.4289 22.6683 14.3124 22.652C14.1188 22.6495 13.9281 22.7016 13.7647 22.8058L12.8343 23.3975C12.7329 23.4585 12.6651 23.5696 12.6651 23.6967V24.0199L12.4043 24.0408C12.2224 24.0555 12.082 24.2075 12.082 24.3904V38.9451C12.082 39.1452 12.2494 39.3057 12.4495 39.2946C15.7764 39.1111 19.2906 39.74 22.5973 41.1167L23.8679 41.6454V41.6441C23.8687 41.6445 23.8692 41.6449 23.8704 41.6451V41.6455H26.1321L27.4024 41.1168C30.7094 39.7402 34.2237 39.1112 37.5505 39.2947C37.7503 39.3061 37.9181 39.1453 37.9181 38.9452V24.3905C37.9181 24.2076 37.7775 24.0557 37.5954 24.041" fill="#142850"/>
<path d="M34.7024 25.6745V27.384C34.7024 28.1363 34.0927 28.7466 33.3398 28.7466H16.6624C15.9097 28.7466 15.2998 28.1363 15.2998 27.384V25.6745C15.2998 24.6169 15.6519 23.6236 16.2579 22.8232C16.8643 22.023 17.7256 21.4162 18.7438 21.1299C22.836 19.98 27.1661 19.98 31.2584 21.1299C31.4366 21.1802 31.6097 21.2398 31.7779 21.3091C33.0966 21.8505 34.0866 22.9558 34.4954 24.2921C34.6305 24.7315 34.7024 25.1963 34.7024 25.6745Z" fill="#25ABE3"/>
<path d="M31.2584 21.1299C27.1662 19.9803 22.836 19.9803 18.7438 21.1299C16.7069 21.7018 15.2998 23.559 15.2998 25.6744V26.2197C15.2998 24.1043 16.7069 22.2471 18.7438 21.6748C22.836 20.5252 27.1662 20.5252 31.2584 21.6748C33.2953 22.2471 34.7028 24.1043 34.7028 26.2197V25.6744C34.7028 23.559 33.2953 21.7018 31.2584 21.1299Z" fill="#36BDE7"/>
<path d="M33.3398 27.6563H16.6624C15.9097 27.6563 15.2998 27.0464 15.2998 26.2938V27.384C15.2998 28.1366 15.9097 28.7466 16.6624 28.7466H33.3398C34.0925 28.7466 34.7028 28.1366 34.7028 27.384V26.2938C34.7028 27.0464 34.0925 27.6563 33.3398 27.6563Z" fill="#0091DA"/>
<path d="M28.0385 21.9911L29.3884 22.8555C29.1459 25.2669 27.7959 27.5016 26.0386 28.1515C25.7059 28.2747 25.3586 28.3408 25.0012 28.3408C24.6441 28.3408 24.2975 28.2747 23.9648 28.1515C22.2075 27.5027 20.8575 25.268 20.6151 22.8555L21.9649 21.9911L20.6006 21.449C20.6239 21.1581 20.6617 20.9023 20.7149 20.668C23.5474 20.1343 26.4553 20.1343 29.2885 20.668C29.3406 20.9023 29.3794 21.1581 29.4017 21.449L28.0385 21.9911Z" fill="#0091DA"/>
<path d="M27.5623 20.4105C27.4941 21.4228 27.2948 22.4032 27.0203 23.3471C26.7034 24.4331 26.286 25.4734 25.8506 26.4653C25.5672 27.1114 25.2762 27.737 25.0007 28.3408C24.7251 27.738 24.4353 27.1133 24.1518 26.467C23.7165 25.4753 23.299 24.4342 22.9822 23.3471C22.7067 22.4032 22.5084 21.4228 22.4395 20.4105C22.5353 20.3991 22.6323 20.39 22.7275 20.38C24.2399 20.2309 25.763 20.2309 27.2742 20.38C27.3702 20.3901 27.4671 20.3997 27.5623 20.4105Z" fill="#EFEFF0"/>
<path d="M25.0007 22.6606C23.7266 22.6606 22.6934 21.6276 22.6934 20.3533V16.1324H27.308V20.3533C27.308 21.6276 26.2749 22.6606 25.0007 22.6606Z" fill="#AAD1C6"/>
<path d="M25.8511 26.4653C25.5677 27.1115 25.2768 27.737 25.0013 28.3408C24.7256 27.738 24.4358 27.1134 24.1523 26.4671L24.5375 23.0053H25.4661L25.8511 26.4653Z" fill="#25ABE3"/>
<path d="M25.7178 23.26L25.2339 23.6185C25.0956 23.7209 24.9067 23.7209 24.7684 23.6185L24.2844 23.26C24.2147 23.2083 24.1642 23.1347 24.1407 23.0513L24.043 22.7018C23.9733 22.4529 24.1605 22.2058 24.4195 22.2058H25.5831C25.8416 22.2058 26.0288 22.4529 25.9591 22.7018L25.8614 23.0513C25.8381 23.1347 25.7874 23.2083 25.7178 23.26Z" fill="#0091DA"/>
<path d="M25.001 22.2057L22.9822 23.3477C22.707 22.4033 22.508 21.4233 22.4395 20.4106L22.694 20.3531L22.7279 20.3805L25.001 22.2057Z" fill="#F3FAFE"/>
<path d="M27.5626 20.4106C27.4941 21.4233 27.295 22.4033 27.0199 23.3477L25.001 22.2057L27.2742 20.3805L27.3081 20.3531L27.5626 20.4106Z" fill="#F3FAFE"/>
<path d="M21.4443 14.1812C21.5327 14.9399 21.2148 15.5998 20.7348 15.6559C20.2549 15.7116 19.7944 15.1418 19.7061 14.3834C19.618 13.6251 19.9356 12.9649 20.4155 12.9092C20.8954 12.8532 21.3563 13.4229 21.4443 14.1812Z" fill="#67C3C1"/>
<path d="M28.5576 14.1812C28.4697 14.9399 28.7872 15.5998 29.2671 15.6559C29.747 15.7116 30.2076 15.1418 30.2959 14.3834C30.384 13.6251 30.0664 12.9649 29.5865 12.9092C29.1066 12.8532 28.6461 13.4229 28.5576 14.1812Z" fill="#67C3C1"/>
<path d="M29.4268 13.2635C29.4268 16.2799 27.4454 19.6699 25.0015 19.6699C22.5577 19.6699 20.5762 16.2799 20.5762 13.2635C20.5762 13.1593 20.5787 13.0562 20.5838 12.9553C20.715 10.145 22.6425 8.74734 25.0019 8.74734C26.5962 8.74734 27.9939 9.38567 28.7724 10.667C29.1877 11.3496 29.4272 12.215 29.4272 13.2635" fill="#6BC7DE"/>
<path d="M25.0009 18.5801C22.7076 18.5801 20.8217 15.5949 20.5979 12.735C20.5916 12.8076 20.5865 12.8805 20.5828 12.9553C20.5777 13.0562 20.5752 13.1593 20.5752 13.2635C20.5752 16.2798 22.5567 19.6699 25.0005 19.6699C27.4444 19.6699 29.4258 16.2798 29.4258 13.2635C29.4258 13.0802 29.4182 12.9032 29.404 12.7311C29.1816 15.5924 27.2949 18.5801 25.0005 18.5801" fill="#67C3C1"/>
<path d="M25.0004 16.7139C24.6323 16.7139 24.323 16.5099 24.2303 16.2325C24.212 16.2875 24.2012 16.3452 24.2012 16.4049C24.2012 16.7662 24.5591 17.0591 25.0004 17.0591C25.4419 17.0591 25.7998 16.7662 25.7998 16.4049C25.7998 16.3452 25.7897 16.2875 25.7707 16.2325C25.678 16.5099 25.3687 16.7139 25.0004 16.7139Z" fill="#67C3C1"/>
<path d="M26.1817 11.6001C26.1817 11.6001 28.1952 11.6889 28.8705 12.7307C29.5556 13.7872 29.2574 14.8379 29.2574 14.8379C29.2574 14.8379 30.2094 13.8867 30.1242 11.246C30.0517 8.99186 28.6162 7.20361 26.7087 8.54818C26.1608 8.93432 26.1817 11.6001 26.1817 11.6001Z" fill="#36BDE7"/>
<path d="M29.838 13.7081C29.8157 13.7347 29.8023 13.748 29.8023 13.748C29.8023 13.748 30.1009 12.6969 29.4158 11.6405C28.7401 10.5986 26.7271 10.5103 26.7271 10.5103C26.7271 10.5103 26.7182 9.34279 26.8704 8.44113C26.8169 8.47459 26.7629 8.50982 26.7087 8.54822C26.1608 8.93435 26.1817 11.6002 26.1817 11.6002C26.1817 11.6002 28.1952 11.6889 28.8705 12.7307C29.5556 13.7872 29.2574 14.8379 29.2574 14.8379C29.2574 14.8379 29.5844 14.5103 29.838 13.7081Z" fill="#25ABE3"/>
<path d="M24.8207 13.0788C24.6033 13.1117 24.3831 13.1276 24.164 13.1258C23.6955 13.1233 23.2263 13.0422 22.7867 12.8805C22.337 12.7152 21.9454 12.4501 21.4478 12.4429C21.1256 12.4378 20.8712 12.5877 20.7948 12.9118C20.6691 13.4469 20.702 14.0339 20.7294 14.5789C20.7332 14.665 20.7383 14.7517 20.7449 14.8379C20.7449 14.8379 19.642 12.8176 20.1507 10.6554C20.6593 8.49358 22.3043 7.04408 24.6471 7.32186C25.8498 7.46443 27.0133 8.14191 27.4668 9.30906C27.8715 10.3511 27.5645 11.5107 26.7184 12.2357C26.1831 12.6937 25.5146 12.9743 24.8207 13.0788Z" fill="#36BDE7"/>
<path d="M27.4668 9.30907C27.358 9.02849 27.2078 8.77707 27.0259 8.55365C27.2548 9.50194 26.9297 10.4978 26.1736 11.1455C25.6383 11.6038 24.9698 11.884 24.2757 11.9888C24.0584 12.0215 23.8382 12.0374 23.6191 12.036C23.1506 12.0322 22.6815 11.9522 22.2415 11.7906C21.7921 11.6254 21.4005 11.3603 20.903 11.353C20.5803 11.348 20.3261 11.4975 20.25 11.8218C20.1454 12.2655 20.1507 12.7446 20.1709 13.2063C20.3847 14.1765 20.7449 14.8379 20.7449 14.8379C20.7386 14.7517 20.7335 14.665 20.7295 14.5789C20.7021 14.0339 20.6692 13.4469 20.7949 12.9118C20.8713 12.5877 21.1256 12.4383 21.4479 12.4429C21.9454 12.4505 22.337 12.7152 22.7868 12.8805C23.2264 13.0422 23.6955 13.1229 24.164 13.1258C24.3832 13.1271 24.6034 13.1117 24.8207 13.0788C25.5147 12.9743 26.1832 12.6937 26.7185 12.2357C27.5645 11.5111 27.8712 10.3511 27.4668 9.30907Z" fill="#25ABE3"/>
<path d="M13.7644 21.5498L12.834 22.1413L12.9413 37.2662C16.3594 36.4957 20.6299 38.2322 25.0009 40.3896L24.9959 25.6388C21.3924 22.7808 18.4604 21.457 14.312 21.3959C14.1184 21.3934 13.9276 21.4459 13.7643 21.5498" fill="#F3FAFE"/>
<path d="M12.665 22.4409V37.9671C16.083 37.1965 19.4993 38.2322 23.8704 40.3896L23.8653 25.6388C20.2771 22.7927 17.1521 22.1252 13.0195 22.0904C12.8245 22.0891 12.665 22.2455 12.665 22.4409Z" fill="#DDDEDE"/>
<path d="M12.6773 22.7632L12.4043 22.7851C12.2224 22.7998 12.082 22.9518 12.082 23.1342V37.6893C12.082 37.8895 12.2494 38.05 12.4496 38.039C15.7764 37.855 19.2907 38.4843 22.5974 39.8609L23.8679 40.3896V25.6387C23.8679 25.6387 18.5689 22.482 12.6773 22.7632Z" fill="#3A6CB4"/>
<path d="M36.2346 21.5498L37.165 22.1413L37.0575 37.2662C33.6395 36.4957 29.3691 38.2322 24.998 40.3896L25.0031 25.6388C28.6066 22.7808 31.5381 21.457 35.6868 21.3959C35.8805 21.3934 36.0713 21.4459 36.2347 21.5498" fill="#F3FAFE"/>
<path d="M37.3343 22.4409V37.9671C33.9162 37.1965 30.5 38.2322 26.1289 40.3896L26.134 25.6388C29.7223 22.7927 32.8472 22.1252 36.9797 22.0904C37.1749 22.0891 37.3343 22.2455 37.3343 22.4409Z" fill="#DDDEDE"/>
<path d="M37.3226 22.7632L37.5952 22.7851C37.7773 22.7998 37.9178 22.9518 37.9178 23.1342V37.6893C37.9178 37.8895 37.75 38.05 37.5503 38.039C34.2235 37.855 30.7092 38.4843 27.4021 39.8609L26.1319 40.3896V25.6387C26.1319 25.6387 31.4305 22.482 37.3226 22.7632Z" fill="#3A6CB4"/>
<path d="M35.9369 25.0657C32.1826 24.8865 28.7545 26.5974 27.8847 27.0701C27.7536 27.1414 27.6729 27.2786 27.6729 27.4276V27.7208C27.6729 28.0239 27.9918 28.2208 28.263 28.0843C29.5146 27.4546 32.5967 26.1179 35.9369 26.2773C36.1736 26.2965 36.3765 26.1093 36.3765 25.8714V25.4767C36.3765 25.2644 36.2134 25.088 36.0019 25.0708L35.9369 25.0657Z" fill="#6BC6D8"/>
<path d="M35.9369 27.5576C32.1826 27.3784 28.7545 29.0893 27.8847 29.562C27.7536 29.6332 27.6729 29.7703 27.6729 29.9191V30.2126C27.6729 30.5157 27.9918 30.7123 28.263 30.5762C29.5146 29.9464 32.5967 28.6094 35.9369 28.7689C36.1736 28.788 36.3765 28.6008 36.3765 28.3633V27.9686C36.3765 27.7563 36.2134 27.5795 36.0019 27.5627L35.9369 27.5576Z" fill="#6BC6D8"/>
<path d="M26.1318 40.3896H23.8701V25.6387H26.1318V40.3896Z" fill="#6BC6D8"/>
<path d="M23.8701 28.7578H26.1293V28.0439H23.8701V28.7578Z" fill="#3A6CB4"/>
<path d="M23.8701 37.9844H26.1293V37.2705H23.8701V37.9844Z" fill="#3A6CB4"/>
<path d="M25.4391 30.2422H24.5575C24.393 30.2422 24.2598 30.109 24.2598 29.9444C24.2598 29.7799 24.393 29.6466 24.5575 29.6466H25.4391C25.6036 29.6466 25.737 29.7799 25.737 29.9444C25.737 30.109 25.6036 30.2422 25.4391 30.2422Z" fill="#3A6CB4"/>
<path d="M25.4391 31.1904H24.5575C24.393 31.1904 24.2598 31.0571 24.2598 30.8926C24.2598 30.7281 24.393 30.5948 24.5575 30.5948H25.4391C25.6036 30.5948 25.737 30.7281 25.737 30.8926C25.737 31.0571 25.6036 31.1904 25.4391 31.1904Z" fill="#3A6CB4"/>
</svg>
