<svg width="24" height="24" viewBox="0 0 24 24" fill="none" xmlns="http://www.w3.org/2000/svg">
<path fill-rule="evenodd" clip-rule="evenodd" d="M24 12.0002C24 18.6278 18.6273 24 12 24C5.37275 24 0 18.6278 0 12.0002C0 5.37271 5.37275 0 12 0C18.6273 0 24 5.37271 24 12.0002ZM10.3998 14.4001V9.60036L14.5567 12.0002L10.3998 14.4001ZM19.6653 8.14909C19.4813 7.46086 18.9396 6.91864 18.2509 6.73465C17.0033 6.39986 12 6.39987 12 6.39987C12 6.39987 6.99673 6.39986 5.74913 6.73465C5.06042 6.91864 4.51838 7.46086 4.33472 8.14909C4.00012 9.39673 4.00013 12.0002 4.00013 12.0002C4.00013 12.0002 4.00012 14.6038 4.33472 15.8514C4.51838 16.5396 5.06042 17.0819 5.74913 17.2659C6.99673 17.6001 12 17.6002 12 17.6002C12 17.6002 17.0033 17.6001 18.2509 17.2659C18.9396 17.0819 19.4813 16.5396 19.6653 15.8514C19.9999 14.6038 19.9999 12.0002 19.9999 12.0002C19.9999 12.0002 19.9999 9.39673 19.6653 8.14909Z" fill="#FCFCFD"/>
</svg>
