<svg width="24" height="24" viewBox="0 0 24 24" fill="none" xmlns="http://www.w3.org/2000/svg">
<path d="M21.7491 5.23219C21.7488 5.21825 21.7481 5.20438 21.747 5.19056C21.7461 5.17931 21.745 5.16812 21.7436 5.157C21.739 5.11993 21.7316 5.08326 21.7215 5.04731C21.7118 5.01229 21.6995 4.97803 21.6847 4.94484C21.6795 4.93346 21.6741 4.92221 21.6684 4.91109C21.6406 4.8557 21.6058 4.80412 21.5648 4.75763C21.5606 4.75294 21.5572 4.74788 21.5528 4.74319C21.5493 4.73925 21.5453 4.73597 21.5416 4.73213C21.5325 4.72264 21.5231 4.71339 21.5135 4.70438C21.5048 4.6961 21.496 4.68804 21.4869 4.68019C21.4777 4.67247 21.4684 4.66497 21.4588 4.65769C21.4488 4.64978 21.4386 4.64212 21.4282 4.63472C21.4189 4.62816 21.4092 4.62216 21.3996 4.61606C21.3886 4.60922 21.3777 4.60228 21.3665 4.596C21.3562 4.59019 21.3457 4.58503 21.3352 4.57978C21.3242 4.57425 21.3132 4.56872 21.3021 4.56384C21.2904 4.55869 21.2786 4.55428 21.2667 4.54978C21.2561 4.54566 21.2456 4.54153 21.2348 4.53806C21.2221 4.53397 21.2093 4.53022 21.1964 4.52681C21.1858 4.524 21.1753 4.52119 21.1645 4.51866C21.1517 4.51589 21.1387 4.51345 21.1257 4.51134C21.1144 4.50934 21.103 4.50759 21.0916 4.50609C21.0792 4.50466 21.0667 4.50354 21.0543 4.50272C21.0417 4.50177 21.0291 4.50115 21.0165 4.50084C21.0109 4.50075 21.0055 4.5 21 4.5H3C2.99484 4.5 2.98997 4.50066 2.98481 4.50075C2.97112 4.50103 2.95762 4.50178 2.94403 4.50281C2.93251 4.5036 2.921 4.50467 2.90953 4.506C2.89711 4.50758 2.88473 4.50945 2.87241 4.51163C2.86022 4.51378 2.84822 4.51584 2.83631 4.51847C2.82469 4.52109 2.81334 4.52419 2.80191 4.52737C2.78972 4.53066 2.77772 4.53394 2.76581 4.53778C2.75438 4.54153 2.74312 4.54594 2.73178 4.55025C2.72062 4.55456 2.70938 4.55869 2.6985 4.56356C2.68678 4.56872 2.67525 4.57453 2.66381 4.58025C2.65369 4.58531 2.64366 4.59028 2.63381 4.59572C2.62229 4.60232 2.61094 4.60923 2.59978 4.61644C2.59041 4.62234 2.58103 4.62825 2.57203 4.63453C2.56144 4.64203 2.55107 4.64981 2.54091 4.65787C2.53153 4.66509 2.52216 4.67241 2.51325 4.68009C2.50407 4.68798 2.4951 4.69611 2.48634 4.70447C2.47679 4.71344 2.46747 4.72266 2.45841 4.73213C2.45466 4.73588 2.45072 4.73925 2.44716 4.74319C2.44284 4.74788 2.43937 4.75284 2.43525 4.75763C2.41876 4.77656 2.40318 4.79627 2.38856 4.81669C2.38129 4.82691 2.37429 4.83732 2.36756 4.84791C2.34124 4.8889 2.31916 4.93247 2.30166 4.97794C2.28802 5.01223 2.27714 5.04757 2.26913 5.08359C2.26371 5.10785 2.25945 5.13234 2.25638 5.157C2.255 5.16812 2.25387 5.17931 2.253 5.19056C2.25194 5.20444 2.25125 5.21828 2.25094 5.23209C2.25075 5.23809 2.25 5.244 2.25 5.25V18C2.25045 18.3977 2.40863 18.779 2.68983 19.0602C2.97104 19.3414 3.35231 19.4996 3.75 19.5H20.25C20.6477 19.4996 21.029 19.3414 21.3102 19.0602C21.5914 18.779 21.7496 18.3977 21.75 18V5.25C21.75 5.244 21.7493 5.23809 21.7491 5.23219ZM19.0718 6L12 12.4825L4.92816 6H19.0718ZM20.25 18H3.75V6.95503L11.4932 14.0528C11.6315 14.1796 11.8124 14.2499 12 14.2499C12.1876 14.2499 12.3685 14.1796 12.5068 14.0528L20.2501 6.95484L20.2509 18H20.25Z" fill="#FCFCFD"/>
</svg>