<svg width="50" height="50" viewBox="0 0 50 50" fill="none" xmlns="http://www.w3.org/2000/svg">
<path d="M40.4412 15.7552C38.4158 13.7255 36.0087 12.1167 33.3587 11.0217C30.7086 9.92664 27.868 9.36697 25.0006 9.37496H25L24.9227 9.37516C15.0463 9.40914 6.68438 16.1086 4.01641 25.2326C3.89256 25.4506 3.82478 25.696 3.81914 25.9466C3.35712 27.7516 3.12391 29.6075 3.125 31.4707V35.9375C3.12593 36.766 3.45547 37.5603 4.04132 38.1461C4.62717 38.732 5.42149 39.0615 6.25 39.0625H43.75C44.5785 39.0615 45.3728 38.732 45.9587 38.1461C46.5445 37.5603 46.8741 36.766 46.875 35.9375V31.25C46.8831 28.3697 46.3185 25.5166 45.214 22.8566C44.1094 20.1965 42.4871 17.7826 40.4412 15.7552ZM43.75 35.9375L23.3719 35.9384L34.8004 21.0447C35.0527 20.7159 35.164 20.3004 35.1099 19.8895C35.0558 19.4787 34.8407 19.1061 34.5119 18.8539C34.1831 18.6016 33.7676 18.4903 33.3568 18.5444C32.9459 18.5985 32.5734 18.8136 32.3211 19.1423L19.4328 35.9386L6.25 35.9394V31.4705C6.24999 30.2832 6.3603 29.0986 6.5795 27.9318L11.0123 29.1197C11.412 29.2252 11.8373 29.168 12.1949 28.9606C12.5526 28.7532 12.8134 28.4126 12.9204 28.0132C13.0274 27.6139 12.9717 27.1884 12.7656 26.8301C12.5596 26.4717 12.2198 26.2096 11.8209 26.1011L7.40625 24.9179C9.87891 18.1546 16.0613 13.1857 23.4375 12.566V17.1875C23.4375 17.6019 23.6021 17.9993 23.8951 18.2923C24.1882 18.5853 24.5856 18.75 25 18.75C25.4144 18.75 25.8118 18.5853 26.1049 18.2923C26.3979 17.9993 26.5625 17.6019 26.5625 17.1875V12.565C30.1436 12.8673 33.5628 14.1903 36.4148 16.3769C39.2668 18.5636 41.432 21.5223 42.6535 24.9021L38.1789 26.1011C37.9807 26.1542 37.7949 26.2459 37.6321 26.3708C37.4693 26.4957 37.3327 26.6514 37.2301 26.8291C37.1275 27.0068 37.0609 27.203 37.0342 27.4064C37.0074 27.6099 37.0209 27.8166 37.074 28.0148C37.1271 28.213 37.2188 28.3988 37.3437 28.5616C37.4686 28.7244 37.6243 28.861 37.802 28.9636C37.9797 29.0662 38.1759 29.1328 38.3793 29.1596C38.5828 29.1863 38.7895 29.1728 38.9877 29.1197L43.4566 27.9222C43.6521 29.0207 43.7502 30.1342 43.75 31.25V35.9375Z" fill="#142850"/>
</svg>
