<svg width="24" height="24" viewBox="0 0 24 24" fill="none" xmlns="http://www.w3.org/2000/svg">
<path d="M12 6C11.2583 6 10.5333 6.21993 9.91661 6.63199C9.29993 7.04404 8.81928 7.62971 8.53545 8.31494C8.25162 9.00016 8.17736 9.75416 8.32205 10.4816C8.46675 11.209 8.8239 11.8772 9.34835 12.4017C9.8728 12.9261 10.541 13.2833 11.2684 13.4279C11.9958 13.5726 12.7498 13.4984 13.4351 13.2145C14.1203 12.9307 14.706 12.4501 15.118 11.8334C15.5301 11.2167 15.75 10.4917 15.75 9.75C15.7489 8.75579 15.3534 7.80262 14.6504 7.09961C13.9474 6.3966 12.9942 6.00114 12 6ZM12 12C11.555 12 11.12 11.868 10.75 11.6208C10.38 11.3736 10.0916 11.0222 9.92127 10.611C9.75097 10.1999 9.70642 9.7475 9.79323 9.31105C9.88005 8.87459 10.0943 8.47368 10.409 8.15901C10.7237 7.84434 11.1246 7.63005 11.561 7.54323C11.9975 7.45642 12.4499 7.50097 12.861 7.67127C13.2722 7.84157 13.6236 8.12996 13.8708 8.49997C14.118 8.86998 14.25 9.30499 14.25 9.75C14.2493 10.3465 14.0121 10.9184 13.5903 11.3403C13.1684 11.7621 12.5965 11.9993 12 12ZM12 1.5C9.81273 1.50248 7.71575 2.37247 6.16911 3.91911C4.62247 5.46575 3.75248 7.56273 3.75 9.75C3.75 12.6934 5.11031 15.8137 7.68403 18.7734C8.84221 20.1108 10.1455 21.3152 11.5699 22.3644C11.6959 22.4527 11.8461 22.5 12 22.5C12.1539 22.5 12.3041 22.4527 12.4301 22.3644C13.8545 21.3152 15.1578 20.1108 16.316 18.7734C18.8896 15.8137 20.25 12.6935 20.25 9.75C20.2475 7.56273 19.3775 5.46575 17.8309 3.91911C16.2843 2.37247 14.1873 1.50248 12 1.5ZM12 20.8106C10.45 19.5949 5.25 15.1154 5.25 9.75C5.25 7.95979 5.96116 6.2429 7.22703 4.97703C8.4929 3.71116 10.2098 3 12 3C13.7902 3 15.5071 3.71116 16.773 4.97703C18.0388 6.2429 18.75 7.95979 18.75 9.75C18.75 15.1155 13.5497 19.5952 12 20.8106Z" fill="#FCFCFD"/>
</svg>