<svg width="50" height="50" viewBox="0 0 50 50" fill="none" xmlns="http://www.w3.org/2000/svg">
<path d="M19.5303 22.7447C19.7678 22.6076 19.9651 22.4104 20.1022 22.1728C20.2394 21.9353 20.3116 21.6659 20.3116 21.3916V7.31699C20.3116 7.06703 20.2516 6.82071 20.1367 6.59872C20.0218 6.37673 19.8553 6.18554 19.6512 6.04122C19.4472 5.89689 19.2114 5.80363 18.9638 5.76927C18.7163 5.73491 18.464 5.76045 18.2284 5.84375C13.667 7.46164 9.83189 10.6529 7.41195 14.8442C4.992 19.0356 4.14577 23.9525 5.02523 28.7117C5.07065 28.9577 5.17447 29.1892 5.32795 29.3867C5.48143 29.5842 5.68009 29.742 5.90723 29.8468C6.13437 29.9516 6.38334 30.0003 6.63322 29.9889C6.88311 29.9774 7.12659 29.9062 7.3432 29.7811L19.5303 22.7447ZM17.1866 9.68555V20.4895L7.83441 25.8889C7.81931 25.5929 7.81175 25.2966 7.81175 25C7.81521 21.8321 8.69211 18.7266 10.346 16.0247C12 13.3229 14.3669 11.1295 17.1866 9.68555ZM42.6301 14.9217C42.617 14.8957 42.6051 14.8693 42.5903 14.8438C42.5703 14.8092 42.5481 14.7768 42.526 14.7445C40.7354 11.6852 38.1758 9.14746 35.1012 7.38323C32.0266 5.619 28.544 4.68967 24.9993 4.6875C24.5849 4.6875 24.1874 4.85212 23.8944 5.14515C23.6014 5.43817 23.4368 5.8356 23.4368 6.25V24.0979L7.97992 33.0217C7.8022 33.1243 7.64643 33.2609 7.52151 33.4237C7.39659 33.5865 7.30496 33.7723 7.25186 33.9705C7.19875 34.1687 7.18521 34.3755 7.21201 34.5789C7.23881 34.7824 7.30542 34.9785 7.40804 35.1562C7.41468 35.1676 7.42289 35.1773 7.42953 35.1885C7.44711 35.2236 7.4641 35.2588 7.48422 35.2928C9.74347 39.1361 13.2043 42.1295 17.333 43.8114C21.4617 45.4933 26.029 45.7704 30.3307 44.5999C34.6325 43.4294 38.4298 40.8763 41.1371 37.3344C43.8443 33.7924 45.3113 29.4582 45.3118 25C45.316 21.4637 44.3914 17.9883 42.6303 14.9217H42.6301ZM26.5618 7.88418C29.0386 8.1118 31.4365 8.8741 33.5901 10.1185C35.7437 11.3628 37.6016 13.0596 39.0358 15.0918L26.5618 22.2937V7.88418ZM24.9993 42.1875C22.2486 42.1799 19.5396 41.5156 17.0974 40.2499C14.6552 38.9843 12.5506 37.1538 10.9584 34.9107L40.602 17.7961C41.812 20.4146 42.3432 23.2956 42.1469 26.1735C41.9506 29.0514 41.0329 31.8336 39.4785 34.2635C37.9241 36.6935 35.783 38.693 33.2526 40.0778C30.7222 41.4626 27.8838 42.1882 24.9993 42.1875Z" fill="#142850"/>
</svg>
