<svg width="120" height="120" viewBox="0 0 120 120" fill="none" xmlns="http://www.w3.org/2000/svg">
<circle cx="60" cy="60" r="60" fill="#FCFCFD" fill-opacity="0.2"/>
<circle cx="60" cy="60" r="50" fill="#FCFCFD"/>
<path d="M54.7793 42.5758C54.135 42.191 53.407 41.992 52.6679 41.9987C51.9287 42.0054 51.2041 42.2175 50.566 42.614C49.9279 43.0105 49.3986 43.5775 49.0307 44.2586C48.6628 44.9398 48.469 45.7114 48.4688 46.4968V73.4969C48.4685 74.2825 48.6619 75.0545 49.0297 75.7361C49.3974 76.4177 49.9266 76.9851 50.5648 77.3819C51.203 77.7788 51.9278 77.9912 52.6672 77.998C53.4066 78.0048 54.1347 77.8059 54.7793 77.4209L77.3675 63.9209C78.0226 63.5295 78.568 62.9599 78.9475 62.2705C79.327 61.5812 79.527 60.797 79.527 59.9983C79.527 59.1997 79.327 58.4155 78.9475 57.7262C78.568 57.0368 78.0226 56.4672 77.3675 56.0758L54.7793 42.5758Z" fill="#142850"/>
</svg>
