<svg width="40" height="40" viewBox="0 0 40 40" fill="none" xmlns="http://www.w3.org/2000/svg">
<path d="M6.15167 10.4865C8.49001 7.9515 12.0283 6.6665 16.6667 6.6665H18.3333V11.3648L16.9933 11.6332C14.71 12.0898 13.1217 12.9882 12.2717 14.3065C11.8282 15.0167 11.5766 15.8299 11.5417 16.6665H16.6667C17.1087 16.6665 17.5326 16.8421 17.8452 17.1547C18.1577 17.4672 18.3333 17.8911 18.3333 18.3332V29.9998C18.3333 31.8382 16.8383 33.3332 15 33.3332H5.00001C4.55798 33.3332 4.13406 33.1576 3.8215 32.845C3.50894 32.5324 3.33334 32.1085 3.33334 31.6665V23.3332L3.33834 18.4682C3.32334 18.2832 3.00667 13.8998 6.15167 10.4865ZM33.3333 33.3332H23.3333C22.8913 33.3332 22.4674 33.1576 22.1548 32.845C21.8423 32.5324 21.6667 32.1085 21.6667 31.6665V23.3332L21.6717 18.4682C21.6567 18.2832 21.34 13.8998 24.485 10.4865C26.8233 7.9515 30.3617 6.6665 35 6.6665H36.6667V11.3648L35.3267 11.6332C33.0433 12.0898 31.455 12.9882 30.605 14.3065C30.1615 15.0167 29.91 15.8299 29.875 16.6665H35C35.442 16.6665 35.866 16.8421 36.1785 17.1547C36.4911 17.4672 36.6667 17.8911 36.6667 18.3332V29.9998C36.6667 31.8382 35.1717 33.3332 33.3333 33.3332Z" fill="#00B8B8"/>
</svg>