<svg width="50" height="50" viewBox="0 0 50 50" fill="none" xmlns="http://www.w3.org/2000/svg">
<rect x="0.5" y="0.5" width="49" height="49" rx="24.5" fill="#FCFCFD"/>
<rect x="0.5" y="0.5" width="49" height="49" rx="24.5" stroke="#E4E7EC"/>
<g clip-path="url(#clip0_479_526)">
<path d="M13 25C13 30.123 16.211 34.497 20.73 36.218C20.62 35.281 20.503 33.736 20.755 32.652C20.972 31.72 22.156 26.714 22.156 26.714C22.156 26.714 21.799 25.999 21.799 24.94C21.799 23.28 22.761 22.04 23.96 22.04C24.98 22.04 25.472 22.805 25.472 23.722C25.472 24.747 24.819 26.279 24.482 27.7C24.201 28.889 25.079 29.859 26.251 29.859C28.374 29.859 30.007 27.62 30.007 24.388C30.007 21.527 27.951 19.528 25.016 19.528C21.618 19.528 19.623 22.077 19.623 24.712C19.623 25.739 20.018 26.839 20.512 27.438C20.5541 27.4832 20.5839 27.5386 20.5984 27.5986C20.6129 27.6587 20.6118 27.7215 20.595 27.781C20.504 28.159 20.302 28.97 20.263 29.136C20.21 29.354 20.09 29.401 19.863 29.295C18.371 28.601 17.439 26.42 17.439 24.668C17.439 20.899 20.176 17.439 25.331 17.439C29.475 17.439 32.696 20.392 32.696 24.338C32.696 28.455 30.101 31.769 26.497 31.769C25.286 31.769 24.149 31.139 23.759 30.396C23.759 30.396 23.16 32.678 23.015 33.236C22.733 34.32 21.951 35.692 21.466 36.471C22.584 36.815 23.77 37 25 37C31.627 37 37 31.627 37 25C37 18.373 31.627 13 25 13C18.373 13 13 18.373 13 25Z" fill="#E60023"/>
</g>
<defs>
<clipPath id="clip0_479_526">
<rect width="24" height="24" fill="white" transform="translate(13 13)"/>
</clipPath>
</defs>
</svg>