<svg width="50" height="50" viewBox="0 0 50 50" fill="none" xmlns="http://www.w3.org/2000/svg">
<rect x="0.5" y="0.5" width="49" height="49" rx="24.5" fill="#FCFCFD"/>
<rect x="0.5" y="0.5" width="49" height="49" rx="24.5" stroke="#E4E7EC"/>
<path d="M36.643 17.937C35.808 18.307 34.911 18.557 33.968 18.67C34.941 18.0877 35.669 17.1714 36.016 16.092C35.1019 16.6349 34.1014 17.0171 33.058 17.222C32.3564 16.4728 31.4271 15.9763 30.4143 15.8094C29.4016 15.6426 28.3621 15.8147 27.4573 16.2992C26.5524 16.7837 25.8328 17.5533 25.4102 18.4887C24.9875 19.424 24.8855 20.4727 25.12 21.472C23.2677 21.379 21.4556 20.8975 19.8014 20.0589C18.1472 19.2202 16.6879 18.0431 15.518 16.604C15.118 17.294 14.888 18.094 14.888 18.946C14.8876 19.7129 15.0764 20.4682 15.4379 21.1447C15.7993 21.8212 16.3222 22.398 16.96 22.824C16.2203 22.8004 15.4969 22.6005 14.85 22.241V22.301C14.8499 23.3767 15.222 24.4193 15.9032 25.2519C16.5843 26.0846 17.5326 26.6559 18.587 26.869C17.9008 27.0547 17.1813 27.082 16.483 26.949C16.7805 27.8746 17.36 28.684 18.1404 29.2639C18.9208 29.8438 19.8629 30.1651 20.835 30.183C19.1848 31.4784 17.1469 32.181 15.049 32.1779C14.6774 32.1781 14.3061 32.1563 13.937 32.113C16.0665 33.4821 18.5454 34.2088 21.077 34.2059C29.647 34.2059 34.332 27.108 34.332 20.952C34.332 20.752 34.327 20.55 34.318 20.35C35.2293 19.6909 36.0159 18.8749 36.641 17.94L36.643 17.937Z" fill="#1DA1F2"/>
</svg>
