<svg width="50" height="50" viewBox="0 0 50 50" fill="none" xmlns="http://www.w3.org/2000/svg">
<rect x="0.5" y="0.5" width="49" height="49" rx="24.5" fill="#FCFCFD"/>
<rect x="0.5" y="0.5" width="49" height="49" rx="24.5" stroke="#E4E7EC"/>
<g clip-path="url(#clip0_479_530)">
<path fill-rule="evenodd" clip-rule="evenodd" d="M30.415 27.382C30.117 27.233 28.656 26.515 28.384 26.415C28.112 26.316 27.914 26.267 27.715 26.565C27.517 26.861 26.948 27.531 26.775 27.729C26.601 27.928 26.428 27.952 26.131 27.804C25.834 27.654 24.876 27.341 23.741 26.329C22.858 25.541 22.261 24.568 22.088 24.27C21.915 23.973 22.069 23.812 22.218 23.664C22.352 23.531 22.515 23.317 22.664 23.144C22.813 22.97 22.862 22.846 22.961 22.647C23.061 22.449 23.011 22.276 22.936 22.127C22.862 21.978 22.268 20.515 22.02 19.92C21.779 19.341 21.534 19.42 21.352 19.41C21.178 19.402 20.98 19.4 20.782 19.4C20.584 19.4 20.262 19.474 19.99 19.772C19.717 20.069 18.95 20.788 18.95 22.251C18.95 23.713 20.014 25.126 20.163 25.325C20.312 25.523 22.258 28.525 25.239 29.812C25.949 30.118 26.502 30.301 26.933 30.437C27.645 30.664 28.293 30.632 28.805 30.555C29.375 30.47 30.563 29.836 30.811 29.142C31.058 28.448 31.058 27.853 30.984 27.729C30.91 27.605 30.712 27.531 30.414 27.382H30.415ZM24.993 34.785H24.989C23.2184 34.7854 21.4804 34.3094 19.957 33.407L19.597 33.193L15.855 34.175L16.854 30.527L16.619 30.153C15.6291 28.5774 15.1053 26.7538 15.108 24.893C15.11 19.443 19.544 15.009 24.997 15.009C27.637 15.009 30.119 16.039 31.985 17.907C32.9054 18.8236 33.6349 19.9136 34.1313 21.1139C34.6277 22.3143 34.8811 23.6011 34.877 24.9C34.875 30.35 30.441 34.785 24.993 34.785ZM33.405 16.488C32.3032 15.379 30.9922 14.4996 29.5481 13.9008C28.1039 13.3021 26.5553 12.9959 24.992 13C18.438 13 13.102 18.335 13.1 24.892C13.099 26.988 13.646 29.034 14.687 30.837L13 37L19.304 35.346C21.0479 36.2962 23.0021 36.794 24.988 36.794H24.993C31.547 36.794 36.883 31.459 36.885 24.901C36.8898 23.3383 36.5848 21.7901 35.9874 20.3461C35.3901 18.902 34.5124 17.5907 33.405 16.488Z" fill="#075E54"/>
</g>
<defs>
<clipPath id="clip0_479_530">
<rect width="24" height="24" fill="white" transform="translate(13 13)"/>
</clipPath>
</defs>
</svg>