<svg width="50" height="50" viewBox="0 0 50 50" fill="none" xmlns="http://www.w3.org/2000/svg">
<rect x="0.5" y="0.5" width="49" height="49" rx="24.5" fill="#FCFCFD"/>
<rect x="0.5" y="0.5" width="49" height="49" rx="24.5" stroke="#E4E7EC"/>
<path fill-rule="evenodd" clip-rule="evenodd" d="M14 15.838C14 15.3505 14.1936 14.883 14.5383 14.5383C14.883 14.1936 15.3505 14 15.838 14H34.16C34.4016 13.9996 34.6409 14.0469 34.8641 14.1391C35.0874 14.2313 35.2903 14.3666 35.4612 14.5373C35.6322 14.7081 35.7677 14.9108 35.8602 15.134C35.9526 15.3572 36.0001 15.5964 36 15.838V34.16C36.0003 34.4016 35.9529 34.6409 35.8606 34.8642C35.7683 35.0875 35.6328 35.2904 35.462 35.4613C35.2912 35.6322 35.0884 35.7678 34.8651 35.8602C34.6419 35.9526 34.4026 36.0001 34.161 36H15.838C15.5965 36 15.3575 35.9524 15.1344 35.86C14.9113 35.7676 14.7087 35.6321 14.538 35.4613C14.3673 35.2905 14.2319 35.0878 14.1396 34.8647C14.0473 34.6416 13.9999 34.4025 14 34.161V15.838ZM22.708 22.388H25.687V23.884C26.117 23.024 27.217 22.25 28.87 22.25C32.039 22.25 32.79 23.963 32.79 27.106V32.928H29.583V27.822C29.583 26.032 29.153 25.022 28.061 25.022C26.546 25.022 25.916 26.111 25.916 27.822V32.928H22.708V22.388ZM17.208 32.791H20.416V22.25H17.208V32.79V32.791ZM20.875 18.812C20.881 19.0867 20.8322 19.3598 20.7312 19.6153C20.6303 19.8708 20.4794 20.1036 20.2872 20.3C20.0951 20.4964 19.8657 20.6525 19.6125 20.759C19.3592 20.8655 19.0872 20.9204 18.8125 20.9204C18.5378 20.9204 18.2658 20.8655 18.0125 20.759C17.7593 20.6525 17.5299 20.4964 17.3378 20.3C17.1456 20.1036 16.9947 19.8708 16.8938 19.6153C16.7928 19.3598 16.744 19.0867 16.75 18.812C16.7619 18.2729 16.9844 17.7598 17.3699 17.3827C17.7554 17.0056 18.2732 16.7944 18.8125 16.7944C19.3518 16.7944 19.8696 17.0056 20.2551 17.3827C20.6406 17.7598 20.8631 18.2729 20.875 18.812Z" fill="#0077B5"/>
</svg>