<svg width="24" height="24" viewBox="0 0 24 24" fill="none" xmlns="http://www.w3.org/2000/svg">
<path d="M12 0C18.6273 0 24 5.37283 24 12.0002C24 18.6276 18.6273 24 12 24C5.37275 24 0 18.6276 0 12.0002C0 5.37283 5.37275 0 12 0ZM12 4.44479C9.9481 4.44479 9.69062 4.45307 8.88482 4.49023C8.081 4.5269 7.53134 4.65457 7.05106 4.84137C6.55394 5.03427 6.13247 5.29273 5.71264 5.71273C5.29264 6.13257 5.03417 6.55408 4.84126 7.05121C4.65447 7.5315 4.5268 8.08064 4.49014 8.88498C4.45314 9.69113 4.44473 9.94828 4.44473 12.0002C4.44473 14.0522 4.45298 14.3097 4.49014 15.1155C4.5268 15.9193 4.65447 16.469 4.84126 16.9493C5.03417 17.4461 5.29264 17.8674 5.71264 18.2873C6.13247 18.7078 6.55394 18.9657 7.05106 19.1591C7.53134 19.3459 8.081 19.4736 8.88482 19.5103C9.69062 19.5471 9.9481 19.5555 12 19.5555C14.0519 19.5555 14.3089 19.5473 15.1152 19.5103C15.9195 19.4736 16.4687 19.3459 16.949 19.1591C17.4461 18.9657 17.8676 18.7078 18.2874 18.2873C18.7074 17.8674 18.9659 17.4461 19.1588 16.9493C19.3456 16.469 19.4732 15.9193 19.5099 15.1155C19.5467 14.3097 19.5551 14.0522 19.5551 12.0002C19.5551 9.94828 19.5469 9.69113 19.5099 8.88498C19.4732 8.08064 19.3456 7.5315 19.1588 7.05121C18.9659 6.55408 18.7074 6.13257 18.2874 5.71273C17.8676 5.29273 17.4461 5.03427 16.949 4.84137C16.4687 4.65457 15.9195 4.5269 15.1152 4.49023C14.3089 4.45324 14.0519 4.44479 12 4.44479ZM16.9395 7.96686C16.9395 8.46796 16.5337 8.87376 16.0332 8.87376C15.5322 8.87376 15.1264 8.46796 15.1264 7.96686C15.1264 7.46593 15.5322 7.06013 16.0332 7.06013C16.5337 7.06013 16.9395 7.46593 16.9395 7.96686ZM12 14.5186C10.6091 14.5186 9.48137 13.3912 9.48137 12.0002C9.48137 10.6093 10.6091 9.48155 12 9.48155C13.391 9.48155 14.5187 10.6093 14.5187 12.0002C14.5187 13.3912 13.391 14.5186 12 14.5186ZM12 8.12046C9.85726 8.12046 8.12029 9.85744 8.12029 12.0002C8.12029 14.143 9.85726 15.88 12 15.88C14.1428 15.88 15.8797 14.143 15.8797 12.0002C15.8797 9.85744 14.1428 8.12046 12 8.12046ZM12 5.80638C14.0172 5.80638 14.2565 5.81465 15.0529 5.84983C15.7897 5.88352 16.1896 6.00672 16.456 6.11011C16.8086 6.24736 17.0604 6.41121 17.3249 6.67531C17.5889 6.93973 17.7528 7.19159 17.89 7.5442C17.9934 7.81061 18.1161 8.21046 18.1503 8.94675C18.1863 9.74365 18.1937 9.9828 18.1937 12.0002C18.1937 14.0175 18.1855 14.2564 18.1503 15.0533C18.1161 15.79 17.9934 16.1899 17.89 16.4563C17.7528 16.8089 17.5889 17.0608 17.3249 17.3247C17.0604 17.5893 16.8086 17.7531 16.456 17.8904C16.1896 17.9938 15.7897 18.117 15.0529 18.1502C14.2565 18.1867 14.0177 18.1941 12 18.1941C9.98229 18.1941 9.74348 18.1858 8.94709 18.1502C8.21032 18.117 7.81047 17.9938 7.54407 17.8904C7.19146 17.7531 6.93958 17.5893 6.67517 17.3247C6.41108 17.0608 6.24725 16.8089 6.11001 16.4563C6.00662 16.1899 5.8839 15.79 5.84971 15.0533C5.8137 14.2564 5.80629 14.0175 5.80629 12.0002C5.80629 9.9828 5.81453 9.74365 5.84971 8.94675C5.8839 8.21046 6.00662 7.81061 6.11001 7.5442C6.24725 7.19159 6.41058 6.93973 6.67517 6.67531C6.93958 6.41121 7.19146 6.24736 7.54407 6.11011C7.81047 6.00672 8.21032 5.88352 8.94709 5.84983C9.74397 5.81383 9.98262 5.80638 12 5.80638Z" fill="#FCFCFD"/>
</svg>