<svg width="24" height="24" viewBox="0 0 24 24" fill="none" xmlns="http://www.w3.org/2000/svg">
<path fill-rule="evenodd" clip-rule="evenodd" d="M24 12.0002C24 18.6278 18.6278 24 11.9998 24C5.37239 24 0 18.6278 0 12.0002C0 5.37271 5.37239 0 11.9998 0C18.6278 0 24 5.37271 24 12.0002ZM12.9287 10.3631C13.1252 10.1416 13.2883 9.91681 13.4904 9.72589C14.1127 9.13973 14.8492 8.84326 15.7082 8.85086C16.1806 8.85416 16.6478 8.88869 17.1029 9.02082C18.1447 9.32174 18.75 10.0385 19.0384 11.0564C19.2551 11.819 19.2949 12.6028 19.2964 13.3883C19.2997 15.0462 19.2914 16.704 19.2949 18.3617C19.2954 18.5168 19.2519 18.5574 19.0992 18.5561C18.2453 18.5495 17.3909 18.5495 16.5368 18.5566C16.387 18.5579 16.3543 18.5112 16.3548 18.3693C16.3598 16.792 16.3614 15.2147 16.3556 13.6369C16.3543 13.2418 16.3296 12.8471 16.2186 12.4628C16.0139 11.7544 15.5074 11.3939 14.7658 11.4333C13.7527 11.4867 13.2265 11.9881 13.0972 13.0176C13.0663 13.2638 13.0518 13.5101 13.0518 13.7578C13.0532 15.292 13.0504 16.8257 13.0567 18.3594C13.0572 18.5125 13.0192 18.5579 12.8628 18.5566C12.0028 18.5483 11.1423 18.55 10.2823 18.5556C10.1441 18.5571 10.1044 18.5196 10.1044 18.38C10.1077 15.3431 10.1077 12.3059 10.1044 9.26888C10.1039 9.11858 10.1535 9.08342 10.2954 9.08491C11.1124 9.09151 11.9293 9.09151 12.7462 9.0844C12.8965 9.08308 12.9355 9.13163 12.9317 9.274C12.9234 9.63686 12.93 10.0002 12.93 10.3631H12.9287ZM8.4847 6.07036C8.48569 7.01376 7.71983 7.78194 6.77923 7.78243C5.84986 7.78293 5.07792 7.01377 5.07461 6.0849C5.07131 5.14612 5.84326 4.37266 6.78253 4.37365C7.71503 4.37464 8.48388 5.1405 8.4847 6.07036ZM8.24935 13.8341C8.24935 15.3364 8.24769 16.8387 8.25265 18.3417C8.25314 18.5084 8.21202 18.5589 8.03876 18.5571C7.1852 18.5472 6.33182 18.5505 5.47776 18.5556C5.34118 18.5571 5.29989 18.5224 5.29989 18.381C5.30485 15.3387 5.30319 12.297 5.30087 9.25484C5.30087 9.12882 5.33126 9.08392 5.46471 9.08491C6.33082 9.08986 7.19692 9.0915 8.06303 9.0839C8.22918 9.08225 8.25215 9.14666 8.25182 9.28952C8.24686 10.8041 8.24851 12.3191 8.24851 13.8341" fill="#FCFCFD"/>
</svg>